<svg xmlns="http://www.w3.org/2000/svg" width="32" height="32" viewBox="0 0 32 32">
  <path d="M15.9697517,1.96477901e-15 C15.9275067,1.96477901e-15 15.8852478,1.96477901e-15 15.8430027,0.00047534434 C8.71301457,-0.0580488395 2.00378562,5.29441308 0.437449914,12.2459184 C-1.0736376,18.369056 1.41645935,25.2509892 6.5727957,28.9110929 C11.6979842,32.6992815 19.1189606,33.0161591 24.4845983,29.5341365 C29.7567453,26.2576169 32.8144025,19.7679315 31.8101321,13.6175385 C30.9062153,7.3768516 26.0204004,1.91790598 19.8595693,0.475200638 C18.5888824,0.157220939 17.2793551,0.000866323598 15.9697517,1.96477901e-15 Z M15.7885909,1.7240544 C15.9042204,1.72369991 16.0199242,1.72477349 16.1356902,1.72743049 C22.7610682,1.66054561 28.9589095,6.87590889 30.0266045,13.4177447 C31.1568064,19.3271842 28.1180716,25.7656878 22.7644953,28.5552867 C17.2909118,31.5676105 9.89807887,30.4394272 5.64808716,25.8290588 C1.29080643,21.3318901 0.44426211,13.8738987 3.80201178,8.56240897 C6.29466208,4.44954844 10.9706905,1.74317439 15.7885909,1.7240544 Z M16.0719614,3.2782432 C15.9550133,3.2782432 15.8379839,3.27967448 15.7209459,3.28301344 C9.62025807,3.28301344 4.02995271,8.33199079 3.37457673,14.3974396 C2.59419402,20.0813112 6.16965328,26.0094713 11.5934956,27.9176948 C16.7319305,29.8595274 23.0093831,28.0180329 26.2168855,23.5372529 C29.6781882,18.953636 29.4791143,11.998785 25.6205432,7.70578349 C23.2613135,4.95897611 19.6973517,3.28316777 16.0719614,3.2782432 Z M15.994291,4.97275911 C16.0722656,4.97275911 16.1502281,4.97387352 16.2282114,4.9757077 C21.6282964,4.9757077 26.5494417,9.53240858 26.9615469,14.9183075 C27.5245308,20.0487063 24.0037161,25.2822461 18.9905906,26.5960318 C14.1591782,28.005294 8.5344596,25.6613403 6.24544308,21.1504614 C3.78174768,16.5914268 5.04515594,10.3550768 9.2586191,7.26683803 C11.1712218,5.78806194 13.5770772,4.96914938 15.994291,4.97275911 Z M15.8567405,8.39231925 C12.8923195,8.41326584 10.0654105,10.3605164 8.97285238,13.1153369 C7.83584121,15.8079457 8.46442069,19.1221668 10.5089925,21.2111191 C12.4969206,23.3511909 15.7724181,24.1398618 18.5160337,23.1368548 C21.3911216,22.1573812 23.5032582,19.313462 23.5793646,16.2724771 C23.7325297,13.3181367 21.9569934,10.3969999 19.2836824,9.14234754 C18.2635624,8.64843616 17.1312451,8.39129683 15.9980049,8.39279175 C15.9508863,8.39215115 15.9037952,8.39198674 15.8567405,8.39231925 Z M16.1270819,9.77438296 C18.8353378,9.78655288 21.3759927,11.7881745 22.0075461,14.4264349 C22.7109182,17.0018298 21.5258775,19.9384067 19.218839,21.2878096 C16.8632438,22.7662013 13.5420885,22.3721873 11.6077738,20.3699528 C9.56648394,18.4007381 9.20297589,14.9936576 10.7690384,12.6320378 C11.8781955,10.8701598 13.9153011,9.75509947 15.9980049,9.77538207 C16.0410692,9.77456651 16.0840937,9.77424471 16.1270819,9.77438296 Z M17.9581706,11.5384885 C17.2674389,12.7916183 16.5767037,14.0447487 15.8859719,15.2978785 C15.2459643,15.365933 15.0939207,16.3369144 15.6844231,16.5958805 C16.0744847,16.8666314 16.3799905,16.4162786 16.7350708,16.4317981 L19.9028098,16.4317981 L19.9028098,15.5676792 L16.7239323,15.5676792 C17.387605,14.3636506 18.0512777,13.1596236 18.7149505,11.9555948 C18.4626899,11.8165598 18.2104312,11.6775236 17.9581706,11.5384885 Z" transform="translate(0 .04)"/>
</svg>
