<svg xmlns="http://www.w3.org/2000/svg" width="32" height="32" viewBox="0 0 32 32">
  <path d="M10.6376825,9.2535016 L10.6376825,9.6881286 L10.6376825,22.7465403 L12.4288901,22.7465403 L19.5676733,22.7465403 L21.3621568,22.7465403 L21.3621568,9.2535016 L10.6376825,9.2535016 L10.6376825,9.2535016 Z M11.5005832,10.1195781 L20.4959437,10.1195781 L20.4959437,21.8802943 L19.5676716,21.8802943 L12.4288899,21.8802943 L11.5005832,21.8802943 L11.5005832,10.1195781 Z M12.4288899,11.4435239 L12.4288899,12.3063918 L19.5676733,12.3063918 L19.5676733,11.4435239 L12.4288899,11.4435239 L12.4288899,11.4435239 Z M12.4288899,14.0485789 L12.4288899,14.9147903 L19.5676733,14.9147903 L19.5676733,14.0485789 L12.4288899,14.0485789 L12.4288899,14.0485789 Z M12.4288899,17.0589681 L12.4288899,17.9220038 L19.5676733,17.9220038 L19.5676733,17.0589681 L12.4288899,17.0589681 L12.4288899,17.0589681 Z M12.4288899,19.7784805 L12.4288899,20.6415511 L19.5676733,20.6415511 L19.5676733,19.7784805 L12.4288899,19.7784805 L12.4288899,19.7784805 Z M15.9999196,0 L15.9945488,3.45944207e-05 L15.8065091,0.00121772361 L15.8011712,0.00125231803 L15.7957986,0.00135610129 L15.6080305,0.0048357811 L15.602658,0.00493956436 L15.5972872,0.00511253646 L15.4098212,0.0109233613 L15.4044496,0.0110963334 L15.3991117,0.0113333052 L15.2119168,0.0194413725 L15.206579,0.0196783443 L15.2012074,0.0199827752 L15.0143501,0.0304218147 L15.0090124,0.0307262456 L15.0036746,0.0310635412 L14.8171214,0.0437999961 L14.8118174,0.0441718861 L14.8064797,0.0445766408 L14.620298,0.0596103382 L14.614994,0.0600496874 L14.6096563,0.0605236309 L14.4238464,0.0778208413 L14.4185423,0.0783276495 L14.4132383,0.0788673225 L14.2278339,0.0984280458 L14.2225298,0.0990023132 L14.2172595,0.0996094453 L14.0322605,0.121433682 L14.0269565,0.122075408 L14.0216862,0.122751729 L13.8371264,0.146839478 L13.8318561,0.147548664 L13.826586,0.148292444 L13.642499,0.174609803 L13.6372287,0.175353583 L13.6319584,0.176197687 L13.4483446,0.20474483 L13.4430743,0.205588934 L13.4378379,0.206467632 L13.2546969,0.237244386 L13.2494941,0.238123084 L13.2442577,0.239069242 L13.0616236,0.272109681 L13.0564208,0.273055838 L13.0512181,0.274069455 L12.8690908,0.309305775 L12.8638881,0.310319392 L12.8587192,0.311367602 L12.6771659,0.348833706 L12.6719633,0.349880187 L12.6667943,0.351028722 L12.4858155,0.390656804 L12.4806468,0.391805339 L12.4755116,0.392988468 L12.295107,0.434846333 L12.289972,0.436029462 L12.2848368,0.437280051 L12.1050405,0.481333797 L12.0999054,0.482584385 L12.0947702,0.483902433 L11.9246698,0.527753628 L11.7730151,0.582381678 L11.6340969,0.664205613 L11.5128137,0.770387479 L11.413321,0.897244874 L11.3390984,1.04035231 L11.2927472,1.1947434 L11.2758217,1.35504668 L11.2889634,1.51572151 L11.3316998,1.67115995 L11.4025103,1.81599035 L11.4989962,1.94514516 L11.6177457,2.05413108 L11.7547045,2.13919824 L11.9050415,2.1973736 L12.0635541,2.22666401 L12.2247697,2.22598769 L12.3565933,2.2026771 L12.5219978,2.16004207 L12.6903416,2.11882611 L12.8611515,2.07916412 L13.0324683,2.04166429 L13.2044269,2.00622542 L13.3737166,1.97345516 L13.5471279,1.94207024 L13.7173634,1.91345546 L13.8937477,1.8859894 L14.0652671,1.86146264 L14.2399284,1.83869242 L14.4145559,1.81808435 L14.5899267,1.79957098 L14.7656014,1.78321975 L14.94131,1.76906441 L15.1175928,1.75707121 L15.2940109,1.74724017 L15.470902,1.73957128 L15.6451244,1.7341659 L15.8224208,1.73088894 L15.9999196,1.72977327 L16.1774183,1.73088894 L16.3547147,1.7341659 L16.5289374,1.73957128 L16.7058274,1.74724017 L16.8822468,1.75707121 L17.0585296,1.76906441 L17.2342381,1.78321975 L17.409912,1.79957098 L17.5852833,1.81808435 L17.7599107,1.83869242 L17.9345728,1.86146264 L18.1060919,1.8859894 L18.282475,1.91345546 L18.4527107,1.94207024 L18.6261221,1.97345516 L18.7954117,2.00622542 L18.9673702,2.04166429 L19.1211873,2.07534663 L19.2811865,2.09504244 L19.4420644,2.08467086 L19.5982115,2.04463733 L19.7442259,1.97629311 L19.8750344,1.88207054 L19.9860478,1.76521301 L20.0734801,1.62974074 L20.1342227,1.48045094 L20.1662156,1.32244507 L20.1683449,1.16122954 L20.1405067,1.00244668 L20.0836837,0.851602725 L19.9998649,0.713900671 L19.8919268,0.59417163 L19.7636507,0.496503277 L19.6194957,0.424375121 L19.4913546,0.385693023 L19.3330453,0.351030971 L19.3278752,0.349882436 L19.3226739,0.348835955 L19.1411206,0.311369851 L19.1359505,0.31032164 L19.1307492,0.309308024 L18.9486217,0.274071703 L18.9434187,0.273058087 L18.9382157,0.27211193 L18.7555814,0.23907149 L18.7503455,0.238125333 L18.7451425,0.237246635 L18.5620014,0.206469881 L18.5567655,0.205591183 L18.5514951,0.204747079 L18.36788,0.176199936 L18.3626113,0.175355832 L18.3573408,0.174612052 L18.1732535,0.148294692 L18.167983,0.147550912 L18.1627126,0.146841727 L17.9781531,0.122753978 L17.9728826,0.122077657 L17.9675793,0.12143593 L17.7825787,0.0996116939 L17.77731,0.0990045618 L17.7720049,0.0984302944 L17.5866013,0.0788695711 L17.5812963,0.0783298982 L17.5759929,0.0778230899 L17.3901828,0.0605258796 L17.3848449,0.060051936 L17.3795416,0.0596125868 L17.1933596,0.0445788894 L17.1880217,0.0441741347 L17.1827184,0.0438022447 L16.9961645,0.0310657898 L16.9908266,0.0307284942 L16.9854887,0.0304240633 L16.7986321,0.0199850239 L16.7932596,0.019680593 L16.7879217,0.0194436212 L16.6007278,0.0113355538 L16.5953899,0.0110985821 L16.5900173,0.0109256099 L16.4025519,0.0051147851 L16.3971811,0.004941813 L16.3918086,0.00483802974 L16.2040405,0.00135834993 L16.198668,0.00125456667 L16.19333,0.00121997225 L16.0052903,3.68430581e-05 L15.9999196,0 L15.9999196,0 Z M25.0154816,2.93532311 L24.854301,2.93890415 L24.6965989,2.97234986 L24.5478498,3.03447798 L24.4132221,3.12312618 L24.2973775,3.23522024 L24.2043376,3.36687501 L24.1373455,3.51352958 L24.0987294,3.67001537 L24.0898456,3.83099428 L24.1109932,3.99079075 L24.161399,4.14393195 L24.2393713,4.28501232 L24.3421756,4.40920076 L24.4437967,4.49629498 L24.4893696,4.5296056 L24.6308228,4.63561865 L24.7675451,4.74078707 L24.907848,4.85149596 L25.0438611,4.96152905 L25.1786237,5.07331919 L25.3134209,5.1880144 L25.4471698,5.30470311 L25.5764924,5.4203782 L25.708823,5.5416614 L25.8369988,5.6621337 L25.9637544,5.78426152 L26.0904773,5.90939594 L26.214327,6.03480071 L26.3377738,6.16290818 L26.4594285,6.29236707 L26.5769613,6.420542 L26.6952379,6.55277104 L26.8118246,6.68641915 L26.9252026,6.81966163 L27.0383436,6.95604616 L27.1484438,7.0920927 L27.2567209,7.22932185 L27.3655377,7.37080749 L27.4703346,7.51057033 L27.5732737,7.65144798 L27.674388,7.79347434 L27.7738124,7.93671686 L27.8725967,8.08289853 L27.9683385,8.22843829 L28.0622243,8.37495795 L28.1554321,8.52445047 L28.2467838,8.6750578 L28.3344184,8.82363807 L28.4209391,8.97448185 L28.5054982,9.1261028 L28.5893153,9.28089934 L28.6695519,9.43343237 L28.7484704,9.58805991 L28.7887746,9.66934331 L28.8734358,9.80653856 L28.9821177,9.92559197 L29.1110026,10.0224159 L29.2556298,10.0936655 L29.4109328,10.1368409 L29.5715737,10.150422 L29.7319448,10.1339355 L29.8864712,10.0880237 L30.029782,10.0142064 L30.156875,9.91505157 L30.2633947,9.79407246 L30.3456239,9.65539069 L30.4006584,9.5038711 L30.4266371,9.34478416 L30.4226518,9.18360253 L30.3887995,9.02600194 L30.3388676,8.90181333 L30.2970101,8.81725298 L30.2946455,8.81252323 L30.2922464,8.80782738 L30.2082944,8.64330116 L30.2058953,8.63860531 L30.2034287,8.63394302 L30.1174166,8.47043042 L30.1149829,8.46573457 L30.1124506,8.46110618 L30.0244441,8.29860702 L30.0219101,8.29394473 L30.0193431,8.28935025 L29.9293423,8.12786453 L29.9267408,8.12327004 L29.9241393,8.11867539 L29.832113,7.95823701 L29.8294786,7.95367626 L29.826775,7.9491155 L29.7327889,7.78975821 L29.7300871,7.78523118 L29.7273507,7.78070416 L29.6313719,7.62246166 L29.6286009,7.61793464 L29.6258316,7.61344151 L29.5278585,7.45631383 L29.5250546,7.45182071 L29.5221833,7.44736131 L29.4222504,7.29134843 L29.4194136,7.28688904 L29.4164731,7.28246337 L29.3145821,7.12759937 L29.3116762,7.12317371 L29.3087046,7.11878177 L29.2048867,6.96510021 L29.2019133,6.96070828 L29.1988742,6.95635024 L29.0930966,6.80385095 L29.0900557,6.79949291 L29.086982,6.79516861 L28.9792792,6.64391938 L28.9761726,6.63956118 L28.9730643,6.63530451 L28.8634017,6.48523772 L28.8602605,6.48094714 L28.8570848,6.47669047 L28.7455316,6.32790731 L28.7423212,6.32365064 L28.739078,6.31942769 L28.6255997,6.1718946 L28.6223564,6.16767166 L28.6190786,6.16348262 L28.503708,6.01723332 L28.5003973,6.01307784 L28.497052,6.00892253 L28.3797561,5.86399076 L28.3764109,5.85983545 L28.3729999,5.8557476 L28.2538446,5.71213354 L28.2504318,5.70801178 L28.2469862,5.70395784 L28.1259403,5.56169503 L28.122493,5.55760718 L28.1189799,5.55358696 L27.9960746,5.41267558 L27.9925615,5.40865519 L27.9890139,5.4046687 L27.864218,5.26514249 L27.8606703,5.261156 L27.8570552,5.25723714 L27.7304344,5.11912964 L27.7268193,5.11517706 L27.7231385,5.11125803 L27.5946583,4.97456959 L27.5910103,4.97068446 L27.5872931,4.96679934 L27.4569898,4.83156352 L27.4532743,4.8277123 L27.4494897,4.82389463 L27.3173632,4.6901116 L27.3135786,4.68629411 L27.3097611,4.68251017 L27.1759775,4.55038249 L27.1721601,4.54659872 L27.1683097,4.54288259 L27.0330403,4.41257925 L27.0291882,4.40886294 L27.0253033,4.40518054 L26.8885809,4.27673526 L26.884696,4.27305286 L26.8807436,4.26943809 L26.7426357,4.14281697 L26.7386833,4.1392022 L26.7346963,4.13562116 L26.5951701,4.01085828 L26.5912177,4.00731097 L26.5871632,4.00379739 L26.4462861,3.88089275 L26.4422316,3.87737917 L26.4381771,3.87389949 L26.2959145,3.75288648 L26.2918618,3.7494068 L26.2877398,3.74599475 L26.1441246,3.62683998 L26.1400372,3.62346148 L26.1358824,3.62008317 L25.9909509,3.50282019 L25.9867943,3.4994756 L25.9826067,3.49616491 L25.836357,3.3807939 L25.8322005,3.37748304 L25.8279783,3.37423982 L25.6804452,3.2607606 L25.6762229,3.25751738 L25.6719661,3.25434178 L25.5231824,3.14278827 L25.5189256,3.13957877 L25.5146358,3.13647081 L25.4643321,3.09971424 L25.325887,3.01714704 L25.1745018,2.9617081 L25.0154816,2.93532311 L25.0154816,2.93532311 Z M6.63395306,3.27934161 L6.47290669,3.28684151 L6.31604936,3.32403743 L6.16885408,3.38974642 L6.05767228,3.46427318 L6.0172333,3.49616491 L6.01304409,3.4994756 L6.00888861,3.50282019 L5.86395702,3.62008317 L5.85980153,3.62346148 L5.85571386,3.62683998 L5.71209962,3.74599475 L5.70797804,3.7494068 L5.70392409,3.75288648 L5.56166128,3.87389949 L5.55760716,3.87737917 L5.55355321,3.88089275 L5.41267557,4.00379739 L5.40862144,4.00731097 L5.40466869,4.01085828 L5.26514247,4.13562116 L5.26115598,4.1392022 L5.25720322,4.14281697 L5.11909589,4.26943809 L5.11514314,4.27305286 L5.11125801,4.27673526 L4.97453584,4.40518054 L4.97065072,4.40886294 L4.96679932,4.41257925 L4.83152977,4.54288259 L4.82767838,4.54659872 L4.82386088,4.55038249 L4.69007768,4.68251017 L4.68626019,4.68629411 L4.68247642,4.6901116 L4.55034874,4.82389463 L4.54656498,4.8277123 L4.54284885,4.83156352 L4.41254533,4.96679934 L4.40882919,4.97068446 L4.40518052,4.97456959 L4.27670151,5.11125803 L4.27301911,5.11517706 L4.26940417,5.11912964 L4.14278322,5.25723714 L4.13916845,5.261156 L4.13562114,5.26514249 L4.01082436,5.4046687 L4.00727722,5.40865519 L4.00376364,5.41267558 L3.88085883,5.55358696 L3.87734542,5.55760718 L3.87389947,5.56169503 L3.75285273,5.70395784 L3.74940678,5.70801178 L3.74599473,5.71213354 L3.62683978,5.8557476 L3.62342774,5.85983545 L3.62008315,5.86399076 L3.50278644,6.00892253 L3.49944185,6.01307784 L3.49613099,6.01723332 L3.38075998,6.16348262 L3.37748303,6.16767166 L3.3742398,6.1718946 L3.26076059,6.31942769 L3.25751736,6.32365064 L3.25430786,6.32790731 L3.14275452,6.47669047 L3.13957875,6.48094714 L3.13643689,6.48523772 L3.02677534,6.63530451 L3.02366721,6.63956118 L3.02055907,6.64391938 L2.91285695,6.79516861 L2.90978272,6.79949291 L2.90674222,6.80385095 L2.80096562,6.95635024 L2.79792512,6.96070828 L2.79495207,6.96510021 L2.69113508,7.11878177 L2.68816221,7.12317371 L2.6852568,7.12759937 L2.58336533,7.28246337 L2.58042619,7.28688904 L2.57758841,7.29134843 L2.47765637,7.44736131 L2.47478486,7.45182071 L2.47198081,7.45631383 L2.37400837,7.61344151 L2.37123805,7.61793464 L2.36846773,7.62246166 L2.27248862,7.78070416 L2.26975203,7.78523118 L2.26704934,7.78975821 L2.17306339,7.9491155 L2.17036071,7.95367626 L2.16772565,7.95823701 L2.07569895,8.11867539 L2.07309763,8.12327004 L2.0704963,8.12786453 L1.98049684,8.28935025 L1.97792924,8.29394473 L1.97539537,8.29860702 L1.88738907,8.46110618 L1.88485537,8.46573457 L1.88242287,8.47043042 L1.79640989,8.63394302 L1.79394366,8.63860531 L1.79154505,8.64330116 L1.7075927,8.80782738 L1.70519409,8.81252323 L1.70282922,8.81725298 L1.62090392,8.98275891 L1.61853922,8.98748866 L1.61627571,8.99225214 L1.53634357,9.15870406 L1.53408006,9.16346754 L1.53185045,9.16823102 L1.4539791,9.33562875 L1.45178322,9.34042596 L1.44958733,9.34522334 L1.40462133,9.44512148 L1.35239189,9.59762077 L1.32938521,9.75718062 L1.33641221,9.91826089 L1.37316878,10.0751859 L1.43843876,10.2226176 L1.52992475,10.3553534 L1.64445113,10.4687988 L1.77806534,10.5590009 L1.92607134,10.622852 L2.08336785,10.658156 L2.24448202,10.6636288 L2.40380541,10.6391019 L2.55583181,10.5854536 L2.69525666,10.504508 L2.81721549,10.3991031 L2.91748534,10.2728876 L2.98174171,10.1554558 L3.02454556,10.0603886 L3.09873433,9.90092995 L3.17380163,9.74461316 L3.25140262,9.58799228 L3.33028724,9.43343237 L3.41052347,9.28089934 L3.49434056,9.1261028 L3.57890091,8.97448185 L3.66542069,8.82363807 L3.75305545,8.6750578 L3.84440635,8.52445047 L3.9376153,8.37495795 L4.03150006,8.22843829 L4.12724272,8.08289853 L4.22602605,7.93671686 L4.32545128,7.79347434 L4.42656558,7.65144798 L4.52950422,7.51057033 L4.6343011,7.37080749 L4.74311802,7.22932185 L4.85139458,7.0920927 L4.9614953,6.95604616 L5.0746367,6.81966163 L5.18801438,6.68641915 L5.30460173,6.55277104 L5.42287815,6.420542 L5.54041131,6.29236707 L5.66206605,6.16290818 L5.7855114,6.03480071 L5.90936219,5.90939594 L6.0360845,5.78426152 L6.1628407,5.6621337 L6.29101563,5.5416614 L6.42334603,5.4203782 L6.55266966,5.30470311 L6.68641913,5.1880144 L6.82121577,5.07331919 L6.95597851,4.96152905 L7.09209268,4.8513946 L7.12901825,4.82223929 L7.24570678,4.71105749 L7.33976037,4.58011207 L7.40786813,4.43399804 L7.44766521,4.27778261 L7.45780033,4.11690506 L7.4379018,3.95693959 L7.38864522,3.80342685 L7.31175376,3.66173831 L7.2098962,3.53677271 L7.08665357,3.43288809 L6.94624883,3.35366565 L6.79358071,3.30190911 L6.63395306,3.27934161 L6.63395306,3.27934161 Z M15.9999196,3.28646806 L15.9945488,3.28650456 L15.847353,3.28741612 L15.8419805,3.28745072 L15.8366097,3.2875545 L15.6896163,3.29029092 L15.6842801,3.2903947 L15.6789076,3.29056768 L15.5321179,3.29512843 L15.52678,3.2953014 L15.5214085,3.29553838 L15.3748888,3.30188974 L15.3695174,3.30212671 L15.3641794,3.30239655 L15.2178964,3.31057225 L15.2125587,3.31087668 L15.2072209,3.31124857 L15.0611744,3.3212147 L15.0558703,3.321552 L15.0505324,3.32199135 L14.9047899,3.33374791 L14.8994522,3.33418726 L14.8941482,3.33466121 L14.7486759,3.34820838 L14.7433718,3.34871519 L14.7380678,3.34925486 L14.6882033,3.35452498 L14.5301635,3.38631535 L14.3807723,3.44685558 L14.2451987,3.5341188 L14.1281722,3.64499651 L14.0337808,3.77563784 L13.9652338,3.92158306 L13.9249976,4.0776634 L13.9144233,4.23854094 L13.9338826,4.39857387 L13.9827,4.55218797 L14.059186,4.69411297 L14.1606721,4.81934875 L14.2836443,4.92360492 L14.4238126,5.00319924 L14.5763457,5.05539496 L14.7359057,5.07840146 L14.8697226,5.07468532 L14.9145872,5.06998948 L15.050127,5.05735438 L15.1827277,5.04664499 L15.3185717,5.03738821 L15.4544493,5.02978696 L15.5906312,5.02384104 L15.7268122,5.0196181 L15.8632647,5.01708423 L15.9999196,5.01624013 L16.1365744,5.01708423 L16.2730269,5.0196181 L16.4092079,5.02384104 L16.5453905,5.02978696 L16.6812671,5.03738821 L16.8171107,5.04664499 L16.9497128,5.05735438 L17.0850825,5.06995558 L17.2198797,5.08417855 L17.3546423,5.1000906 L17.4892025,5.11762427 L17.6207564,5.13644173 L17.7547077,5.15728625 L17.8882889,5.17971866 L18.0209222,5.20373877 L18.153827,5.22944814 L18.2837602,5.2562723 L18.4158192,5.28519099 L18.5480495,5.31586656 L18.6766975,5.34735284 L18.8076079,5.38113654 L18.9355122,5.41576469 L19.0645666,5.4524199 L19.1946001,5.49110217 L19.3210185,5.53035871 L19.4493275,5.57191249 L19.5754086,5.61447989 L19.7026037,5.65917571 L19.8300685,5.70569569 L19.9561842,5.75349947 L20.0768253,5.80089798 L20.2025674,5.85208008 L20.325708,5.90393798 L20.3315198,5.90640404 L20.3317274,5.90593183 L20.4788557,5.95427615 L20.6386854,5.97535712 L20.7996308,5.9663707 L20.9561152,5.92768843 L21.1027367,5.86062801 L21.2343235,5.76752042 L21.3463852,5.65160887 L21.4349642,5.51694732 L21.496992,5.36816433 L21.5303705,5.21042864 L21.5338835,5.04928074 L21.5074309,4.89026126 L21.4518913,4.73891067 L21.3692556,4.60049925 L21.2623986,4.47982423 L21.1349666,4.38107463 L21.0167575,4.31823715 L21.0128725,4.31654721 L21.0080414,4.31445269 L21.0031774,4.3123919 L20.870001,4.25627733 L20.8651699,4.25425027 L20.8602713,4.25225694 L20.7264549,4.19776398 L20.7215564,4.19580455 L20.7166578,4.19384513 L20.5821651,4.14100751 L20.5772665,4.13908198 L20.5723351,4.13722374 L20.4371989,4.08600792 L20.4322674,4.08414985 L20.4273014,4.08232551 L20.2915252,4.03276485 L20.2865921,4.03097442 L20.2815932,4.02921754 L20.145241,3.9813124 L20.1402421,3.97955569 L20.1352415,3.97786576 L19.9982822,3.93161613 L19.9932833,3.92992619 L19.9882498,3.92830544 L19.8506816,3.88371099 L19.8456827,3.88209024 L19.8406492,3.88053695 L19.7025068,3.83759801 L19.6974733,3.83604472 L19.6924069,3.83452429 L19.5537248,3.79330833 L19.5486567,3.7917879 L19.5435887,3.79036953 L19.4043669,3.75080891 L19.3992988,3.74935594 L19.3941978,3.74797044 L19.2544347,3.71009906 L19.2493337,3.70874815 L19.2442328,3.70739724 L19.1039628,3.67124883 L19.0988618,3.66993079 L19.0937263,3.6686802 L18.9529841,3.63422104 L18.9478485,3.63293759 L18.9426801,3.63175446 L18.801464,3.59898437 L18.7963302,3.59780125 L18.79116,3.59665271 L18.6494716,3.56563933 L18.6443032,3.5644908 L18.6391002,3.56344259 L18.4969725,3.53411845 L18.4918041,3.53303738 L18.4866011,3.53202376 L18.344034,3.50445633 L18.3388328,3.50344271 L18.3335952,3.50249656 L18.1906234,3.4766521 L18.1854204,3.47570595 L18.1801845,3.47482725 L18.0368062,3.45070577 L18.0315703,3.44982707 L18.0263327,3.44901583 L17.8825497,3.42665123 L17.8773138,3.42580713 L17.8720433,3.42506335 L17.727923,3.40445528 L17.7226525,3.4037115 L17.7173821,3.40300231 L17.5728898,3.38415095 L17.5676194,3.38347463 L17.562316,3.3828329 L17.4175194,3.36577214 L17.4122143,3.36513041 L17.406911,3.36459074 L17.261777,3.34925296 L17.2564719,3.34871329 L17.2511686,3.34820648 L17.1056956,3.3346593 L17.1003923,3.33418536 L17.0950544,3.33374601 L16.9493115,3.32198944 L16.9439736,3.32155009 L16.9386703,3.3212128 L16.792623,3.31124666 L16.7872851,3.31087477 L16.7819472,3.31057034 L16.6356647,3.30239464 L16.6303268,3.30212481 L16.624956,3.30188784 L16.4784365,3.29553647 L16.473064,3.2952995 L16.4677261,3.29512653 L16.3209368,3.29056577 L16.3155642,3.2903928 L16.3102281,3.29028902 L16.1632346,3.2875526 L16.1578638,3.28744882 L16.1524913,3.28741422 L16.0052955,3.28650266 L15.9999247,3.28646806 L15.9999196,3.28646806 Z M10.5184606,4.65173273 L10.3574479,4.65963876 L10.2007257,4.69734132 L10.0777872,4.75028012 L10.0179565,4.78173268 L10.0132942,4.78419891 L10.008666,4.78669888 L9.88143684,4.85561754 L9.87677473,4.85811751 L9.87218007,4.8606851 L9.74576185,4.93119147 L9.74113346,4.93375907 L9.73657271,4.9363604 L9.61096521,5.00842075 L9.60640445,5.01105598 L9.6018437,5.01372477 L9.47711455,5.08733927 L9.4725538,5.09000823 L9.46802677,5.09274465 L9.34414225,5.16791314 L9.33961522,5.17064973 L9.33512192,5.17345378 L9.21211575,5.25014252 L9.20762263,5.25294657 L9.20316324,5.25581825 L9.08103542,5.33402724 L9.07657602,5.33689893 L9.07215036,5.33980416 L8.9509348,5.41956731 L8.94650913,5.42247272 L8.9421172,5.42544577 L8.82177999,5.50676289 L8.81738805,5.50970204 L8.81303002,5.51274254 L8.69367252,5.59554619 L8.68931449,5.59858669 L8.68499019,5.6016611 L8.56654477,5.685985 L8.56222047,5.68905923 L8.5579299,5.6922011 L8.44046437,5.77804525 L8.43617379,5.78118711 L8.43191712,5.78436288 L8.31543114,5.87169338 L8.31117447,5.87490288 L8.30695153,5.87814611 L8.19144525,5.9669633 L8.18725604,5.97020653 L8.183067,5.97351722 L8.06857435,6.06382094 L8.06438513,6.06713162 L8.06026355,6.07047621 L7.94678434,6.16230018 L7.94262903,6.16564477 L7.93854118,6.16905682 L7.82610932,6.26233341 L7.82198774,6.26574563 L7.81793362,6.26919141 L7.70654909,6.36395452 L7.70249497,6.36740047 L7.69847476,6.37091388 L7.58817131,6.46712961 L7.58415109,6.47064319 L7.58016461,6.47422424 L7.47094224,6.57189259 L7.46695575,6.57547363 L7.46300299,6.57908857 L7.35486169,6.67820972 L7.35094284,6.68182449 L7.34702381,6.68547316 L7.24003122,6.78604693 L7.23611219,6.78972933 L7.23226097,6.79344564 L7.12638302,6.89547202 L7.12249789,6.89918833 L7.1186804,6.90293836 L7.01395115,7.00638364 L7.01013365,7.0101674 L7.00638362,7.01398507 L6.90293817,7.11871432 L6.89915458,7.12253181 L6.89543827,7.12638303 L6.79341172,7.23226099 L6.78969558,7.23614611 L6.78604691,7.24003124 L6.68547315,7.34705773 L6.68179074,7.35094286 L6.6781758,7.35489544 L6.57905483,7.46303674 L6.57543988,7.46695576 L6.57185884,7.47094225 L6.47419049,7.58016462 L6.47064318,7.58415111 L6.46712959,7.58817133 L6.37091386,7.69850868 L6.36740045,7.70252889 L6.36392077,7.70658284 L6.26919139,7.81796754 L6.26571171,7.82202148 L6.26229966,7.82614306 L6.16902307,7.93857493 L6.16561085,7.94266278 L6.16226626,7.94681826 L6.07047619,8.06026357 L6.06709788,8.06441888 L6.06382092,8.06860809 L5.97348347,8.18310075 L5.97020651,8.18725623 L5.96696329,8.19147917 L5.87811236,8.30698527 L5.87486913,8.31120821 L5.87169337,8.31546506 L5.78432896,8.43195087 L5.78115337,8.43620754 L5.7780115,8.44049811 L5.69216735,8.55796382 L5.68905921,8.56225422 L5.68595108,8.56657852 L5.60162718,8.6849902 L5.59855294,8.68931451 L5.59554617,8.69367254 L5.51270879,8.81306377 L5.50970202,8.81742197 L5.50672915,8.82181373 L5.42544575,8.94211721 L5.42247271,8.94650915 L5.41953356,8.95093481 L5.35179734,9.05390718 L5.27612205,9.19627135 L5.22818317,9.35015564 L5.20963589,9.51032383 L5.22112245,9.67110002 L5.26223706,9.82697763 L5.33159489,9.9725174 L5.42672955,10.1026182 L5.5443978,10.212854 L5.68044434,10.2993063 L5.83017332,10.3590358 L5.98841581,10.389914 L6.14959744,10.390893 L6.30821147,10.3619406 L6.45864998,10.3040691 L6.5957776,10.2192723 L6.71472982,10.1104891 L6.79675631,10.0047125 L6.86155339,9.90626701 L6.93658678,9.7952203 L7.0142215,9.68329524 L7.09070752,9.57589721 L7.1711802,9.46566122 L7.25161897,9.35839828 L7.3348618,9.25018935 L7.41780054,9.1449872 L7.50371232,9.03880516 L7.58965783,8.93525852 L7.67806941,8.83130627 L7.76685288,8.72955007 L7.85779832,8.62779386 L7.95036538,8.52684838 L8.04289871,8.42840287 L8.13685093,8.33090334 L8.23195186,8.23458624 L8.32962021,8.13810033 L8.42840354,8.04293194 L8.52681516,7.95039861 L8.62765928,7.85796664 L8.72971956,7.76671711 L8.83107049,7.67827146 L8.9352253,7.58969089 L9.03880584,7.50374537 L9.14464989,7.41807022 L9.25052784,7.33459077 L9.35704752,7.25266564 L9.46579699,7.17114562 L9.57410727,7.09195691 L9.68329592,7.01422083 L9.79343054,6.93780227 L9.90623395,6.86155271 L10.0180239,6.78800566 L10.1307936,6.71577632 L10.2443065,6.64496586 L10.3593397,6.57516903 L10.4744743,6.50723008 L10.5923792,6.43952776 L10.7089663,6.37452813 L10.8283915,6.30986632 L10.8829183,6.28118391 L11.0179852,6.19317761 L11.1343696,6.08165799 L11.2280179,5.95044239 L11.2957202,5.80412564 L11.3350781,5.64780884 L11.3447065,5.48689739 L11.324335,5.32696583 L11.274673,5.17362191 L11.1973761,5.03213626 L11.095147,4.90747458 L10.9716003,4.80392794 L10.8309591,4.72514451 L10.6781557,4.67379342 L10.5184606,4.65173273 L10.5184606,4.65173273 Z M24.4271066,6.76800646 L24.2660938,6.77581061 L24.1093378,6.81334417 L23.9622441,6.87932352 L23.829981,6.9714853 L23.7170769,7.08655223 L23.6275171,7.22060561 L23.5644082,7.3689157 L23.5298813,7.52638102 L23.5251851,7.68752893 L23.5504892,7.84675113 L23.6049148,7.99850717 L23.6865369,8.13749285 L23.7729555,8.23972213 L23.8629875,8.33090403 L23.9569408,8.42840356 L24.0494739,8.52684908 L24.1420417,8.62779456 L24.2329869,8.72955076 L24.3217701,8.83130696 L24.4101813,8.93525922 L24.4961277,9.03880585 L24.5820377,9.14498789 L24.6649778,9.25019004 L24.7482207,9.35839897 L24.8286596,9.46566191 L24.9091314,9.5758979 L24.985618,9.68329593 L25.063253,9.79522099 L25.1382866,9.90623397 L25.2130832,10.0199496 L25.2852108,10.1325842 L25.356055,10.2461985 L25.4253788,10.3604885 L25.4943981,10.477515 L25.5608851,10.5934265 L25.626426,10.7109934 L25.6900053,10.8284591 L25.7515592,10.9454855 L25.8133154,11.0664646 L25.8719979,11.1849437 L25.9307825,11.3073756 L25.9869984,11.4282871 L26.0413221,11.5487933 L26.0955436,11.6732184 L26.1472675,11.7959542 L26.198078,11.9207847 L26.2464566,12.0438246 L26.2944961,12.1706483 L26.3407126,12.2972355 L26.3845298,12.4219984 L26.4277054,12.5498356 L26.4695629,12.6789566 L26.5087861,12.8051722 L26.5472655,12.9346309 L26.5689544,13.0109819 L26.6272651,13.1612514 L26.7124677,13.2981088 L26.8215542,13.4167907 L26.9508111,13.5131415 L27.0956752,13.5838506 L27.251146,13.626418 L27.4118561,13.6393909 L27.572158,13.6223301 L27.726482,13.5758439 L27.8695213,13.5014861 L27.9962787,13.4018921 L28.1023591,13.2804738 L28.1840469,13.1415218 L28.23854,12.9897995 L28.2639115,12.8306112 L28.2593174,12.6694633 L28.2328319,12.5382477 L28.2095205,12.4562887 L28.2080675,12.4511874 L28.2065799,12.4461537 L28.1653295,12.307472 L28.163842,12.3024044 L28.1622506,12.2973706 L28.1193449,12.1592293 L28.1177882,12.1541957 L28.1161622,12.1491619 L28.0715683,12.0115951 L28.0699078,12.0065951 L28.0682126,12.001595 L28.0219633,11.8646025 L28.0202682,11.8596026 L28.0185126,11.8546364 L27.9706062,11.7182518 L27.9688505,11.7132858 L27.9670603,11.7083196 L27.9174986,11.572577 L27.9156754,11.5676108 L27.913816,11.5626783 L27.8626007,11.4275439 L27.860743,11.4226116 L27.8588178,11.4177128 L27.8059454,11.2832203 L27.8040202,11.2783217 L27.8020276,11.2734231 L27.7475673,11.1396062 L27.7455747,11.1347076 L27.7435129,11.1298428 L27.687399,10.9967015 L27.6853717,10.9918366 L27.6832442,10.9870055 L27.6255407,10.85454 L27.6234131,10.8497089 L27.621251,10.844878 L27.5618921,10.7131218 L27.55973,10.7083246 L27.557535,10.7035273 L27.4965554,10.5724807 L27.4943258,10.5677172 L27.4920616,10.5629537 L27.4294941,10.4326503 L27.4272316,10.4278869 L27.4248671,10.4231571 L27.3607118,10.2935969 L27.3583801,10.2888673 L27.355981,10.2841713 L27.2902395,10.1553882 L27.2878403,10.1506584 L27.2853738,10.1459963 L27.2180426,10.0179902 L27.2156106,10.0133281 L27.2130766,10.008666 L27.1441922,9.88143686 L27.1416582,9.87680847 L27.1390912,9.87218009 L27.0686189,9.7457956 L27.0660503,9.74116721 L27.0634159,9.73657272 L26.9913886,9.61099896 L26.9887543,9.60640447 L26.9860853,9.60187744 L26.9124701,9.47711457 L26.9097683,9.47255381 L26.9070319,9.46806052 L26.8318962,9.34417599 L26.8291598,9.33964897 L26.826356,9.33515584 L26.749667,9.21214967 L26.7468632,9.20765638 L26.7439918,9.20319698 L26.6657479,9.08106916 L26.6629112,9.07660977 L26.6600052,9.07218411 L26.5802426,8.95093481 L26.5773038,8.94650915 L26.5743304,8.94211721 L26.4930474,8.82181373 L26.490074,8.81742197 L26.4870677,8.81306377 L26.4042296,8.69367254 L26.4012234,8.68931451 L26.3981479,8.6849902 L26.313824,8.56657852 L26.3107175,8.56225422 L26.3076092,8.55796382 L26.2217648,8.44049811 L26.2186219,8.43620754 L26.2154462,8.43195087 L26.1280831,8.31546506 L26.1249074,8.31120821 L26.1216641,8.30698527 L26.0328118,8.19147917 L26.0295703,8.18725623 L26.0262925,8.18310075 L25.9359544,8.06860809 L25.9326783,8.06441888 L25.9293001,8.06026357 L25.837509,7.94681826 L25.8341655,7.94266278 L25.8307527,7.93857493 L25.7374758,7.82614306 L25.7340648,7.82202148 L25.7305846,7.81796754 L25.6358547,7.70658284 L25.6323762,7.70252889 L25.6288614,7.69850868 L25.5326457,7.58817133 L25.5291326,7.58415111 L25.525585,7.58016462 L25.4279163,7.47094225 L25.4243358,7.46695576 L25.4207206,7.46303674 L25.3216007,7.35489544 L25.3179856,7.35094286 L25.314303,7.34705773 L25.2137284,7.24003124 L25.2100804,7.23614611 L25.206365,7.23226099 L25.1043374,7.12638303 L25.1006219,7.12253181 L25.0968373,7.11871432 L25.0035275,7.02425529 L24.8800825,6.92060712 L24.7395081,6.84168859 L24.5867391,6.79023614 L24.4270772,6.76800646 L24.4271066,6.76800646 Z M4.44980871,12.8263883 L4.28862707,12.8282464 L4.13058731,12.8599691 L3.98116241,12.9204419 L3.84555505,13.0076373 L3.7284948,13.1184475 L3.63403577,13.2490889 L3.5654551,13.3949664 L3.52991469,13.5240199 L3.50440805,13.6558435 L3.50339444,13.6610461 L3.50244828,13.6662488 L3.47660383,13.8092211 L3.47565767,13.8144575 L3.47477897,13.8196941 L3.45065749,13.9630717 L3.44977879,13.9683083 L3.44896755,13.9735446 L3.42660278,14.117294 L3.42579154,14.1225641 L3.4250149,14.1278344 L3.40440683,14.2719552 L3.40366305,14.2772255 L3.40298673,14.2824958 L3.38413536,14.4269882 L3.38342618,14.4322585 L3.38281731,14.4375288 L3.36572283,14.5823592 L3.3650811,14.5876632 L3.36454143,14.5929673 L3.34923755,14.7381016 L3.34866328,14.7434056 L3.34815647,14.7487096 L3.33464303,14.8941819 L3.33413622,14.8994859 L3.33369687,14.9047899 L3.32194013,15.0505663 L3.32153537,15.0558704 L3.32116348,15.0612081 L3.31119735,15.2072547 L3.31082546,15.2125924 L3.31052103,15.2179303 L3.30237923,15.3642134 L3.3020748,15.3695511 L3.30183783,15.374889 L3.29548647,15.5214422 L3.29524949,15.52678 L3.29507652,15.5321516 L3.29051577,15.6789415 L3.2903428,15.6842794 L3.29023901,15.6896502 L3.28750259,15.8366436 L3.2874334,15.8420144 L3.28736422,15.8473869 L3.28641806,15.994581 L3.28641806,15.9999535 L3.28641806,16.0053243 L3.28736422,16.1525201 L3.2874334,16.1578926 L3.28750259,16.1632288 L3.29023901,16.3102551 L3.2903428,16.315593 L3.29051577,16.3209655 L3.29507652,16.4677219 L3.29524949,16.4730927 L3.29548647,16.4784306 L3.30183783,16.6249847 L3.3020748,16.6303226 L3.30237923,16.6356588 L3.31052103,16.7819759 L3.31082546,16.7873138 L3.31119735,16.7926518 L3.32116348,16.9386644 L3.32153537,16.9440024 L3.32194013,16.9493403 L3.33369687,17.0950831 L3.33413622,17.1003864 L3.33464303,17.1057244 L3.34815647,17.2511628 L3.34866328,17.2564678 L3.34923755,17.2617711 L3.36454143,17.4069397 L3.3650811,17.412243 L3.36572283,17.4175135 L3.38281731,17.5623448 L3.38342618,17.5676481 L3.38413536,17.5729185 L3.40298673,17.7174108 L3.40366305,17.7226813 L3.40440683,17.7279517 L3.4250149,17.8720721 L3.42579154,17.8773425 L3.42660278,17.8825784 L3.44896755,18.0263286 L3.44977879,18.0315991 L3.45065749,18.0368349 L3.47477897,18.1801786 L3.47565767,18.1854162 L3.47660383,18.1906521 L3.50244828,18.3336239 L3.50339444,18.3388269 L3.50440805,18.3440628 L3.53200921,18.486597 L3.53298823,18.4917983 L3.53406931,18.4970013 L3.56339362,18.639129 L3.56447469,18.6442974 L3.56559036,18.6495004 L3.59663747,18.7911559 L3.59775141,18.7963243 L3.59896741,18.8014927 L3.63170359,18.9427088 L3.63291958,18.9478773 L3.63417017,18.9530128 L3.6686295,19.093755 L3.66988009,19.0988906 L3.67119813,19.1039915 L3.70738027,19.2442615 L3.70869831,19.2493624 L3.71008382,19.2544634 L3.74792147,19.3941937 L3.74930697,19.3992947 L3.75075994,19.4043956 L3.79032056,19.5436174 L3.79177353,19.5486855 L3.79325936,19.5537536 L3.83450905,19.6924357 L3.83599488,19.697502 L3.83758277,19.7025355 L3.88048798,19.8406434 L3.88204127,19.8457114 L3.88366202,19.8507103 L3.90129704,19.9051031 L3.96508051,20.0531431 L4.05521523,20.1867899 L4.16862681,20.301384 L4.30129503,20.3929381 L4.44865914,20.4582749 L4.6055841,20.4951335 L4.76666437,20.5022617 L4.92622439,20.4793221 L5.07875742,20.4271952 L5.21899317,20.3476678 L5.34199934,20.2434798 L5.44355282,20.1182774 L5.52010646,19.9764195 L5.56899132,19.8228065 L5.58855204,19.6627727 L5.57804537,19.5019294 L5.54676181,19.371761 L5.53027532,19.3209158 L5.49108641,19.1947344 L5.45260687,19.0652752 L5.41622184,18.9372014 L5.38088416,18.8068652 L5.34797898,18.6793311 L5.31507381,18.5449405 L5.28517523,18.4158531 L5.25618891,18.2837249 L5.22953357,18.1543677 L5.20379047,18.0214975 L5.17963527,17.887816 L5.15723676,17.7546742 L5.13679769,17.6234593 L5.11723696,17.4865345 L5.10004111,17.3546762 L5.08416279,17.220218 L5.06990609,17.0851165 L5.05754118,16.9524486 L5.04639261,16.8142058 L5.03733873,16.6813356 L5.0297373,16.5453553 L5.02372392,16.4067424 L5.01960234,16.2731612 L5.01706847,16.1366084 L5.01622437,15.9999535 L5.01706847,15.8633332 L5.01960234,15.7268132 L5.02372392,15.5931646 L5.0297373,15.4543818 L5.03733873,15.3184027 L5.04642651,15.1854981 L5.05757508,15.0472217 L5.06990609,14.91479 L5.08412889,14.7799933 L5.10007484,14.6448926 L5.11723696,14.5133729 L5.13679769,14.3764143 L5.1571354,14.2456379 L5.17970273,14.1115845 L5.20372302,13.9788149 L5.22811468,13.8526669 L5.24385791,13.6922622 L5.22956747,13.5316888 L5.18571627,13.3765544 L5.11382474,13.2322646 L5.01642657,13.1038193 L4.89686635,12.995678 L4.75933329,12.9115905 L4.60855697,12.85453 L4.44980784,12.8263883 L4.44980871,12.8263883 Z M31.1476817,14.4273261 L30.9867692,14.4368532 L30.8303851,14.4761097 L30.6840352,14.543677 L30.5527857,14.6372575 L30.4411304,14.7535744 L30.3530565,14.8885738 L30.2915372,15.0375595 L30.2587331,15.1953966 L30.2541718,15.3291798 L30.260186,15.4681994 L30.2656917,15.6452586 L30.2690024,15.8224547 L30.2700749,15.9999535 L30.2690024,16.1773848 L30.2656917,16.3546138 L30.260186,16.5316057 L30.2525165,16.708295 L30.2426519,16.8848476 L30.2306251,17.0608934 L30.2164016,17.2371434 L30.2003204,17.409946 L30.1818418,17.5849799 L30.1611664,17.7602819 L30.1384292,17.93447 L30.1134971,18.1086927 L30.0869441,18.2794006 L30.0576876,18.4532514 L30.0265042,18.6257167 L29.9935651,18.7959524 L29.9581266,18.967878 L29.9206937,19.138688 L29.8815397,19.3075727 L29.8392083,19.4803753 L29.7960673,19.6475702 L29.7511343,19.8135161 L29.7030948,19.982669 L29.6531958,20.1504053 L29.6012696,20.3176001 L29.5481291,20.4815517 L29.4918786,20.648072 L29.4335679,20.8140162 L29.374818,20.9749287 L29.3124875,21.1393871 L29.2504268,21.2973591 L29.1835696,21.4615805 L29.1162731,21.6212424 L29.0460032,21.7824922 L28.9752593,21.939518 L28.9011044,22.0989775 L28.8265448,22.2542131 L28.7484704,22.4118806 L28.6677945,22.5698872 L28.6082004,22.7196827 L28.5774581,22.8779263 L28.5766105,23.0391414 L28.6056629,23.1976877 L28.6636708,23.3481267 L28.748569,23.4851517 L28.8574532,23.6040372 L28.9864731,23.7006577 L29.1312006,23.7716714 L29.2866056,23.8145754 L29.4472466,23.8279202 L29.6075848,23.8111972 L29.7620437,23.7650154 L29.9052179,23.6909626 L30.0322105,23.5916386 L30.1385278,23.470456 L30.2084259,23.3563014 L30.292243,23.1920453 L30.2946421,23.1873491 L30.2970066,23.1826201 L30.3789314,23.0171135 L30.3812959,23.0123844 L30.3835601,23.0076553 L30.4634923,22.8411697 L30.4657547,22.8364389 L30.4679861,22.8316424 L30.5458564,22.6642434 L30.5480531,22.6594815 L30.5502482,22.6546504 L30.6260255,22.4863399 L30.6282205,22.4815417 L30.6303152,22.4767105 L30.7040653,22.3074885 L30.70616,22.3026574 L30.7082201,22.2977934 L30.7798755,22.1277272 L30.7819356,22.1228615 L30.78393,22.1179629 L30.8535236,21.9470181 L30.8554834,21.9421195 L30.8574431,21.9372209 L30.9249421,21.765432 L30.926869,21.7605317 L30.9287267,21.7556002 L30.9941309,21.5829654 L30.9960232,21.578034 L30.9978135,21.5731008 L31.0611247,21.3996565 L31.0629478,21.3947233 L31.0646776,21.3897244 L31.1258941,21.2155346 L31.1276515,21.2105357 L31.1293466,21.2055697 L31.1884011,21.0305704 L31.1900962,21.0255697 L31.1917567,21.0205708 L31.2487164,20.8448623 L31.2503424,20.8398271 L31.2519337,20.8347936 L31.3067295,20.6583413 L31.3083209,20.6533078 L31.3098084,20.6482415 L31.3624767,20.4711128 L31.3639989,20.4660465 L31.3654518,20.4609438 L31.415958,20.2831406 L31.4174109,20.2780397 L31.4187947,20.2729387 L31.4671404,20.0944592 L31.4685242,20.0893582 L31.4698388,20.0842227 L31.5160552,19.9050686 L31.5173698,19.8999676 L31.5186152,19.8948321 L31.5626366,19.7150362 L31.5638474,19.7099007 L31.5650582,19.7047651 L31.6068811,19.5243621 L31.6080919,19.519192 L31.6091989,19.5140236 L31.6488614,19.3330446 L31.6499685,19.3278762 L31.6510236,19.3227078 L31.6884548,19.1411546 L31.6895272,19.1359516 L31.6905477,19.1307486 L31.7257839,18.9486556 L31.726839,18.9434526 L31.7277903,18.9382496 L31.7607969,18.7556153 L31.7617482,18.7503794 L31.7626304,18.7451418 L31.7934402,18.5620007 L31.7943223,18.5567648 L31.7951353,18.551529 L31.8237155,18.367881 L31.8245284,18.3626434 L31.8252722,18.3573747 L31.8516245,18.1732874 L31.8523683,18.168017 L31.8530775,18.1627465 L31.877131,17.978187 L31.8778402,17.9728819 L31.8784456,17.9676132 L31.9002695,17.7826126 L31.9009095,17.7773093 L31.9014457,17.7720388 L31.9210071,17.5866006 L31.9215779,17.5812973 L31.9220795,17.5759923 L31.9393439,17.3901822 L31.9398455,17.3848788 L31.9402606,17.3795755 L31.9552608,17.1933935 L31.9556932,17.1880556 L31.9560737,17.1827177 L31.9687751,16.9961984 L31.9691902,16.9908605 L31.969467,16.9855226 L31.9799404,16.7986314 L31.9802172,16.7932935 L31.9804593,16.7879556 L31.9886011,16.6007617 L31.9888433,16.5954238 L31.9890163,16.5900513 L31.9948264,16.402553 L31.9949994,16.397215 L31.9951723,16.3918425 L31.9986508,16.2040744 L31.9988238,16.1987019 L31.9988238,16.1933311 L32,16.0053243 L31.9995676,16.0004932 L32,15.994581 L31.9988238,15.806543 L31.9988238,15.8011705 L31.9986508,15.7957997 L31.9951723,15.6080298 L31.9949994,15.6026919 L31.9948264,15.5973211 L31.9890163,15.4098213 L31.9888433,15.4044833 L31.9886011,15.3991456 L31.9823171,15.2541801 L31.9603237,15.0944511 L31.9091083,14.9416142 L31.8303922,14.8009391 L31.7269462,14.6772912 L31.6023527,14.5749942 L31.4609342,14.497596 L31.3076238,14.447799 L31.1477267,14.4273261 L31.1476817,14.4273261 Z M0.9380021,14.9987422 L0.776786565,15.0002961 L0.618679338,15.0317487 L0.469153084,15.091985 L0.333410458,15.178944 L0.21614748,15.2895515 L0.121485902,15.4200239 L0.0526348749,15.5658001 L0.0120607394,15.7218126 L0.000878352342,15.8551914 L0,15.994581 L0,15.9999535 L0,16.0053243 L0.0011824373,16.1933311 L0.00121703172,16.1987019 L0.00131908526,16.2040744 L0.00479879966,16.3918425 L0.0049008532,16.397215 L0.00507036587,16.402553 L0.0108811388,16.5900513 L0.0110506515,16.5954238 L0.0112871043,16.6007617 L0.019429005,16.7879556 L0.0196659768,16.7932935 L0.0199358133,16.7986314 L0.0303750257,16.9855226 L0.0306794566,16.9908605 L0.0310513466,16.9961984 L0.043754072,17.1827177 L0.044125962,17.1880556 L0.0445653111,17.1933935 L0.059565279,17.3795755 L0.0600046281,17.3848788 L0.0605114364,17.3901822 L0.0777747442,17.5759923 L0.0782815525,17.5812973 L0.0788558198,17.5866006 L0.0984165431,17.7720388 L0.0989562161,17.7773093 L0.0995979426,17.7826126 L0.121422179,17.9676132 L0.122031041,17.9728819 L0.122740226,17.978187 L0.146794246,18.1627465 L0.147503432,18.168017 L0.148247212,18.1732874 L0.174598474,18.3573747 L0.175342254,18.3626434 L0.176153493,18.367881 L0.204734538,18.551529 L0.205545778,18.5567648 L0.206424476,18.5620007 L0.237235132,18.7451418 L0.23811383,18.7503794 L0.239059988,18.7556153 L0.272066697,18.9382496 L0.273012855,18.9434526 L0.274026471,18.9486556 L0.309262791,19.1307486 L0.310276408,19.1359516 L0.311357484,19.1411546 L0.348789685,19.3227078 L0.34987076,19.3278762 L0.35098643,19.3330446 L0.390648242,19.5140236 L0.391763912,19.519192 L0.392979906,19.5243621 L0.434804041,19.7047651 L0.436020035,19.7099007 L0.437270624,19.7150362 L0.48129064,19.8948321 L0.482541229,19.8999676 L0.483859276,19.9050686 L0.530075173,20.0842227 L0.531393221,20.0893582 L0.532778727,20.0944592 L0.581123047,20.2729387 L0.582508553,20.2780397 L0.583961519,20.2831406 L0.634467989,20.4609438 L0.635920955,20.4660465 L0.63744138,20.4711128 L0.690110001,20.6482415 L0.691595832,20.6533078 L0.693183716,20.6583413 L0.747980759,20.8347936 L0.749568643,20.8398271 L0.751189392,20.8448623 L0.808148587,21.0205708 L0.809769335,21.0255697 L0.811459273,21.0305704 L0.870512987,21.2055697 L0.872202924,21.2105357 L0.873959629,21.2155346 L0.935175494,21.3897244 L0.936898296,21.3947233 L0.938722633,21.3996565 L1.00203319,21.5731008 L1.00382362,21.578034 L1.00571559,21.5829654 L1.07112067,21.7556002 L1.07297874,21.7605317 L1.07490443,21.765432 L1.14240403,21.9372209 L1.14436346,21.9421195 L1.14632289,21.9470181 L1.21591717,22.1179629 L1.21791051,22.1228615 L1.21997129,22.1277272 L1.29162637,22.2977934 L1.29368716,22.3026574 L1.29578168,22.3074885 L1.36953128,22.4767105 L1.37162597,22.4815417 L1.37382185,22.4863399 L1.44959851,22.6546504 L1.45179439,22.6594815 L1.45399027,22.6642434 L1.53186162,22.8316424 L1.53409123,22.8364389 L1.53635474,22.8411697 L1.61628688,23.0076553 L1.61855039,23.0123844 L1.6209151,23.0171135 L1.70284039,23.1826201 L1.70520527,23.1873491 L1.70760387,23.1920453 L1.72807685,23.2321472 L1.81442764,23.3682953 L1.92452853,23.4860304 L2.05459542,23.5812672 L2.20006773,23.6507258 L2.35587771,23.6920091 L2.51668763,23.7036311 L2.67682209,23.6852182 L2.83077401,23.637381 L2.97317191,23.5618407 L3.09908349,23.4611657 L3.20411665,23.3388692 L3.28462306,23.1992081 L3.33783222,23.0470117 L3.36185233,22.8876213 L3.35590642,22.7265411 L3.32012956,22.5693458 L3.26867711,22.4457658 L3.2514138,22.4119152 L3.173306,22.2542131 L3.09874551,22.0989775 L3.02459063,21.939518 L2.95384764,21.7824922 L2.88357772,21.6212424 L2.81628085,21.4615805 L2.74942298,21.2973591 L2.68736249,21.1393871 L2.62503182,20.9749287 L2.56628202,20.8140162 L2.50797157,20.648072 L2.45172173,20.4815517 L2.3985802,20.3176001 L2.34665484,20.1504053 L2.29675637,19.982669 L2.24871613,19.8135161 L2.20378386,19.6475702 L2.1606422,19.4803753 L2.11831126,19.3075727 L2.07915608,19.138688 L2.04172388,18.967878 L2.00628483,18.7959524 L1.97334576,18.6257167 L1.94216356,18.4532514 L1.91290688,18.2794006 L1.88635307,18.1086927 L1.8614207,17.93447 L1.83868438,17.7602819 L1.81800885,17.5849799 L1.7995292,17.409946 L1.78344816,17.2371434 L1.76922518,17.0608934 L1.75719826,16.8848476 L1.74733349,16.708295 L1.7396646,16.5316057 L1.73415786,16.3546138 L1.730847,16.1773848 L1.72976592,15.9999189 L1.73057716,15.865933 L1.71655691,15.7053266 L1.67297607,15.5501245 L1.60132099,15.4057334 L1.50412554,15.2771191 L1.38476804,15.1687751 L1.24737008,15.0844512 L1.09669511,15.0271205 L0.93801362,14.9987422 L0.9380021,14.9987422 Z M27.7364815,17.0226839 L27.5753338,17.0304555 L27.4185778,17.0679888 L27.2714512,17.1339344 L27.1391535,17.2260628 L27.0262494,17.341129 L26.9366551,17.4751149 L26.8735133,17.6234593 L26.843648,17.749978 L26.8434058,17.7499434 L26.8428004,17.7536588 L26.8428004,17.753728 L26.8428004,17.7541674 L26.8203002,17.887816 L26.7961464,18.0214975 L26.7704029,18.1543677 L26.7437479,18.2837249 L26.7147613,18.4158531 L26.684863,18.5449405 L26.6519568,18.6793311 L26.6190523,18.8068652 L26.5837141,18.9372014 L26.5473295,19.0652752 L26.5088501,19.1947344 L26.4696615,19.3209833 L26.4280738,19.4492611 L26.3849311,19.5770633 L26.3408094,19.7026376 L26.2945947,19.8292583 L26.2468908,19.9551699 L26.1978047,20.0800004 L26.1469942,20.2048309 L26.0956422,20.3266552 L26.0418254,20.4501331 L25.9870953,20.5716529 L25.9313862,20.6914845 L25.8726033,20.8138813 L25.813414,20.9334085 L25.7516578,21.0543869 L25.6894951,21.1725632 L25.6265228,21.2888125 L25.5603403,21.4075959 L25.493855,21.5235063 L25.4254774,21.6394183 L25.3561536,21.7537079 L25.2853769,21.8672209 L25.2131801,21.9799572 L25.1391601,22.0924565 L25.0633499,22.204686 L24.9857148,22.316611 L24.90923,22.4240769 L24.8287911,22.5341771 L24.7483175,22.6414734 L24.6640957,22.7509665 L24.6198044,22.8071149 L24.5322045,22.9424189 L24.4711903,23.0916402 L24.4389621,23.2496122 L24.4366304,23.4107945 L24.4642316,23.5696106 L24.5208194,23.7205564 L24.6044341,23.8583944 L24.7121698,23.9782918 L24.840311,24.0761282 L24.9843639,24.14846 L25.1393642,24.1928169 L25.2998685,24.2076493 L25.4603745,24.1924122 L25.6152399,24.1476833 L25.7591233,24.0749797 L25.8869946,23.9768388 L25.977805,23.8784609 L26.0264534,23.8168067 L26.0297312,23.8126173 L26.0329744,23.8083934 L26.121825,23.6928878 L26.1250682,23.6886984 L26.128244,23.6844416 L26.2156088,23.5679552 L26.2187828,23.5636984 L26.2219257,23.5594087 L26.30777,23.4419433 L26.3108783,23.4376519 L26.3139866,23.4333276 L26.3983105,23.3148832 L26.4013842,23.3105589 L26.4043905,23.3062 L26.4872286,23.1868095 L26.4902348,23.1824506 L26.4932082,23.1780588 L26.5744913,23.057755 L26.5774647,23.0533632 L26.5804035,23.0489386 L26.6601661,22.9277232 L26.663072,22.9232968 L26.6659105,22.9188376 L26.7441527,22.7967089 L26.747024,22.7922497 L26.7498279,22.7877576 L26.8265168,22.6647502 L26.8293207,22.6602582 L26.8320571,22.6557315 L26.9071927,22.5318454 L26.9099292,22.5273187 L26.912631,22.5227592 L26.9862462,22.398029 L26.9889151,22.3934677 L26.9915495,22.3888736 L27.0635768,22.263301 L27.0662112,22.2587052 L27.0687798,22.254111 L27.1392521,22.1276926 L27.141819,22.1230639 L27.1443531,22.1184369 L27.2132375,21.9912073 L27.2157715,21.9865785 L27.2182035,21.9818823 L27.2855346,21.8538761 L27.2880012,21.8492145 L27.2904003,21.8445183 L27.3561436,21.7157025 L27.358541,21.7110063 L27.3608726,21.7062755 L27.425028,21.5767159 L27.4273925,21.5719869 L27.4296567,21.5672561 L27.4922224,21.4369199 L27.4944866,21.4321891 L27.4967163,21.4273926 L27.5576958,21.2963455 L27.5598926,21.2915818 L27.5620547,21.2867507 L27.6214118,21.1549944 L27.623574,21.1501979 L27.6257016,21.1453668 L27.683405,21.0129013 L27.6855326,21.0080355 L27.6875598,21.0032044 L27.7436754,20.8700298 L27.7457355,20.8651658 L27.7477282,20.8603001 L27.8021885,20.7264491 L27.8041811,20.7215851 L27.8061063,20.7166519 L27.8589787,20.5821592 L27.8609038,20.5772606 L27.8627616,20.5723292 L27.9139786,20.4371947 L27.9158363,20.4322616 L27.9176594,20.4273301 L27.9672211,20.291554 L27.9690114,20.2865879 L27.9707688,20.2816202 L28.0186734,20.1452369 L28.0204308,20.1402708 L28.0221259,20.1352702 L28.0683752,19.998278 L28.0700703,19.993312 L28.0716963,19.9882785 L28.116292,19.8507103 L28.1179525,19.8457114 L28.1195092,19.8406434 L28.162415,19.7025355 L28.1640063,19.697502 L28.1654939,19.6924357 L28.2067443,19.5537536 L28.2082318,19.5486855 L28.2096848,19.5436174 L28.2492452,19.4043956 L28.2506982,19.3992947 L28.252082,19.3941937 L28.2899196,19.2544634 L28.2913034,19.2493624 L28.292618,19.2442615 L28.3288003,19.1039915 L28.3301149,19.0988906 L28.3313257,19.093755 L28.3657852,18.9530128 L28.3670306,18.9478773 L28.3682414,18.9427088 L28.4009781,18.8014927 L28.4021889,18.7963243 L28.4032959,18.7911559 L28.4343427,18.6495004 L28.435467,18.6442974 L28.4365394,18.639129 L28.4658634,18.4970013 L28.4669185,18.4917983 L28.4679391,18.486597 L28.4955402,18.3440628 L28.4965607,18.3388269 L28.4975121,18.3336239 L28.5233576,18.1906521 L28.5243089,18.1854162 L28.5251911,18.1801786 L28.5493138,18.0368349 L28.5501959,18.0315991 L28.5510089,18.0263286 L28.5520813,18.0196398 L28.5619131,17.8587273 L28.5417099,17.6987955 L28.4921828,17.5453848 L28.4150217,17.4038314 L28.3129612,17.2790683 L28.1895162,17.1753871 L28.0489418,17.096434 L27.8962074,17.0449489 L27.7365109,17.0226839 L27.7364815,17.0226839 Z M6.84064123,22.7102229 L6.68121648,22.7340757 L6.52895363,22.7871159 L6.38922469,22.8674528 L6.26679279,22.97235 L6.16598257,23.0981267 L6.09023964,23.2404568 L6.04226687,23.3943414 L6.02365213,23.5544755 L6.03510478,23.7152859 L6.07618566,23.8711632 L6.14547586,24.0167037 L6.22270514,24.1260272 L6.26229966,24.1737641 L6.26571171,24.1778514 L6.26919139,24.1819387 L6.36392077,24.2932895 L6.36740045,24.2973786 L6.37091386,24.3013985 L6.46712959,24.411701 L6.47064318,24.4157226 L6.47419049,24.4197079 L6.57185884,24.5289311 L6.57543988,24.5329164 L6.57905483,24.5368706 L6.6781758,24.6449781 L6.68179074,24.6489305 L6.68547315,24.6528484 L6.78604691,24.759842 L6.78969558,24.7637598 L6.79341172,24.7676119 L6.89543827,24.8734898 L6.89915458,24.8773419 L6.90293817,24.8811594 L7.00638362,24.9858871 L7.01013365,24.9897063 L7.01395115,24.9934892 L7.1186804,25.0969352 L7.12249789,25.1007181 L7.12638302,25.1044353 L7.23226097,25.2064266 L7.23611219,25.2101437 L7.24003122,25.2138263 L7.34702381,25.3143992 L7.35094284,25.3180489 L7.35486169,25.3216969 L7.46300299,25.4208186 L7.46695575,25.4244337 L7.47094224,25.4279796 L7.58016461,25.5256829 L7.58415109,25.5292306 L7.58817131,25.5327436 L7.69847476,25.6289593 L7.70249497,25.6324724 L7.70654909,25.635918 L7.81793362,25.7306808 L7.82198774,25.7341281 L7.82610932,25.7375391 L7.93854118,25.8308507 L7.94262903,25.8342288 L7.94678434,25.8376069 L8.06026355,25.9293963 L8.06438513,25.9327416 L8.06857435,25.9360523 L8.183067,26.0263887 L8.18725604,26.0296665 L8.19144525,26.0329098 L8.30695153,26.1217603 L8.31117447,26.1250036 L8.31543114,26.1281793 L8.43191712,26.2155095 L8.43617379,26.2187198 L8.44046437,26.221861 L8.5579299,26.3076725 L8.56222047,26.3108137 L8.56654477,26.3138874 L8.68499019,26.3982113 L8.68931449,26.4013196 L8.69367252,26.4043276 L8.81303002,26.487131 L8.81738805,26.4901702 L8.82177999,26.4931435 L8.9421172,26.5744266 L8.94650913,26.5774 L8.9509348,26.5803059 L9.07215036,26.6600685 L9.07657602,26.6630073 L9.08103542,26.6658458 L9.20316324,26.744088 L9.20762263,26.7469265 L9.21211575,26.7497304 L9.33512192,26.8264193 L9.33961522,26.8292232 L9.34414225,26.8319942 L9.46802677,26.9071281 L9.4725538,26.9098645 L9.47711455,26.912568 L9.6018437,26.9861486 L9.60640445,26.9888505 L9.61096521,26.9914866 L9.73657271,27.0635121 L9.74113346,27.0661482 L9.74576185,27.0687151 L9.87218007,27.1391874 L9.87677473,27.1417561 L9.88143684,27.1442555 L10.008666,27.2131745 L10.0132942,27.215674 L10.0179565,27.2181406 L10.1459963,27.2854717 L10.1506584,27.2879365 L10.1553544,27.2903356 L10.2841375,27.3560789 L10.2888334,27.358478 L10.2935631,27.3608079 L10.4231232,27.4249633 L10.427853,27.427295 L10.4326164,27.429592 L10.5629199,27.4921595 L10.5676834,27.494422 L10.5724806,27.4966516 L10.7035272,27.5575983 L10.7082907,27.5598279 L10.7130881,27.5619901 L10.844878,27.6213472 L10.8496752,27.6235093 L10.8545063,27.625604 L10.9869718,27.6833404 L10.9918029,27.6854351 L10.9966677,27.6874952 L11.1298428,27.7436108 L11.1346737,27.745638 L11.1395724,27.7476306 L11.2733892,27.8021238 L11.2782879,27.8041164 L11.2831865,27.8060433 L11.412071,27.8566844 L11.5669351,27.9014132 L11.727441,27.9165829 L11.887947,27.9017522 L12.0429462,27.8573607 L12.1869658,27.7849961 L12.3151069,27.687125 L12.4228092,27.5672259 L12.5064236,27.4293897 L12.5629774,27.278411 L12.5905785,27.1195932 L12.5881799,26.9584126 L12.5559166,26.8004735 L12.4949033,26.6512504 L12.4072687,26.5159482 L12.296053,26.3992595 L12.1651078,26.3052388 L12.0446692,26.2467932 L11.9207171,26.1981119 L11.7950082,26.1468949 L11.6731846,26.0955775 L11.5509892,26.0423021 L11.4304493,25.9880442 L11.3051121,25.9297354 L11.1860248,25.8725733 L11.0664308,25.8133493 L10.9464991,25.7521345 L10.8283577,25.6900064 L10.7109934,25.6264582 L10.5923115,25.5602773 L10.4763663,25.4937903 L10.3612317,25.425852 L10.2461309,25.3560543 L10.1326856,25.2853451 L10.0180239,25.2118665 L9.90616632,25.1382859 L9.79518724,25.0632869 L9.68505262,24.9869353 L9.57410727,24.9079148 L9.46407401,24.8275104 L9.35542591,24.746025 L9.24893996,24.6640656 L9.14468379,24.5818018 L9.03880584,24.4961599 L8.93367132,24.4088972 L8.8326582,24.3229525 L8.72823321,24.2319052 L8.62765928,24.1419061 L8.52823422,24.0507913 L8.42833591,23.9568726 L8.33097164,23.8630889 L8.23188423,23.7652178 L8.13813473,23.6702872 L8.04164882,23.570152 L7.94921685,23.4717741 L7.85661589,23.3707601 L7.76803532,23.2717076 L7.67803568,23.1685315 L7.58965783,23.0646479 L7.55388098,23.0215398 L7.43982749,22.9075875 L7.30661874,22.8168118 L7.15888292,22.7523174 L7.0017215,22.716372 L6.84064123,22.7102229 L6.84064123,22.7102229 Z M21.9041805,25.4112463 L21.7435724,25.4251429 L21.5883369,25.4685208 L21.4674259,25.5259527 L21.4076295,25.5602099 L21.2888461,25.6264582 L21.171481,25.6900064 L21.0533393,25.7521345 L20.9334091,25.8133493 L20.8138145,25.8725733 L20.6947267,25.9297354 L20.5693893,25.9880442 L20.4488503,26.0423021 L20.3266541,26.0955775 L20.2048316,26.1468949 L20.0791224,26.1980774 L19.9537176,26.2473675 L19.8300685,26.2942256 L19.7026037,26.3407465 L19.5778752,26.3845638 L19.4492272,26.4280092 L19.3234505,26.4687856 L19.1921664,26.5095621 L19.064532,26.5475018 L18.9378784,26.5834817 L18.8075751,26.6187853 L18.6767978,26.652501 L18.5480495,26.6840217 L18.4157517,26.7147312 L18.2863271,26.7430744 L18.1512947,26.7709471 L18.0184573,26.7966214 L17.8882889,26.8201698 L17.7573092,26.8421961 L17.6207564,26.8634457 L17.489135,26.8822633 L17.3545419,26.899865 L17.2225141,26.9154394 L17.0851171,26.9299656 L16.9497803,26.9425337 L16.8171107,26.9532424 L16.6786656,26.9626677 L16.5428565,26.9702369 L16.4093099,26.9760125 L16.2730269,26.9802693 L16.1324871,26.9828708 L15.9722838,27.0008772 L15.8181968,27.0483096 L15.6756315,27.1235127 L15.5494488,27.2238504 L15.4441116,27.3458753 L15.3632336,27.485334 L15.3096528,27.6373609 L15.2851935,27.7967184 L15.2907677,27.9578333 L15.3261392,28.1150943 L15.3900578,28.2631014 L15.4803613,28.3966479 L15.5938399,28.511107 L15.7266444,28.6025245 L15.8740754,28.6677281 L16.0310338,28.7044172 L16.1646478,28.7122874 L16.3102229,28.7095856 L16.3155591,28.7094472 L16.3209316,28.7092742 L16.4677209,28.7047476 L16.4730588,28.7045746 L16.4784313,28.7043394 L16.6249508,28.6979878 L16.6303216,28.6977508 L16.6356595,28.6974464 L16.781942,28.6892718 L16.7872799,28.6889673 L16.7926178,28.68863 L16.9386651,28.6786634 L16.9439684,28.6782915 L16.9493064,28.6778521 L17.0950492,28.6660952 L17.1003871,28.6656905 L17.1056904,28.6651837 L17.2511634,28.6516365 L17.2564668,28.6511625 L17.2617718,28.6505883 L17.4069058,28.6352854 L17.4122091,28.6347112 L17.4175142,28.6341023 L17.5623108,28.6170075 L17.5676142,28.6164003 L17.5728846,28.6156911 L17.7173769,28.5968389 L17.7226473,28.5961643 L17.7279178,28.595386 L17.8720381,28.5747781 L17.8773086,28.574036 L17.8825445,28.5732248 L18.0263275,28.5508595 L18.0315651,28.5500482 L18.036801,28.5491713 L18.1801793,28.5250486 L18.1854152,28.5241699 L18.1906182,28.5232255 L18.33359,28.4973471 L18.3388276,28.4964338 L18.3440289,28.4954202 L18.4865959,28.467819 L18.4917989,28.4668054 L18.4969673,28.4657589 L18.6390951,28.436435 L18.6442981,28.4353539 L18.6494665,28.4342382 L18.7911548,28.4031915 L18.796325,28.4020429 L18.8014588,28.4008598 L18.9426749,28.3680902 L18.9478433,28.3669071 L18.9529789,28.3656582 L19.0937211,28.3311987 L19.0988566,28.3299482 L19.1039576,28.3285972 L19.2442276,28.2924495 L19.2493285,28.2911315 L19.2544295,28.289746 L19.3941927,28.2518755 L19.3992936,28.25049 L19.4043617,28.2490699 L19.5435835,28.2095094 L19.5486516,28.2080564 L19.5537196,28.2065706 L19.6924018,28.1653202 L19.6974681,28.1638015 L19.7025016,28.1622465 L19.840644,28.1193408 L19.8456775,28.1177529 L19.8506764,28.1161321 L19.9882446,28.0715711 L19.9932781,28.0699157 L19.998277,28.0682275 L20.1352363,28.0219765 L20.1402369,28.0202883 L20.1452358,28.0185655 L20.281588,27.9706591 L20.2865869,27.9689035 L20.29152,27.9670786 L20.4272962,27.9175187 L20.4322623,27.9157284 L20.4371937,27.9138361 L20.5723299,27.8626536 L20.5772613,27.8607613 L20.5821599,27.8588361 L20.7166526,27.8059984 L20.7215512,27.8040732 L20.7264497,27.8020788 L20.8602662,27.7475874 L20.8651647,27.745593 L20.8699958,27.7435658 L21.0031722,27.6874519 L21.0080362,27.6853918 L21.0128673,27.6832971 L21.1453328,27.6255608 L21.1501639,27.6234661 L21.1549605,27.6213039 L21.2867514,27.5619451 L21.2915479,27.5597829 L21.2963115,27.5575533 L21.4273587,27.4966083 L21.4321552,27.4943787 L21.4369188,27.4921145 L21.5672222,27.4295471 L21.5719858,27.42725 L21.5767166,27.4249201 L21.7062762,27.3607647 L21.7110052,27.358433 L21.7157014,27.3560339 L21.8444843,27.2902924 L21.8491805,27.2878933 L21.8538421,27.2854267 L21.981883,27.2180956 L21.9865446,27.215629 L21.9911733,27.2131295 L22.118403,27.1442105 L22.1230646,27.1417111 L22.1276587,27.1391442 L22.2540771,27.0686719 L22.2587058,27.0661033 L22.2632671,27.0634689 L22.328097,27.026273 L22.4598188,26.9334008 L22.5720483,26.8176582 L22.6608314,26.6830981 L22.723129,26.5344164 L22.7567444,26.3767489 L22.7604944,26.2156012 L22.7342771,26.0565481 L22.6790073,25.9050955 L22.5965757,25.76655 L22.4898865,25.6457048 L22.3625911,25.5467872 L22.2191782,25.473172 L22.0645844,25.4274624 L21.9041805,25.4112463 L21.9041805,25.4112463 Z M6.32983299,26.8178035 L6.17037433,26.8414869 L6.01807793,26.8943247 L5.87821372,26.9745266 L5.75571436,27.0792889 L5.65473515,27.2049653 L5.57885713,27.3471933 L5.53071536,27.5010433 L5.5119318,27.6611792 L5.52318173,27.8219879 L5.56412734,27.9778998 L5.63324873,28.1235405 L5.72821439,28.253811 L5.82429503,28.3469859 L5.85571386,28.3730338 L5.85980153,28.3764448 L5.86395702,28.3797901 L6.00888861,28.497053 L6.01304409,28.5004312 L6.0172333,28.5037073 L6.16348243,28.6190797 L6.16763791,28.6223904 L6.17186085,28.6256336 L6.31939395,28.7391119 L6.32361689,28.7423552 L6.32787356,28.7455309 L6.47665655,28.8571187 L6.4809134,28.8602945 L6.4852038,28.8634356 L6.63527076,28.9730636 L6.63956116,28.9762065 L6.64388546,28.9792802 L6.79516859,29.0870159 L6.7994929,29.0900896 L6.80385093,29.0931305 L6.95635023,29.1989081 L6.96067453,29.2019144 L6.96510019,29.2048878 L7.11878176,29.3087385 L7.12317369,29.3117101 L7.12759936,29.3146161 L7.28242963,29.416507 L7.28685529,29.4194129 L7.29131468,29.4222843 L7.44732739,29.5222172 L7.45178679,29.5250539 L7.45628008,29.5278578 L7.6134076,29.6258309 L7.61790089,29.6286348 L7.62242792,29.6313712 L7.78067041,29.7273846 L7.78519726,29.730121 L7.78975819,29.73279 L7.94908158,29.826809 L7.95364251,29.8295125 L7.958237,29.8321469 L8.11864164,29.9241404 L8.12323612,29.9267747 L8.12783078,29.9293434 L8.2893165,30.0193753 L8.29394471,30.021944 L8.2985731,30.024478 L8.46107226,30.1124845 L8.46573438,30.1149839 L8.47039667,30.1174505 L8.63390928,30.2034626 L8.6386053,30.2058946 L8.64330114,30.2082937 L8.80782736,30.2922803 L8.81252321,30.2946795 L8.81725296,30.2970094 L8.98272517,30.3789688 L8.98745474,30.3813004 L8.99221822,30.3835975 L9.15867014,30.463495 L9.16343362,30.4657921 L9.1681971,30.4680217 L9.335595,30.5458592 L9.34039221,30.5480905 L9.34518942,30.5502527 L9.51349941,30.6260629 L9.51833052,30.628225 L9.52316163,30.6303526 L9.69234997,30.7040681 L9.69721481,30.7061974 L9.70204575,30.7082246 L9.87214634,30.7799129 L9.87701118,30.7819402 L9.88187602,30.7839328 L10.0528548,30.8535281 L10.0577196,30.8555208 L10.0626521,30.8574459 L10.2344418,30.9249466 L10.2393403,30.9269046 L10.2442728,30.9287641 L10.4169071,30.9941683 L10.4218057,30.996026 L10.4267719,30.9978508 L10.6001832,31.0611621 L10.6051494,31.0629524 L10.6101156,31.064708 L10.7843377,31.1259246 L10.7893039,31.1276474 L10.7943039,31.1293373 L10.9692691,31.1884246 L10.9742691,31.1901128 L10.9793029,31.1917353 L11.1550114,31.248695 L11.1600452,31.2503157 L11.1650791,31.2518708 L11.341497,31.3067012 L11.3465645,31.3082545 L11.3515984,31.3097749 L11.5287597,31.3624432 L11.5338271,31.3639636 L11.5388946,31.3653837 L11.7167316,31.4159227 L11.721833,31.4173757 L11.7269343,31.4187612 L11.9054132,31.4671051 L11.9105145,31.4684906 L11.9156495,31.4698087 L12.0947702,31.5160234 L12.0999054,31.5173414 L12.1050405,31.518592 L12.2848368,31.5626117 L12.289972,31.5638623 L12.295107,31.5650783 L12.4755116,31.6069012 L12.4806468,31.6080843 L12.4858155,31.6092329 L12.6446323,31.6440297 L12.8046654,31.6636914 L12.9655092,31.65332 L13.1216907,31.6132873 L13.2677036,31.5449772 L13.39848,31.4507195 L13.5095267,31.333863 L13.5969248,31.1984241 L13.6577015,31.0491008 L13.6896946,30.8910942 L13.6917893,30.7299136 L13.6639853,30.5711304 L13.6071613,30.420252 L13.5233103,30.2825507 L13.4154055,30.1628211 L13.2871292,30.065187 L13.1429407,29.9930594 L13.0147995,29.9543759 L12.8611178,29.9206947 L12.6928754,29.8817086 L12.5219641,29.8398493 L12.3529446,29.796269 L12.1838576,29.7504591 L12.0172031,29.703127 L11.8494337,29.6532297 L11.6839954,29.6018103 L11.5182528,29.5481284 L11.3517672,29.4919125 L11.1891667,29.434785 L11.0239648,29.3744471 L10.8628508,29.3134001 L10.6992029,29.2491098 L10.5382917,29.1836035 L10.3786303,29.116307 L10.217381,29.0460371 L10.0603549,28.9752932 L9.90309209,28.902152 L9.74559286,28.8265441 L9.59008696,28.7495508 L9.43657421,28.6712065 L9.28079796,28.5893164 L9.12816357,28.5066478 L8.97434674,28.4209384 L8.82370568,28.3345198 L8.67188202,28.2449254 L8.52445045,28.1555006 L8.37684973,28.0634397 L8.22830319,27.968305 L8.08286478,27.8726307 L7.93854118,27.7750969 L7.79350805,27.6744548 L7.65138051,27.573273 L7.51043523,27.4702681 L7.37077374,27.3655716 L7.23063936,27.2578031 L7.09202522,27.1484103 L6.95601224,27.0383776 L6.92881653,27.0158099 L6.79567523,26.9248992 L6.64800704,26.8602371 L6.49091326,26.8241222 L6.32983299,26.8178035 L6.32983299,26.8178035 Z M25.5452087,26.905068 L25.3842979,26.9145607 L25.2279138,26.9537164 L25.0815293,27.0212153 L24.9712595,27.0970929 L24.9078134,27.1484103 L24.7692005,27.2578031 L24.6290654,27.3655716 L24.4894042,27.4702681 L24.3484579,27.573273 L24.2063302,27.6744548 L24.0612983,27.7750969 L23.9169738,27.8726307 L23.7715354,27.968305 L23.6229887,28.0634397 L23.4753881,28.1555006 L23.3279571,28.2449254 L23.1761343,28.3345198 L23.0254929,28.4209384 L22.8716757,28.5066478 L22.7190417,28.5893164 L22.5632647,28.6712065 L22.409752,28.7495508 L22.2542466,28.8265441 L22.0967469,28.902152 L21.9394841,28.9752932 L21.7824583,29.0460371 L21.6212085,29.116307 L21.4615483,29.1836035 L21.3006358,29.2491098 L21.1369887,29.3134001 L20.9758738,29.3744471 L20.8106716,29.434785 L20.6480726,29.4919125 L20.481587,29.5481284 L20.3158434,29.6018103 L20.1504059,29.6532297 L19.9826368,29.703127 L19.8159817,29.7504591 L19.6468945,29.796269 L19.4778748,29.8398493 L19.3069646,29.8817086 L19.1386869,29.9207276 L18.9698713,29.9577212 L18.8589599,29.9805933 L18.7048054,30.0277212 L18.5620688,30.1026528 L18.4357179,30.202788 L18.3301444,30.3246106 L18.2489963,30.4639015 L18.1951448,30.6158593 L18.170415,30.7751493 L18.1756526,30.9362641 L18.2107193,31.0936272 L18.2744007,31.2417346 L18.3644344,31.3754507 L18.4777103,31.4901122 L18.6103125,31.5818012 L18.7576415,31.64724 L18.9145341,31.6842318 L19.0755798,31.6914621 L19.2083826,31.6746388 L19.3226739,31.6510904 L19.3278752,31.6500093 L19.3330453,31.6488608 L19.5140243,31.6092329 L19.5191927,31.6080843 L19.5243282,31.6069012 L19.7047312,31.5650783 L19.7098667,31.5638623 L19.7150023,31.5626117 L19.8947981,31.518592 L19.8999337,31.5173414 L19.9050692,31.5160234 L20.0841888,31.4698087 L20.0893243,31.4684561 L20.0944252,31.4670723 L20.2729048,31.4187266 L20.2780057,31.4173428 L20.2831067,31.4158898 L20.4609445,31.3653491 L20.4660126,31.3639307 L20.4710789,31.3624103 L20.6482404,31.309742 L20.6532739,31.3082216 L20.658342,31.3066666 L20.8347597,31.2518362 L20.8397932,31.2502829 L20.8448284,31.2486604 L21.0205369,31.1917007 L21.0255704,31.1901128 L21.0305693,31.18839 L21.2055358,31.1293027 L21.2105347,31.1276145 L21.2155007,31.1258917 L21.3897234,31.0646752 L21.3946894,31.0629178 L21.3996554,31.0611275 L21.5730669,30.997818 L21.5780329,30.9959931 L21.5829315,30.9941354 L21.7555663,30.9287295 L21.7604995,30.9268717 L21.765398,30.924912 L21.937187,30.8574131 L21.9421202,30.8554862 L21.9469842,30.8534935 L22.1179636,30.7838999 L22.1228276,30.7819056 L22.1276933,30.7798783 L22.2977941,30.70819 L22.3026252,30.7061628 L22.3074892,30.7040352 L22.4766784,30.6303197 L22.4815095,30.6281904 L22.4863388,30.6260283 L22.6546494,30.5502181 L22.6594476,30.5480559 L22.6642441,30.5458263 L22.8316413,30.4679889 L22.836405,30.4657593 L22.8411686,30.4634622 L23.0076214,30.3835629 L23.0123851,30.3812658 L23.0171141,30.3789359 L23.1825862,30.2969765 L23.1873152,30.2946449 L23.1920114,30.2922457 L23.3565373,30.2082609 L23.3612335,30.2058617 L23.3659297,30.2034298 L23.5294419,30.1174159 L23.5341053,30.1149493 L23.5387669,30.1124499 L23.7012655,30.0244434 L23.7058942,30.0219094 L23.710523,30.0193425 L23.872008,29.9293088 L23.8766021,29.9267419 L23.881198,29.9241058 L24.0416019,29.832114 L24.0461961,29.8294779 L24.0507574,29.8267761 L24.2100802,29.7327554 L24.2146415,29.7300864 L24.2191682,29.72735 L24.3774117,29.6313384 L24.3819384,29.6286002 L24.3864322,29.6257963 L24.5435583,29.5278249 L24.5480522,29.5250211 L24.5525114,29.5221826 L24.7085253,29.4222514 L24.7129845,29.4193784 L24.7174091,29.4164741 L24.8722399,29.3145832 L24.8766663,29.3116773 L24.8810581,29.3087039 L25.0347386,29.2048532 L25.0391649,29.2018798 L25.0434892,29.1988735 L25.1959884,29.0930976 L25.2003455,29.0900568 L25.2046698,29.086983 L25.355953,28.9792456 L25.3602773,28.9761719 L25.3645687,28.9730308 L25.5146358,28.8634028 L25.5189256,28.8602599 L25.5231824,28.8570841 L25.6719661,28.7454981 L25.6762229,28.7423223 L25.6804452,28.7390791 L25.8279783,28.625599 L25.8322005,28.6223558 L25.836357,28.6190451 L25.9826067,28.5036744 L25.9867943,28.5003966 L25.9909509,28.4970184 L26.059261,28.4417487 L26.1745642,28.3291144 L26.266997,28.1970537 L26.3332799,28.0500949 L26.371185,27.8934063 L26.3793268,27.7323935 L26.3574355,27.5726988 L26.3062859,27.4198278 L26.2276718,27.2790855 L26.124295,27.1553707 L25.9997672,27.0530058 L25.8583833,26.9755403 L25.7051075,26.9256413 L25.5452087,26.905068 L25.5452087,26.905068 Z" transform="translate(0 .309)"/>
</svg>
