<svg xmlns="http://www.w3.org/2000/svg" width="32" height="32" viewBox="0 0 32 32">
  <path d="M6.49417317,0 C2.91556567,0 0,2.9032665 0,6.475 L0,19.8583333 C0,23.4300667 2.91556567,26.3333333 6.49417317,26.3333333 L25.5058267,26.3333333 C29.084435,26.3333333 32,23.4300667 32,19.8583333 L32,6.475 C32,2.9032665 29.084435,0 25.5058267,0 L6.49417317,0 Z M6.49417317,2 L25.5058267,2 C28.0147767,2 30,3.9804335 30,6.475 L30,19.8583333 C30,22.3529 28.0147767,24.3333333 25.5058267,24.3333333 L6.49417317,24.3333333 C3.98522267,24.3333333 2,22.3529 2,19.8583333 L2,6.475 C2,3.9804335 3.98522267,2 6.49417317,2 Z M10.9249023,3.3277995 C10.70164,3.3331675 10.4948487,3.417182 10.3176432,3.53144533 L10.3173503,3.53164067 L10.3170573,3.531836 C9.33261,4.1693205 5.96247017,6.50814917 5.22164717,7.01663417 L5.22161467,7.01666667 L5.221582,7.01666667 C4.552371,7.47613417 4.10158267,8.16961983 3.84241533,8.9912435 L3.84238283,8.99140633 L3.84235033,8.9915365 C3.57254633,9.84937817 3.60715683,10.7838613 3.60976567,11.5665038 L3.60979817,11.5667318 L3.60979817,11.566927 C3.61244717,12.1562368 3.6264815,12.6705092 3.7793295,13.294205 C3.77933983,13.2942583 3.77938417,13.294315 3.7793945,13.2943683 C4.00033733,14.20204 4.41447217,14.9235883 5.01077467,15.412435 C5.60705233,15.9012617 6.373157,16.1436283 7.23925783,16.1463217 C10.2778698,16.1577283 13.3182822,16.1618083 16.3585283,16.1463217 L16.3587883,16.1463217 L16.35905,16.1463217 C16.6863417,16.144175 17.003765,16.0189217 17.2074867,15.776725 C17.4111933,15.5345467 17.4938167,15.21525 17.4981117,14.8622717 C17.5009817,14.6375867 17.4710967,14.425715 17.4008133,14.2366217 L17.7275383,14.2366217 C18.0632417,14.2366217 18.3691567,14.1265783 18.579915,13.9208667 C18.7906033,13.7152233 18.897,13.4461783 18.9538733,13.166569 C18.9538783,13.1665482 18.95387,13.1665247 18.9538733,13.1665038 C19.0363283,12.7625173 18.9926717,12.3610417 18.8275717,12.0244467 C19.207045,11.9864925 19.5263467,11.7805422 19.704655,11.5027995 C19.9009417,11.1970545 19.9620233,10.8365413 19.9631633,10.477832 C19.9643417,10.1031932 19.874585,9.73954217 19.6695633,9.444694 C19.4645433,9.14984583 19.1152,8.93351617 18.7116533,8.93294267 L18.7115567,8.93294267 L18.7114583,8.93294267 C18.5642083,8.93281983 18.4060333,8.93236083 18.234115,8.9321615 C18.3424367,8.695655 18.38973,8.42820533 18.3888667,8.15139967 L18.3888667,8.15081383 L18.3888667,8.15019533 C18.3864983,7.778219 18.2905483,7.4299505 18.0726233,7.16181633 C17.8547033,6.893687 17.5083517,6.73119083 17.1296867,6.73118483 C14.8572358,6.72711217 12.8938147,6.7488015 10.7179687,6.74290367 C10.6386628,6.74267083 10.5974043,6.74187117 10.5273437,6.74150383 C10.6300427,6.63822767 10.7299515,6.53735 10.839681,6.42822267 C11.1773602,6.09239667 11.501906,5.77593683 11.6695638,5.55898433 C12.0703865,5.04310383 12.1302127,4.34416483 11.7927735,3.8300455 C11.6148665,3.55825633 11.3539655,3.374376 11.0738607,3.33610033 C11.0388365,3.33131433 11.0041382,3.32861217 10.9697917,3.3277995 C10.954765,3.32753194 10.9397865,3.32753194 10.9249023,3.3277995 Z M10.9529948,4.05552103 C10.9609797,4.05552103 10.9684312,4.05618667 10.9753255,4.05712883 C11.0304797,4.0646655 11.0895388,4.084354 11.1839843,4.228711 L11.1841472,4.22900383 L11.1843098,4.22926433 C11.3162545,4.43018333 11.3104253,4.83538533 11.0946615,5.1128255 L11.0943033,5.11331383 L11.0939453,5.1137695 C11.015491,5.215337 10.6629947,5.57762117 10.32653,5.91223967 C9.990065,6.246858 9.67017917,6.55569767 9.511914,6.74850267 C9.35866467,6.935198 9.41612933,7.08711683 9.45631517,7.183724 C9.49650083,7.280331 9.54061367,7.39581267 9.75445967,7.44661467 C9.817007,7.46147317 9.82045217,7.45720983 9.84049483,7.45859367 C9.86053733,7.45997783 9.88126483,7.46092667 9.9056315,7.46181633 C12.3347147,7.48934767 14.8917568,7.45762383 17.1290367,7.45891933 L17.1293617,7.45891933 L17.1296867,7.45891933 C17.3227033,7.45891933 17.4220317,7.51517667 17.5078783,7.62080083 C17.5936617,7.72635033 17.659465,7.90662767 17.6611333,8.1543295 C17.6618183,8.41146533 17.59618,8.62076267 17.5062833,8.74423833 C17.4163117,8.86781433 17.32297,8.92635567 17.1352867,8.926888 C15.4299553,8.92597583 13.7246303,8.92224917 12.0193033,8.91826167 L12.0193033,9.649349 C14.2497517,9.6529045 16.4801967,9.658609 18.710645,9.660677 C18.8801017,9.660918 18.9758167,9.7216835 19.0721033,9.86015633 C19.1683883,9.998629 19.2362133,10.2245078 19.2354236,10.4755208 L19.2354236,10.4755533 C19.234575,10.7441247 19.1772017,10.9773463 19.0922533,11.109668 C19.0073033,11.2419895 18.929625,11.3033213 18.706705,11.3048503 C16.38779,11.3038793 14.1529167,11.298887 12.0192708,11.3016277 L12.0192708,12.0322917 C13.923595,12.032354 15.8279065,12.0350353 17.7322267,12.0330403 C17.9257733,12.0380895 18.04774,12.1230213 18.1475267,12.2921875 C18.2501383,12.466146 18.2992717,12.7348447 18.2408533,13.0210287 L18.2408533,13.0211913 L18.2408533,13.0213217 C18.2016633,13.2141083 18.138895,13.33446 18.0716467,13.4000983 C18.0043983,13.4657367 17.9234567,13.5088867 17.7276033,13.5088867 L12.0182617,13.5088867 C12.0189687,13.753555 12.019734,13.9982367 12.0204753,14.2429033 C13.4648378,14.2434283 14.9092605,14.2329683 16.3535483,14.2418617 L16.3536467,14.2418617 L16.3537433,14.2418617 C16.5163067,14.2429217 16.5859917,14.2833617 16.6506183,14.3648433 C16.715245,14.4463267 16.77375,14.6033817 16.77054,14.8530917 L16.77054,14.8532233 L16.77054,14.8533533 C16.7675883,15.0966667 16.7097467,15.238045 16.6506517,15.3083 C16.59159,15.378515 16.5238267,15.4174317 16.354655,15.4185867 C13.3176188,15.4340567 10.2794425,15.42999 7.24208983,15.4185867 L7.24195967,15.4185867 L7.2418295,15.4185867 C6.50669317,15.4163433 5.92590983,15.221645 5.47213533,14.8496417 C5.018361,14.47764 4.67929083,13.9145617 4.48642583,13.1221353 L4.48632817,13.1218425 L4.486263,13.121517 C4.35246283,12.5757973 4.340113,12.144168 4.3375,11.5640625 L4.3375,11.5636393 C4.33484217,10.7676028 4.31957883,9.89976867 4.536556,9.20989583 C4.75894833,8.50502633 5.11860617,7.970139 5.6334635,7.61663417 L5.63349617,7.6166015 C6.38331133,7.10194417 9.77354383,4.75082683 10.7120117,4.14306633 L10.7120443,4.14303383 C10.8001625,4.08622183 10.873179,4.06204967 10.9274413,4.05670567 C10.9364867,4.055815 10.9450098,4.05552103 10.9529948,4.05552103 Z" transform="translate(0 3)"/>
</svg>
