<svg xmlns="http://www.w3.org/2000/svg" width="32" height="32" viewBox="0 0 32 32">
  <path d="M22.0872067,0 L22.0872067,0.894012542 L22.0872067,15.823025 L22.0872067,30.7525922 L22.0872067,31.6466029 L22.9812174,31.6466029 L31.1065405,31.6466029 L32,31.6466029 L32,29.8591326 L31.1065405,29.8591326 L23.8746769,29.8591326 L23.8746769,15.823025 L23.8746769,1.78802508 L31.1065405,1.78802508 L32,1.78802508 L32,0 L31.1065405,0 L22.9812174,0 L22.0872067,0 L22.0872067,0 Z M19.163109,13.9989956 L16.4256802,16.1664498 L18.5931353,18.9038786 L21.3305623,16.7369783 L19.163109,13.9989956 Z M13.6876976,18.3339049 L10.9502689,20.5013582 L13.1177231,23.238787 L15.8551518,21.0713319 L13.6876976,18.3339049 Z M8.21284012,22.6688116 L5.47541139,24.8362666 L7.64286559,27.5736954 L10.3802943,25.4062421 L8.21284012,22.6688116 L8.21284012,22.6688116 Z M2.73742874,27.0037217 L-2.05329146e-16,29.171175 L2.1674542,31.9086038 L4.90488294,29.7411487 L2.73742874,27.0037217 Z"/>
</svg>
