<svg xmlns="http://www.w3.org/2000/svg" width="32" height="32" viewBox="0 0 32 32">
  <path d="M15.9990822,0 C15.6646851,0 15.3303034,0.123717979 15.0822395,0.372943099 L0.370948941,15.0843688 C-0.125179101,15.5804749 -0.122880975,16.4219818 0.373247257,16.9180882 L15.0822395,31.6269781 C15.5783675,32.1232524 16.419831,32.1254277 16.9159582,31.6269781 L31.627283,16.9157554 C32.1234101,16.419649 32.1211137,15.5781089 31.6249502,15.0820028 L16.9159253,0.372943099 C16.6678608,0.124890066 16.3334793,0 15.9990822,0 Z M15.997966,2.18124481 L29.8190148,16.0023942 L15.997966,29.8233755 L2.17691859,16.0023942 L15.997966,2.18124481 Z M15.6206639,7.88888193 C15.6206639,7.88904945 15.453542,7.92068716 15.4534583,7.92068716 C15.4532857,7.92068716 15.3166035,8.0127906 15.316503,8.0127906 C15.3163306,8.01295794 15.2213739,8.15342985 15.2212901,8.15342985 C15.2212901,8.15359737 15.1891125,8.32087206 15.1890455,8.32087206 L15.1890455,15.1885048 L8.31840478,15.1885048 L8.31725553,15.1871527 C8.31725553,15.1873202 8.15080959,15.2239941 8.150726,15.2239941 C8.15055347,15.2241615 8.01388838,15.3160974 8.01380462,15.3160974 L8.01393978,15.3144075 C8.01376724,15.3145749 7.9188105,15.4550468 7.91872692,15.4550468 C7.91855438,15.4550468 7.88644839,15.6224893 7.88644839,15.6224893 L7.88644839,16.3747625 C7.88644839,16.3747625 7.91843325,16.5440412 7.91957176,16.5452128 C7.91957176,16.5453806 8.01437916,16.682506 8.01437916,16.682506 C8.01455325,16.6826739 8.15207824,16.77461 8.15211164,16.77461 C8.15228417,16.7747761 8.31921657,16.8114166 8.31928354,16.8114166 L15.1891132,16.8114166 L15.1891132,23.6779008 L15.1880316,23.6768867 C15.1880316,23.6770528 15.2211883,23.8473369 15.221155,23.8473369 C15.221155,23.8475048 15.3159284,23.9846302 15.3159284,23.9846302 C15.3161025,23.9847963 15.4536613,24.0766995 15.4536948,24.0766995 C15.4536948,24.0766995 15.6196619,24.1118656 15.620901,24.1135408 L16.3730046,24.1133712 C16.373195,24.1133712 16.5433977,24.0782207 16.5434894,24.0782207 C16.5434894,24.0782207 16.6803431,23.9861513 16.6804435,23.9861513 C16.6806166,23.9859835 16.7751173,23.8488234 16.7752177,23.8488234 C16.7752177,23.8488234 16.8078676,23.6788803 16.8079351,23.6788803 L16.8079351,16.8120933 L23.6760407,16.8120933 C23.6762328,16.8122594 23.8464408,16.776941 23.8465256,16.776941 C23.8466986,16.776941 23.9833966,16.6848388 23.9834797,16.6848388 C23.9836527,16.6846709 24.0781535,16.5475455 24.0782538,16.5475455 C24.0782538,16.5475455 24.1109712,16.3776006 24.1109712,16.3776006 L24.1109712,15.625497 C24.1109712,15.6253291 24.0784736,15.4597292 24.0785238,15.458055 C24.0783525,15.4578874 23.9842134,15.3174157 23.9830418,15.3174157 C23.9828688,15.3172482 23.8453246,15.225346 23.8452744,15.225346 C23.8452744,15.2255135 23.6753468,15.1884866 23.6752637,15.1901609 L16.8078676,15.1901609 L16.8078676,8.32269725 C16.8078676,8.32252991 16.77537,8.15696325 16.7754202,8.15528879 C16.7752471,8.15512144 16.6811202,8.01461579 16.6811202,8.01461579 C16.6809471,8.01444827 16.5434202,7.92254627 16.5433873,7.92254627 C16.5432143,7.92254627 16.3729752,7.88905101 16.3729025,7.88905101 L15.6206639,7.88888193 Z" transform="translate(.002)"/>
</svg>
