<svg xmlns="http://www.w3.org/2000/svg" width="32" height="32" viewBox="0 0 32 32">
  <path d="M15.6761678,0.000432469172 C7.94295029,0.00694366922 0.833733852,6.45086545 0.104143226,14.1590413 C-0.678757795,20.7242843 3.01600922,27.5863335 9.04641452,30.3749951 C14.6466893,33.1121457 21.8348031,32.2459363 26.4795818,28.0313449 C31.20543,23.9419274 33.2703198,16.9714965 31.194464,11.0247392 C29.2203883,4.95775982 23.3943587,0.313084431 16.9778359,0.0319113726 C16.5445317,0.00358286648 16.1102582,-0.00173718791 15.6761678,0.000432469172 Z M15.9929335,5.00628542 C21.6880825,4.8406802 26.9093286,9.86360887 26.9761545,15.5610758 C27.2224436,20.773235 23.3066857,25.8914311 18.1124997,26.7652702 C13.0862375,27.7721167 7.5116575,24.8672569 5.75233922,19.9876217 C3.85834437,15.1621901 5.79065002,9.05998293 10.4007533,6.5273089 C12.0863312,5.53759405 14.0377829,5.00384946 15.9929335,5.00628542 Z M16.004138,8.04466265 C13.4643603,9.88821393 10.924724,11.7319596 8.38502805,13.5756235 C9.35508317,16.5586298 10.3251865,19.5416219 11.2952413,22.5246279 C14.4344828,22.5246279 17.5737249,22.5246279 20.7129662,22.5246279 C21.683022,19.5416219 22.6531227,16.5586298 23.6231785,13.5756235 C21.0835012,11.7319649 18.5438153,9.88832122 16.004138,8.04466265 Z"/>
</svg>
