<svg xmlns="http://www.w3.org/2000/svg" width="32" height="32" viewBox="0 0 32 32">
  <path fill-rule="evenodd" d="M10.2627541,4.46821526 C8.56533304,4.46821526 7.35103844,5.77309525 7.34763254,7.25944235 L7.34763254,7.25987227 L7.34763254,7.26028399 C7.34773978,7.70977831 7.46936895,8.18416901 7.65939789,8.61205296 C7.79660923,8.92100854 7.96720381,9.2050437 8.17507967,9.43258076 C6.93963507,9.85525001 5.492251,10.550889 4.76067711,11.9225898 L4.72125525,11.9965151 L4.72125525,16.4368954 L15.804253,16.4368954 L15.804253,11.9965151 L15.7648311,11.9225898 C15.0437794,10.5706182 13.627715,9.87594759 12.4042124,9.45152479 C13.0014917,8.8441609 13.1776841,8.06023007 13.1778756,7.2602839 L13.1778756,7.25987217 L13.1778756,7.25944226 C13.1744697,5.77309534 11.9601753,4.46821526 10.2627541,4.46821526 Z M9.10379314,6.05093028 C9.18225435,6.05113956 9.26839763,6.05376041 9.36336394,6.05935773 C10.1200055,6.10395505 10.3746594,6.24015394 10.5704057,6.36932788 C10.7661511,6.49850182 10.9041433,6.62146651 11.4214536,6.63654733 L11.4216068,6.63654733 L11.4217791,6.63654733 C11.8249005,6.62146871 12.0187682,6.54959631 12.1577964,6.46818171 C12.2141325,6.43519172 12.2614366,6.40089647 12.3099107,6.36814968 C12.4380369,6.64278081 12.5068395,6.94637031 12.5076189,7.26056444 C12.5073508,8.15524712 12.3535399,8.78179824 11.5331999,9.29451074 L11.6134465,9.89935919 C11.7841936,9.95121105 11.9606895,10.008105 12.1398252,10.0704926 C12.1648426,10.1748606 12.1937475,10.3117461 12.2131894,10.457268 C12.2335563,10.6097242 12.2415667,10.7683466 12.2290101,10.8874483 C12.2164535,11.0065501 12.1794751,11.0708458 12.1729823,11.0773396 C11.7560232,11.4942977 11.0158848,11.7374678 10.2651555,11.7374678 C9.51442659,11.7374678 8.7742882,11.4942977 8.35732926,11.0773396 C8.35083639,11.0708458 8.31385738,11.0065501 8.3013008,10.8874483 C8.28874431,10.7683466 8.29675452,10.6097242 8.31712196,10.457268 C8.33667036,10.3109427 8.36580528,10.1732502 8.39091634,10.0686786 C8.56826288,10.0070052 8.74298493,9.95070847 8.91207758,9.89935919 L8.95991486,9.25125516 C8.92096399,9.20130191 8.88127613,9.16820937 8.83390707,9.13267168 C8.65082188,8.99531604 8.42879176,8.69314546 8.27195886,8.3400085 C8.11518189,7.98699745 8.01805136,7.58349734 8.01790496,7.26048966 C8.01887911,6.87323765 8.12309309,6.50204876 8.31450379,6.1814196 C8.34875231,6.16867162 8.38486727,6.15519833 8.42545719,6.14184818 C8.56819863,6.09489993 8.76380268,6.05008747 9.1038008,6.05093028 L9.10379314,6.05093028 Z M7.65464785,10.355422 C7.65404559,10.3598153 7.65336682,10.364103 7.65277777,10.3685128 C7.62800845,10.5539176 7.61345386,10.7557287 7.63474988,10.9577275 C7.65604589,11.1597262 7.7093452,11.3772077 7.88339921,11.551261 C8.47750275,12.1453652 9.37662055,12.4077139 10.2651479,12.4077139 C11.1536749,12.4077139 12.0527928,12.1453652 12.6468961,11.551261 C12.8209504,11.3772077 12.8742502,11.1597262 12.8955459,10.9577275 C12.9168415,10.7557277 12.9022876,10.5539176 12.8775182,10.3685128 C12.8770299,10.3648589 12.876463,10.3613088 12.8759661,10.3576661 C13.779206,10.7537716 14.6522599,11.3210535 15.1340069,12.1680416 L15.1340069,15.7666493 L13.5302038,15.7666493 L13.5302038,13.2292891 L12.8599577,13.2292891 L12.8599577,15.7666493 L7.65118814,15.7666493 L7.65118814,13.2292891 L6.98094205,13.2292891 L6.98094205,15.7666493 L5.39150133,15.7666493 L5.39150133,12.1680416 C5.87415617,11.3194564 6.74959206,10.7516277 7.65464785,10.355422 Z M6.49417325,0 C2.91556566,0 0,2.90326648 0,6.47500003 L0,19.8583331 C0,23.4300669 2.91556566,26.3333335 6.49417325,26.3333335 L25.5058267,26.3333335 C29.0844353,26.3333335 32,23.4300669 32,19.8583331 L32,6.47500003 C32,2.90326648 29.0844353,0 25.5058267,0 L6.49417325,0 Z M6.49417325,2.00000006 L25.5058267,2.00000006 C28.0147771,2.00000006 30,3.98043352 30,6.47500003 L30,19.8583331 C30,22.3529 28.0147771,24.3333336 25.5058267,24.3333336 L6.49417325,24.3333336 C3.98522269,24.3333336 2.00000003,22.3529 2.00000003,19.8583331 L2.00000003,6.47500003 C2.00000003,3.98043352 3.98522269,2.00000006 6.49417325,2.00000006 Z" transform="translate(0 3)"/>
</svg>
