<svg xmlns="http://www.w3.org/2000/svg" width="32" height="32" viewBox="0 0 32 32">
  <path d="M15.994575,0.00132330317 C9.7041477,-0.0839938452 3.64311263,3.96434679 1.25709097,9.77515633 C-1.23514711,15.4844603 0.0597912261,22.5768268 4.41931135,27.0295457 C8.61222075,31.5428625 15.5205166,33.1994152 21.3062202,31.087695 C27.3023684,29.0458573 31.7290666,23.1572712 31.9696995,16.8194423 C32.3733063,10.5917249 28.7093668,4.37853462 23.0992299,1.66576271 C20.9024301,0.569493505 18.4492954,-0.00218686928 15.994575,0.00132330317 Z M15.994575,1.73061711 C22.2076285,1.62256029 28.1166462,6.08560804 29.7207858,12.0878826 C31.3987213,17.7410763 29.1291217,24.2863946 24.2578291,27.6346515 C19.1976992,31.3539198 11.6938239,31.08484 6.91539253,27.0094115 C2.1007956,23.1707269 0.377390733,16.0703191 2.84760514,10.4396321 C4.98859988,5.2342447 10.3629189,1.66453768 15.994575,1.73061711 Z M8.73802584,10.4627064 C8.73802584,14.1524294 8.73802584,17.8421518 8.73802584,21.5318751 C13.5757253,21.5318751 18.4134247,21.5318751 23.2511241,21.5318751 C23.2511241,17.8421518 23.2511241,14.1524294 23.2511241,10.4627064 C18.4134247,10.4627064 13.5757253,10.4627064 8.73802584,10.4627064 Z M11.9620104,12.1920679 C14.6499925,12.1920679 17.3379751,12.1920679 20.0259566,12.1920679 C18.5976273,13.0709721 17.1691719,15.0004106 15.7410207,15.2109251 C14.4813971,14.2045813 13.2216996,13.1983296 11.9620104,12.1920679 L11.9620104,12.1920679 Z M21.5239245,13.2101557 C21.5239245,15.4076084 21.5239245,17.6050604 21.5239245,19.8025139 C17.8376909,19.8025139 14.1514585,19.8025139 10.4652256,19.8025139 C10.4652256,17.6052299 10.4652256,15.4079461 10.4652256,13.2106624 C12.3078015,14.6831967 14.1502944,16.1558344 15.9929529,17.6282658 C17.8366931,16.1556649 19.6802673,14.6828584 21.5239245,13.2101557 L21.5239245,13.2101557 Z"/>
</svg>
