<svg xmlns="http://www.w3.org/2000/svg" width="32" height="32" viewBox="0 0 32 32">
  <path d="M15.9990822,0 C15.6646851,0 15.3303034,0.123717979 15.0822395,0.372943099 L0.370948941,15.0843688 C-0.125179101,15.5804749 -0.122880975,16.4219818 0.373247257,16.9180882 L15.0822395,31.6269781 C15.5783675,32.1232524 16.419831,32.1254277 16.9159582,31.6269781 L31.627283,16.9157554 C32.1234101,16.419649 32.1211137,15.5781089 31.6249502,15.0820028 L16.9159253,0.372943099 C16.6678608,0.124890066 16.3334793,0 15.9990822,0 Z M15.997966,2.18124481 L29.8190148,16.0023942 L15.997966,29.8233755 L2.17691859,16.0023942 L15.997966,2.18124481 Z M15.9987101,8.55996908 C11.893344,8.55996908 8.55743414,11.8960729 8.55743414,16.0013801 C8.55743414,20.1066871 11.893344,23.4426561 15.9987101,23.4426561 C20.104076,23.4426561 23.4399862,20.1066871 23.4399862,16.0013801 C23.4399862,11.8960729 20.104076,8.55996908 15.9987101,8.55996908 Z M15.9987101,9.38524899 C19.6571754,9.38524899 22.6149096,12.3429536 22.6149096,16.0013801 C22.6149096,19.6598073 19.6571754,22.6177145 15.9987101,22.6177145 C12.3402464,22.6177145 9.38251123,19.6598073 9.38251123,16.0013801 C9.38251123,12.3429536 12.3402464,9.38524899 15.9987101,9.38524899 Z" transform="translate(.002)"/>
</svg>
