<svg xmlns="http://www.w3.org/2000/svg" width="32" height="32" viewBox="0 0 32 32">
  <path d="M15.6761859,0.000432365742 C7.94297348,0.00694746402 0.833735786,6.45084717 0.104143122,14.1590269 C-0.678757135,20.7242629 3.01600638,27.5863052 9.04640534,30.3749641 C14.6466754,33.1121136 21.8347822,32.2459016 26.4795563,28.0313162 C31.205405,23.9419062 33.270329,16.971484 31.1944649,11.0247262 C29.2203773,4.9577629 23.3943587,0.313022163 16.9778199,0.0319034629 C16.5445282,0.00358118766 16.1102637,-0.00173664991 15.6761859,0.000432365742 Z M15.9929513,5.00628033 C21.6880929,4.84062189 26.9092975,9.86363263 26.9761285,15.56106 C27.2224174,20.7732135 23.3066634,25.8914062 18.1124808,26.7652445 C13.0862248,27.77209 7.51165001,24.8672331 5.75233349,19.9876027 C3.85834087,15.1621756 5.79064373,9.05997034 10.400746,6.5273023 C12.0863331,5.53758826 14.0377933,5.00384576 15.9929513,5.00628033 Z M10.0830388,10.4535142 C12.0966761,12.0870465 14.1103136,13.7205789 16.1239509,15.3541112 C18.1375884,13.7205789 20.1512242,12.0870465 22.1648617,10.4535142 C18.1375867,10.4535142 14.1103131,10.4535142 10.0830388,10.4535142 Z M8.74265019,11.5908925 C8.74265019,14.8976301 8.74265019,18.2043674 8.74265019,21.5111055 C13.5803692,21.5111055 18.4180884,21.5111055 23.2558071,21.5111055 C23.2558071,18.2717911 23.2558071,15.0324755 23.2558071,11.7931606 C20.8785217,13.7217375 18.5012363,15.6503143 16.1239509,17.5788913 C13.6635173,15.5828924 11.2030838,13.5868921 8.74265019,11.5908925 Z"/>
</svg>
