<svg xmlns="http://www.w3.org/2000/svg" width="32" height="32" viewBox="0 0 32 32">
  <path d="M16.0078109,0 C12.2964473,0 8.59117925,0.305974556 5.68922055,0.938863674 C4.23824131,1.25530823 2.98862738,1.64864241 2.00895727,2.16489846 C1.06533717,2.66215753 0.297462857,3.30350779 0.0606771022,4.23035283 C0.0443721653,4.27876248 0.032608698,4.3285846 0.0255386238,4.3791748 L0,4.50310112 L0.017316661,4.58706598 C0.00519690322,11.996058 0.017316661,19.0463354 0.017316661,26.6669929 L0.034265743,26.7492122 C0.237292558,27.7344019 1.02928692,28.4050202 2.00895727,28.9212765 C2.98862738,29.4375328 4.23824131,29.8308206 5.68922055,30.1472654 C8.59117925,30.7801546 12.2964473,31.086175 16.0078109,31.086175 C19.7191754,31.086175 23.4244441,30.7801546 26.3264012,30.1472654 C27.7773809,29.8308206 29.0269965,29.4375328 30.0066661,28.9212765 C30.9863358,28.4050202 31.7783755,27.7344019 31.9814023,26.7492122 L31.9983067,26.6669929 C31.9983067,19.3798953 31.9985419,11.4433168 31.9983067,4.54058218 C32.0005644,4.5053882 32.0005644,4.4700851 31.9983067,4.43489112 L31.9983067,4.41918211 L31.9955034,4.40567788 C31.9883612,4.33832415 31.9729337,4.27210938 31.9495714,4.20853491 C31.7063931,3.29337267 30.942906,2.65826891 30.0066661,2.16489846 C29.0269965,1.64864241 27.7773809,1.25530823 26.3264012,0.938863674 C23.4244441,0.305974556 19.7191754,0 16.0078109,0 L16.0078109,0 Z M16.0078109,1.64622692 C19.6273559,1.64622692 23.2529967,1.9535114 25.9756138,2.54728805 C27.3369235,2.84417638 28.4730153,3.21754276 29.2391763,3.62128579 C29.8506344,3.94350508 30.1707173,4.26362825 30.3016912,4.50310112 C30.1707103,4.74257187 29.8506156,5.06270727 29.2391763,5.38491668 C28.4730153,5.78865971 27.3369235,6.16198 25.9756138,6.45886832 C23.2529967,7.05264497 19.6273559,7.35997555 16.0078109,7.35997555 C12.3882673,7.35997555 8.76262579,7.05264497 6.04000846,6.45886832 C4.67869967,6.16198 3.54260649,5.78865971 2.77644613,5.38491668 C2.16500806,5.06270727 1.84491311,4.74257187 1.71393177,4.50310112 C1.84490535,4.26362825 2.16498877,3.94350508 2.77644613,3.62128579 C3.54260649,3.21754276 4.67869967,2.84417638 6.04000846,2.54728805 C8.76262579,1.9535114 12.3882673,1.64622692 16.0078109,1.64622692 L16.0078109,1.64622692 Z M1.66354358,6.6470544 C1.77560343,6.71413674 1.89072596,6.77899949 2.00895727,6.84130377 C2.98862738,7.35756006 4.23824131,7.75084814 5.68922055,8.0672927 C8.59117925,8.70018182 12.2964473,9.00620247 16.0078109,9.00620247 C19.7191754,9.00620247 23.4244441,8.70018182 26.3264012,8.0672927 C27.7773809,7.75084814 29.0269965,7.35756006 30.0066661,6.84130377 C30.1248958,6.77899949 30.2400188,6.71413674 30.3520798,6.6470544 L30.3520798,8.5769615 C30.2716381,8.82175568 29.9536529,9.19563168 29.2391763,9.57213883 C28.4730153,9.97588186 27.3369235,10.3492024 25.9756138,10.6460907 C23.2529967,11.2398671 19.6273559,11.5471977 16.0078109,11.5471977 C12.3882673,11.5471977 8.76262579,11.2398671 6.04000846,10.6460907 C4.67869967,10.3492024 3.54260649,9.97588186 2.77644613,9.57213883 C2.06197024,9.19563168 1.74398387,8.82175568 1.66354358,8.5769615 L1.66354358,6.6470544 Z M1.66354358,10.8342768 C1.77560343,10.9013589 1.89072596,10.9662216 2.00895727,11.0285259 C2.98862738,11.5447822 4.23824131,11.9380703 5.68922055,12.2545149 C8.59117925,12.8874042 12.2964473,13.1934247 16.0078109,13.1934247 C19.7191754,13.1934247 23.4244441,12.8874042 26.3264012,12.2545149 C27.7773809,11.9380703 29.0269965,11.5447822 30.0066661,11.0285259 C30.1248958,10.9662216 30.2400188,10.9013589 30.3520798,10.8342768 L30.3520798,12.7641839 C30.2716381,13.0089779 29.9536529,13.382854 29.2391763,13.7593611 C28.4730153,14.1631042 27.3369235,14.5364246 25.9756138,14.8333129 C23.2529967,15.4270894 19.6273559,15.73442 16.0078109,15.73442 C12.3882673,15.73442 8.76262579,15.4270894 6.04000846,14.8333129 C4.67869967,14.5364246 3.54260649,14.1631042 2.77644613,13.7593611 C2.06197024,13.382854 1.74398387,13.0089779 1.66354358,12.7641839 L1.66354358,10.8342768 Z M1.66354358,15.021545 C1.77560319,15.088627 1.89072619,15.1534441 2.00895727,15.2157483 C2.98862738,15.7320046 4.23824131,16.1252926 5.68922055,16.4417372 C8.59117925,17.0746264 12.2964473,17.380647 16.0078109,17.380647 C19.7191754,17.380647 23.4244441,17.0746264 26.3264012,16.4417372 C27.7773809,16.1252926 29.0269965,15.7320046 30.0066661,15.2157483 C30.1248958,15.1534441 30.2400188,15.088627 30.3520798,15.021545 L30.3520798,26.4697121 C30.2716381,26.714506 29.9536529,27.088382 29.2391763,27.4648892 C28.4730153,27.8686322 27.3369235,28.2419986 25.9756138,28.5388869 C23.2529967,29.1326636 19.6273559,29.439948 16.0078109,29.439948 C12.3882673,29.439948 8.76262579,29.1326636 6.04000846,28.5388869 C4.67869967,28.2419986 3.54260649,27.8686322 2.77644613,27.4648892 C2.06197024,27.088382 1.74398387,26.714506 1.66354358,26.4697121 L1.66354358,15.021545 Z" transform="translate(0 1)"/>
</svg>
