<svg xmlns="http://www.w3.org/2000/svg" width="32" height="32" viewBox="0 0 32 32">
  <path d="M16.0124354,8.50460253 C13.7447654,12.5749289 11.4770943,16.6452548 9.20942388,20.715581 C13.7447545,20.715581 18.2800857,20.715581 22.8154158,20.715581 C20.5477551,16.6452549 18.2800961,12.5749287 16.0124354,8.50460253 Z M16.0124354,10.2808731 C17.7896845,13.4709436 19.5669354,16.6610142 21.3441846,19.8510847 C17.7896863,19.8510847 14.2351868,19.8510847 10.680688,19.8510847 C12.4579371,16.6610142 14.2351862,13.4709436 16.0124354,10.2808731 Z M16.0124198,0 C14.5636987,0.0207684905 13.0826288,0.156985298 11.7097152,0.627831403 C10.8578501,1.07485233 11.4545148,2.49127171 12.3706271,2.20174994 C14.6249715,1.59380403 17.0181941,1.59499271 19.2923056,2.09416059 C20.2260085,2.16942797 20.5198958,0.718081204 19.6304725,0.424196491 C18.4512612,0.128147598 17.2270737,0.00557911446 16.0124198,0 Z M25.024187,2.93408756 C24.111481,2.82953881 23.7518245,4.1920577 24.5703436,4.58169577 C26.4035188,5.94125619 27.862571,7.76666539 28.8805173,9.80241074 C29.4055865,10.5781649 30.7219968,9.9000921 30.3952431,9.02220267 C29.2589092,6.63656413 27.4995724,4.53264061 25.3344617,3.01587705 C25.2349927,2.97173154 25.1320917,2.94622993 25.024187,2.93408756 L25.024187,2.93408756 Z M6.6503957,3.27796126 C5.88841121,3.36661745 5.41032184,4.08702259 4.84488132,4.54468495 C3.38067707,5.98370331 2.16287748,7.69629953 1.37105767,9.5935809 C1.10499193,10.4917357 2.46470968,11.0783941 2.93549233,10.2685635 C3.90059026,8.0987752 5.40305073,6.18412126 7.26189192,4.70907449 C7.73759321,4.19422897 7.35167403,3.29037871 6.6503957,3.27796126 L6.6503957,3.27796126 Z M16.0124198,3.28508661 C15.3139133,3.35125396 14.3231087,3.12417114 13.9785906,3.91993237 C13.6971613,4.65275617 14.5142774,5.27775047 15.195572,5.04452073 C17.0021888,4.89829496 18.8268884,5.24771786 20.4894707,5.95176985 C21.390793,6.20686339 21.9607901,4.84013042 21.1453054,4.37923053 C19.5450498,3.6437209 17.7709959,3.29025302 16.0124198,3.28508661 Z M10.5332681,4.64977539 C9.69786681,4.80075797 9.01625646,5.40964739 8.32268996,5.87567185 C7.11977717,6.81528477 6.00490644,7.93717954 5.2663569,9.27836232 C4.93549957,10.1817089 6.32885194,10.8302763 6.81313042,10.0005013 C7.85797279,8.34494801 9.40851655,7.0758983 11.0975921,6.12827859 C11.6426196,5.6294164 11.2692555,4.66508891 10.5332681,4.64977539 L10.5332681,4.64977539 Z M24.4360597,6.76515764 C23.5613362,6.69543375 23.2155618,7.93794341 23.9346534,8.39223095 C25.2601358,9.7325909 26.123377,11.4535264 26.6828774,13.2321458 C27.1505682,14.0728429 28.5519188,13.4417262 28.2401831,12.5329701 C27.6362769,10.4154534 26.4889674,8.43581869 24.8888449,6.91769406 C24.753316,6.82784228 24.5980611,6.77610026 24.4360597,6.76515764 Z M4.46717071,12.8209893 C3.64522734,12.7509916 3.47127163,13.6473541 3.42078936,14.276484 C3.16465219,16.2056304 3.3270833,18.2085233 3.98264654,20.0447022 C4.38894363,20.8887277 5.79019473,20.4098697 5.59493247,19.4937205 C4.98094788,17.627158 4.87943231,15.6112102 5.26088567,13.6864988 C5.26710814,13.2465272 4.90597753,12.8528077 4.46717071,12.8209893 L4.46717071,12.8209893 Z M31.1538059,14.4212532 C30.4082347,14.3841039 30.1399435,15.2062756 30.2754965,15.8157946 C30.3179727,18.2086263 29.7049392,20.5871002 28.6153935,22.7101195 C28.3058744,23.5942433 29.6353472,24.2464708 30.1450768,23.4605767 C31.5100856,20.9142155 32.1610325,17.9719282 31.9661058,15.0880975 C31.8795853,14.7151593 31.5366136,14.4334233 31.1538059,14.4212532 L31.1538059,14.4212532 Z M0.956842305,14.9924288 C0.174967659,14.9192009 -0.0866143305,15.7672919 0.0243032647,16.3956487 C0.0918399252,18.8103983 0.685349262,21.2286841 1.832899,23.358459 C2.36735458,24.1277471 3.67541677,23.433665 3.33796714,22.5598458 C2.2559739,20.4450417 1.71506813,18.071703 1.73506947,15.6987159 C1.66713111,15.3219719 1.33855727,15.0235722 0.956842305,14.9924288 Z M27.7440416,17.0155186 C26.9670304,16.9683171 26.7917797,17.8132668 26.7227514,18.4081014 C26.3694058,20.0999873 25.5206137,21.6394971 24.5070366,23.0161009 C24.099838,23.8877044 25.4323556,24.6535421 25.9861053,23.8684099 C27.3480746,22.1349757 28.2826782,20.0411782 28.5691257,17.8512101 C28.55912,17.411306 28.1837435,17.0311257 27.7440416,17.0155186 Z M6.85699687,22.7006636 C6.0493215,22.7190649 5.77461097,23.8228656 6.38746722,24.2911694 C7.77950556,25.8979618 9.57444489,27.1772937 11.5813014,27.8896688 C12.4913672,28.1115783 13.0110005,26.7249718 12.1792222,26.2941662 C10.3435195,25.5940553 8.70971327,24.4083497 7.45593092,22.8979451 C7.28717862,22.7620738 7.07337653,22.6918348 6.85699687,22.7006636 L6.85699687,22.7006636 Z M21.9141955,25.4005604 C21.1036125,25.5949698 20.410314,26.1608512 19.5888694,26.3734579 C18.3861145,26.8308128 17.0897087,26.9093234 15.8307736,27.0369243 C14.9620723,27.3444389 15.2580339,28.765064 16.1770787,28.7002017 C18.3783721,28.6664592 20.5890503,28.0744439 22.4695999,26.9220639 C23.0738829,26.4272693 22.6967377,25.390076 21.9141955,25.4005604 Z M6.34640364,26.8065153 C5.51340198,26.8152041 5.23670501,28.0248885 5.95071893,28.4244768 C7.93656451,30.0256932 10.3091955,31.1729061 12.8185106,31.6503634 C13.7522056,31.725656 14.0460999,30.2742399 13.1566436,29.9804345 C10.8324188,29.4900183 8.64414692,28.4231878 6.8120498,26.9135659 C6.66829959,26.8375261 6.50881089,26.8013534 6.34640364,26.8065153 Z M25.5536911,26.893743 C24.7882382,26.9841096 24.3126666,27.7351633 23.6322802,28.0516271 C22.1158981,29.0434324 20.380641,29.6319716 18.6364485,30.0569316 C17.7637358,30.4617385 18.2903438,31.9056274 19.2195323,31.6613062 C21.7634083,31.1351707 24.1996631,30.0008446 26.1827817,28.31719 C26.6521117,27.7965551 26.2550432,26.8974795 25.5536911,26.893743 L25.5536911,26.893743 Z" transform="translate(0 .311)"/>
</svg>
