<svg xmlns="http://www.w3.org/2000/svg" width="32" height="32" viewBox="0 0 32 32">
  <path d="M5.42222222,0 C2.42907378,0 0,2.42907378 0,5.42222222 L0,21.2444444 C0,24.2375929 2.42907378,26.6666667 5.42222222,26.6666667 L26.5777778,26.6666667 C29.5709262,26.6666667 32,24.2375929 32,21.2444444 L32,5.42222222 C32,2.42907378 29.5709262,0 26.5777778,0 L5.42222222,0 Z M5.42222222,1.24444444 L26.5777778,1.24444444 C28.9030293,1.24444444 30.7555556,3.09697049 30.7555556,5.42222222 L30.7555556,21.2444444 C30.7555556,23.569696 28.9030293,25.4222222 26.5777778,25.4222222 L5.42222222,25.4222222 C3.09697067,25.4222222 1.24444444,23.569696 1.24444444,21.2444444 L1.24444444,5.42222222 C1.24444444,3.09697049 3.09697067,1.24444444 5.42222222,1.24444444 Z M6.47833333,3.02222222 C4.62381138,3.02222222 3.11111111,4.53408978 3.11111111,6.38822916 L3.11111111,20.2784729 C3.11111111,22.1326116 4.62381138,23.6444444 6.47833333,23.6444444 L25.5216676,23.6444444 C27.3761884,23.6444444 28.8888889,22.1326116 28.8888889,20.2784729 L28.8888889,6.38822916 C28.8888889,4.53408978 27.3761884,3.02222222 25.5216676,3.02222222 L6.47833333,3.02222222 Z M6.47833333,4.26666667 L25.5216676,4.26666667 C26.708592,4.26666667 27.6444444,5.20228658 27.6444444,6.38822916 L27.6444444,20.2784729 C27.6444444,21.4644142 26.7085902,22.4 25.5216676,22.4 L6.47833333,22.4 C5.29140818,22.4 4.35555556,21.4644142 4.35555556,20.2784729 L4.35555556,6.38822916 C4.35555556,5.20228658 5.29140818,4.26666667 6.47833333,4.26666667 Z" transform="translate(0 3)"/>
</svg>
