<svg xmlns="http://www.w3.org/2000/svg" width="32" height="32" viewBox="0 0 32 32">
  <path d="M15.994575,0.00132330317 C9.7041477,-0.0839938452 3.64311263,3.96434679 1.25709097,9.77515633 C-1.23514711,15.4844603 0.0597912261,22.5768268 4.41931135,27.0295457 C8.61222075,31.5428625 15.5205166,33.1994152 21.3062202,31.087695 C27.3023684,29.0458573 31.7290666,23.1572712 31.9696995,16.8194423 C32.3733063,10.5917249 28.7093668,4.37853462 23.0992299,1.66576271 C20.9024301,0.569493505 18.4492954,-0.00218686928 15.994575,0.00132330317 Z M15.994575,1.73061711 C22.2076285,1.62256029 28.1166462,6.08560804 29.7207858,12.0878826 C31.3987213,17.7410763 29.1291217,24.2863946 24.2578291,27.6346515 C19.1976992,31.3539198 11.6938239,31.08484 6.91539253,27.0094115 C2.1007956,23.1707269 0.377390733,16.0703191 2.84760514,10.4396321 C4.98859988,5.2342447 10.3629189,1.66453768 15.994575,1.73061711 Z M15.994575,8.05902176 C13.4525842,9.90429238 10.9106582,11.7496524 8.36869243,13.5949575 C9.33963003,16.5806804 10.3105678,19.566403 11.2815054,22.5521256 C14.4235287,22.5521256 17.5655519,22.5521256 20.707575,22.5521256 C21.678513,19.566403 22.6494509,16.5806804 23.6203889,13.5949575 C21.0784861,11.7496455 18.536547,9.90433371 15.9946096,8.05902176 L15.994575,8.05902176 Z M15.994575,9.12733365 C18.1975673,10.7265814 20.4005597,12.3258291 22.603552,13.9250769 C21.7620967,16.5127019 20.9206431,19.1003255 20.0791877,21.6879508 C17.3561362,21.6879508 14.6330833,21.6879508 11.9100311,21.6879508 C11.068542,19.1003255 10.2270874,16.5127019 9.38563288,13.9250769 C11.5886021,12.3258291 13.7915712,10.7265814 15.9945404,9.12733365 L15.994575,9.12733365 Z"/>
</svg>
