<svg xmlns="http://www.w3.org/2000/svg" width="32" height="32" viewBox="0 0 32 32">
  <path d="M15.9749493,0.00289560922 C8.19459375,-0.155925046 0.934430646,6.23969914 0.125121246,13.9849645 C-0.730146789,20.5353971 2.86607384,27.4445971 8.86565799,30.2993566 C14.5308464,33.1460914 21.8770087,32.2887943 26.5754169,27.9685381 C31.3201154,23.8072697 33.302463,16.7263762 31.1073743,10.762577 C29.089165,4.88437382 23.4445435,0.40747033 17.2012601,0.0493715483 C16.7932599,0.0192792136 16.3841061,0.00256124994 15.9749493,0.00256124994 L15.9749493,0.00289560922 Z M15.7938235,1.72668484 C22.9282059,1.45802717 29.6335103,7.40711454 30.1925606,14.5309732 C30.8791574,20.8137512 26.9261347,27.322556 20.9104613,29.3930758 C15.0626781,31.5553772 7.88454808,29.4532604 4.35270421,24.2519676 C0.727774413,19.1743876 0.871745237,11.6793902 4.98477699,6.91577359 C7.61726779,3.74487742 11.6564688,1.74206537 15.7938235,1.72668484 Z M16.0771392,3.28045239 C9.47736109,3.07047477 3.40557172,8.8647538 3.28634071,15.4648387 C2.99540066,21.4289722 7.41566336,27.2819313 13.3206265,28.4179169 C18.7919192,29.6155919 24.9052321,26.8048006 27.3462922,21.7156853 C29.8708936,16.7454347 28.7418192,10.1311395 24.4343406,6.50049937 C22.1519741,4.47879603 19.1330526,3.28379598 16.0771392,3.28045239 Z M15.9994843,4.97465083 C21.817471,4.82084556 27.116248,10.0565774 27.0229417,15.8802801 C27.1257739,21.2639659 22.7926783,26.3806659 17.3871388,26.9234982 C12.312013,27.5898762 6.96104459,24.3355574 5.5019395,19.3706565 C3.97250679,14.6403087 5.98191976,8.94282669 10.3895826,6.50718656 C12.0795325,5.51163182 14.0371711,4.9713448 15.9994843,4.97465083 Z M22.1311117,9.16918792 C20.9202179,11.6237193 19.7093258,14.078418 18.498432,16.5329494 C16.9928155,14.5746071 15.4871992,12.6162648 13.9815831,10.6579226 C12.6141433,14.7021652 11.2467031,18.7464078 9.87926328,22.7906504 C11.4123278,20.820104 12.9453922,18.8495576 14.4784567,16.8790112 C16.0598478,18.6883964 17.6412401,20.4979488 19.2226324,22.3075012 C20.1921255,17.9280634 21.1616186,13.5486257 22.1311117,9.16918792 Z M14.3832531,13.0544427 C15.8148711,14.8693448 17.2464872,16.6844141 18.6781049,18.4993163 C19.0356554,17.703374 19.3932058,16.9075989 19.7507562,16.1116567 C19.4084493,17.4888825 19.0661406,18.8661084 18.7238353,20.2433342 C17.2626317,18.5243932 15.801428,16.805285 14.3402244,15.086344 C13.747405,16.0028228 13.1545855,16.9193015 12.5617662,17.8359475 C13.1689284,16.2420568 13.7760907,14.6481662 14.3832531,13.0544427 L14.3832531,13.0544427 Z" transform="translate(0 .046)"/>
</svg>
