<svg xmlns="http://www.w3.org/2000/svg" width="32" height="32" viewBox="0 0 32 32">
  <path d="M15.994575,0.00132330317 C9.7041477,-0.0839938452 3.64311263,3.96434679 1.25709097,9.77515633 C-1.23514711,15.4844603 0.0597912261,22.5768268 4.41931135,27.0295457 C8.61222075,31.5428625 15.5205166,33.1994152 21.3062202,31.087695 C27.3023684,29.0458573 31.7290666,23.1572712 31.9696995,16.8194423 C32.3733063,10.5917249 28.7093668,4.37853462 23.0992299,1.66576271 C20.9024301,0.569493505 18.4492954,-0.00218686928 15.994575,0.00132330317 Z M15.994575,1.73061711 C22.2076285,1.62256029 28.1166462,6.08560804 29.7207858,12.0878826 C31.3987213,17.7410763 29.1291217,24.2863946 24.2578291,27.6346515 C19.1976992,31.3539198 11.6938239,31.08484 6.91539253,27.0094115 C2.1007956,23.1707269 0.377390733,16.0703191 2.84760514,10.4396321 C4.98859988,5.2342447 10.3629189,1.66453768 15.994575,1.73061711 Z M22.1254282,9.18103635 C20.9135599,11.6376692 19.7016932,14.0943019 18.4898249,16.5509348 C16.9829978,14.5909899 15.4761699,12.6310448 13.9693423,10.6710998 C12.6008022,14.718582 11.2322619,18.7660651 9.86372175,22.8135464 C11.3980197,20.8414079 12.9323176,18.8692711 14.4666156,16.8971325 C16.0492795,18.7081061 17.6319447,20.5190796 19.2146082,22.3300531 C20.1848821,17.9470473 21.1551543,13.564042 22.1254282,9.18103635 L22.1254282,9.18103635 Z M14.3713355,13.0695155 C15.8041054,14.886006 17.2368737,16.702497 18.6696438,18.518987 C19.0274814,17.7223861 19.3853189,16.9257852 19.7431565,16.1291843 C19.4005748,17.5074971 19.0579913,18.8858083 18.7154095,20.2641212 C17.2530305,18.543811 15.7906515,16.8235026 14.3282721,15.1031922 C13.7349758,16.0203944 13.1416793,16.9375945 12.5483829,17.8547964 C13.1560338,16.2597027 13.7636846,14.6646092 14.3713355,13.0695155 L14.3713355,13.0695155 Z" transform="translate(0 .004)"/>
</svg>
