<svg xmlns="http://www.w3.org/2000/svg" width="32" height="32" viewBox="0 0 32 32">
  <path d="M15.994575,0.00132330317 C9.7041477,-0.0839938452 3.64311263,3.96434679 1.25709097,9.77515633 C-1.23514711,15.4844603 0.0597912261,22.5768268 4.41931135,27.0295457 C8.61222075,31.5428625 15.5205166,33.1994152 21.3062202,31.087695 C27.3023684,29.0458573 31.7290666,23.1572712 31.9696995,16.8194423 C32.3733063,10.5917249 28.7093668,4.37853462 23.0992299,1.66576271 C20.9024301,0.569493505 18.4492954,-0.00218686928 15.994575,0.00132330317 Z M15.994575,1.73061711 C22.2076285,1.62256029 28.1166462,6.08560804 29.7207858,12.0878826 C31.3987213,17.7410763 29.1291217,24.2863946 24.2578291,27.6346515 C19.1976992,31.3539198 11.6938239,31.08484 6.91539253,27.0094115 C2.1007956,23.1707269 0.377390733,16.0703191 2.84760514,10.4396321 C4.98859988,5.2342447 10.3629189,1.66453768 15.994575,1.73061711 Z M15.4286703,10.7605368 C12.9570861,12.5055584 10.485502,14.2505799 8.01391778,15.9956015 C10.4856725,17.7415086 12.9570602,19.4879346 15.4286703,21.2340458 C15.4286703,19.5467461 15.4286703,17.8594448 15.4286703,16.1721451 C17.8153899,17.8608403 20.204252,19.5465144 22.5917963,21.2340458 C22.5917963,17.7428765 22.5917963,14.2517064 22.5917963,10.7605368 C20.2040877,12.4467785 17.8163791,14.1330203 15.4286703,15.819262 C15.4286703,14.1330203 15.4286703,12.4467785 15.4286703,10.7605368 Z M14.5626725,12.4271437 C14.5626725,14.8039547 14.5626725,17.1807661 14.5626725,19.5575767 C12.8786376,18.3691368 11.1946025,17.1806987 9.51056761,15.9922588 C11.1946025,14.803887 12.8786376,13.6155155 14.5626725,12.4271437 Z M21.7291087,12.4271437 C21.7291087,14.8061837 21.7291087,17.1852242 21.7291087,19.5642639 C20.0450739,18.3747103 18.3610392,17.1851551 16.6770045,15.9956015 C18.3610392,14.8061156 20.0450739,13.6166297 21.7291087,12.4271437 Z"/>
</svg>
