<svg xmlns="http://www.w3.org/2000/svg" width="32" height="32" viewBox="0 0 32 32">
  <path d="M5.63687711,0 C2.52942949,0 0,2.52942931 0,5.63687711 L0,21.0540126 C0,24.1614597 2.52942949,26.6908884 5.63687711,26.6908884 L26.3631224,26.6908884 C29.4705712,26.6908884 32,24.1614597 32,21.0540126 L32,5.63687711 C32,2.52942931 29.4705712,0 26.3631224,0 L5.63687711,0 Z M5.63687711,1.77846862 L26.3631224,1.77846862 C28.5160618,1.77846862 30.2215314,3.4839384 30.2215314,5.63687711 L30.2215314,21.0540126 C30.2215314,23.2069502 28.5160618,24.9124198 26.3631224,24.9124198 L22.161629,24.9124198 L22.161629,13.6947983 L9.83837034,13.6947983 L9.83837034,14.2592202 L9.83837034,24.9124198 L5.63687711,24.9124198 C3.4839384,24.9124198 1.77846862,23.2069502 1.77846862,21.0540126 L1.77846862,5.63687711 C1.77846862,3.4839384 3.4839384,1.77846862 5.63687711,1.77846862 Z M10.9672115,14.8236404 L21.0327887,14.8236404 L21.0327887,24.8892161 L10.9672115,24.8892161 L10.9672115,14.8236404 Z M15.1556093,16.2553414 L15.1556093,17.0997672 L15.1556093,19.0600078 L13.1952994,19.0600078 L12.3508741,19.0600078 L12.3508741,20.7488932 L13.1952994,20.7488932 L15.1556093,20.7488932 L15.1556093,22.7092386 L15.1556093,23.5535595 L16.8443901,23.5535595 L16.8443901,22.7092386 L16.8443901,20.7488932 L18.8047001,20.7488932 L19.6491259,20.7488932 L19.6491259,19.0600078 L18.8047001,19.0600078 L16.8443901,19.0600078 L16.8443901,17.0997672 L16.8443901,16.2553414 L15.1556093,16.2553414 Z" transform="translate(0 3)"/>
</svg>
