<svg xmlns="http://www.w3.org/2000/svg" width="32" height="32" viewBox="0 0 32 32">
  <path d="M16,-1.96647503e-15 C7.17369652,-1.96647503e-15 0,7.17354627 0,15.9998978 C0,24.826252 7.17368493,31.999967 16,31.999967 C24.8263126,31.999967 32,24.826252 32,15.9998978 C32,7.17354645 24.8263023,-1.96647503e-15 16,-1.96647503e-15 Z M16,1.7297298 C23.8915044,1.7297298 30.2702703,8.10835674 30.2702703,15.9998978 C30.2702703,23.8914421 23.8914941,30.2702373 16,30.2702373 C8.10850387,30.2702373 1.72972973,23.8914421 1.72972973,15.9998978 C1.72972973,8.10835674 8.10849228,1.7297298 16,1.7297298 Z M15.856621,8.40554057 C12.8896412,8.42650524 10.0602918,10.3754367 8.96679057,13.1326352 C7.82879792,15.8275683 8.45792,19.1446503 10.5042567,21.2354057 C12.4939008,23.3773249 15.7722257,24.1666767 18.5182097,23.1628038 C21.3957795,22.1824847 23.5097392,19.3361106 23.5859114,16.2925007 C23.7392086,13.33561 21.9621397,10.4119518 19.2865211,9.15621629 C18.2655204,8.66187856 17.1322257,8.40451726 15.9980074,8.40601347 C15.950848,8.40537232 15.9037163,8.40520777 15.856621,8.40554057 Z M16.1271957,9.78879729 C18.8377894,9.80097771 21.3806374,11.8043272 22.012736,14.4448649 C22.7167152,17.0224829 21.5306517,19.9615947 19.2216216,21.3121625 C16.8639931,22.7918304 13.5399709,22.3974762 11.6039865,20.3935134 C9.56093457,18.4225988 9.19711274,15.0125773 10.764527,12.6489189 C11.8746416,10.88552 13.9135059,9.76949715 15.9980074,9.78979726 C16.0411088,9.788981 16.0841704,9.78865892 16.1271957,9.78879729 Z M17.9598651,11.5544257 C17.2685371,12.8086371 16.5772056,14.0628493 15.8858776,15.3170607 C15.2453177,15.385174 15.0931428,16.3569936 15.6841548,16.6161832 C16.0745531,16.8871679 16.3803226,16.4364263 16.7357094,16.4519592 L19.9061829,16.4519592 L19.9061829,15.5870944 L16.7245613,15.5870944 C17.3888069,14.3820264 18.0530525,13.1769601 18.7172982,11.971892 C18.4648199,11.8327369 18.2123434,11.6935807 17.9598651,11.5544257 Z"/>
</svg>
