<svg xmlns="http://www.w3.org/2000/svg" width="32" height="32" viewBox="0 0 32 32">
  <path d="M17.3449683,0 C11.5633122,0 5.78165602,0 0,0 C0,10.6666936 0,21.3333472 0,32 C8.17069786,32 16.3413961,32 24.5120936,32 C24.5120936,23.7865891 24.5120936,15.5731784 24.5120936,7.35976749 C22.1230511,4.90651186 19.7340107,2.45325644 17.3449683,0 L17.3449683,0 Z M15.2400593,1.8179366 C15.2400593,4.32028401 15.2400593,6.82263082 15.2400593,9.32497742 C17.7247576,9.32497742 20.2094579,9.32497742 22.6941562,9.32497742 C22.6941562,16.2773393 22.6941562,23.2296995 22.6941562,30.1820618 C15.735417,30.1820618 8.77667699,30.1820618 1.81793741,30.1820618 C1.81793741,20.7273673 1.81793741,11.2726719 1.81793741,1.8179366 C6.29197812,1.8179366 10.7660186,1.8179366 15.2400593,1.8179366 L15.2400593,1.8179366 Z M17.0579967,2.31104505 C18.7446649,4.0430433 20.4313331,5.77504176 22.1180013,7.50704001 C20.4313331,7.50704001 18.7446649,7.50704001 17.0579967,7.50704001 C17.0579967,5.77504176 17.0579967,4.0430433 17.0579967,2.31104505 Z" transform="translate(4)"/>
</svg>
