<svg xmlns="http://www.w3.org/2000/svg" width="32" height="32" viewBox="0 0 32 32">
  <path d="M15.9749493,0.00289560922 C8.19459375,-0.155925046 0.934430646,6.23969914 0.125121246,13.9849645 C-0.730146789,20.5353971 2.86607384,27.4445971 8.86565799,30.2993566 C14.5308464,33.1460914 21.8770087,32.2887943 26.5754169,27.9685381 C31.3201154,23.8072697 33.302463,16.7263762 31.1073743,10.762577 C29.089165,4.88437382 23.4445435,0.40747033 17.2012601,0.0493715483 C16.7932599,0.0192792136 16.3841061,0.00256124994 15.9749493,0.00256124994 L15.9749493,0.00289560922 Z M15.7938235,1.72668484 C22.9282059,1.45802717 29.6335103,7.40711454 30.1925606,14.5309732 C30.8791574,20.8137512 26.9261347,27.322556 20.9104613,29.3930758 C15.0626781,31.5553772 7.88454808,29.4532604 4.35270421,24.2519676 C0.727774413,19.1743876 0.871745237,11.6793902 4.98477699,6.91577359 C7.61726779,3.74487742 11.6564688,1.74206537 15.7938235,1.72668484 Z M16.0771392,3.28045239 C9.47736109,3.07047477 3.40557172,8.8647538 3.28634071,15.4648387 C2.99540066,21.4289722 7.41566336,27.2819313 13.3206265,28.4179169 C18.7919192,29.6155919 24.9052321,26.8048006 27.3462922,21.7156853 C29.8708936,16.7454347 28.7418192,10.1311395 24.4343406,6.50049937 C22.1519741,4.47879603 19.1330526,3.28379598 16.0771392,3.28045239 Z M15.9994843,4.97465083 C21.817471,4.82084556 27.116248,10.0565774 27.0229417,15.8802801 C27.1257739,21.2639659 22.7926783,26.3806659 17.3871388,26.9234982 C12.312013,27.5898762 6.96104459,24.3355574 5.5019395,19.3706565 C3.97250679,14.6403087 5.98191976,8.94282669 10.3895826,6.50718656 C12.0795325,5.51163182 14.0371711,4.9713448 15.9994843,4.97465083 Z M15.4397379,10.7473637 C12.9701408,12.4908801 10.5005436,14.2345637 8.03094645,15.9782473 C10.5007481,17.7225997 12.9701097,19.4676207 15.4397379,21.2124746 C15.4397379,19.526468 15.4397379,17.8404613 15.4397379,16.1546219 C17.8245426,17.8419659 20.2114782,19.5263008 22.5971049,21.2124746 C22.5971049,17.7241043 22.5971049,14.235734 22.5971049,10.7473637 C20.2113161,12.4322001 17.8255272,14.1170364 15.4397379,15.8018728 C15.4397379,14.1170364 15.4397379,12.4322001 15.4397379,10.7473637 Z M14.5744363,12.4124729 C14.5744363,14.7874268 14.5744363,17.1623807 14.5744363,19.5371675 C12.8917552,18.3498577 11.2090741,17.1623807 9.52639304,15.9749038 C11.2090741,14.7874268 12.8917552,13.5999498 14.5744363,12.4124729 Z M21.7351117,12.4124729 C21.7351117,14.7896001 21.7351117,17.1667274 21.7351117,19.5438546 C20.0524302,18.3553746 18.3697488,17.1667274 16.687069,15.9782473 C18.3697488,14.7896001 20.0524302,13.6011201 21.7351117,12.4124729 L21.7351117,12.4124729 Z" transform="translate(0 .046)"/>
</svg>
