<svg xmlns="http://www.w3.org/2000/svg" width="32" height="32" viewBox="0 0 32 32">
  <path d="M15.9990822,0 C15.6646851,0 15.3303034,0.123717979 15.0822395,0.372943099 L0.370948941,15.0843688 C-0.125179101,15.5804749 -0.122880975,16.4219818 0.373247257,16.9180882 L15.0822395,31.6269781 C15.5783675,32.1232524 16.419831,32.1254277 16.9159582,31.6269781 L31.627283,16.9157554 C32.1234101,16.419649 32.1211137,15.5781089 31.6249502,15.0820028 L16.9159253,0.372943099 C16.6678608,0.124890066 16.3334793,0 15.9990822,0 Z M15.997966,2.18124481 L29.8190148,16.0023942 L15.997966,29.8233755 L2.17691859,16.0023942 L15.997966,2.18124481 Z M10.8362912,9.87148723 C10.836053,9.87148723 10.6699563,9.90329246 10.6698291,9.90329246 C10.6696559,9.90329246 10.5288796,9.99870813 10.5287842,9.99870813 L9.99695054,10.5306431 C9.99677766,10.5306431 9.89985798,10.6729881 9.89981108,10.6746624 C9.89981108,10.6748297 9.86976338,10.8387247 9.86976338,10.8387247 C9.86976338,10.838892 9.90208465,11.0011307 9.90214332,11.0011307 C9.90214332,11.0012982 9.99451136,11.1451501 9.99461848,11.1451501 L14.8523359,16.0027316 L9.99695054,20.8581521 L9.99695054,20.856631 C9.99695054,20.8567971 9.89985798,21.0006162 9.89981108,21.0006162 C9.89981108,21.0007841 9.86976338,21.1647119 9.86976338,21.1647119 C9.86976338,21.1650476 9.90209469,21.3271186 9.90214332,21.3271186 C9.90214332,21.3271186 9.99452641,21.4694287 9.99461848,21.4711039 L10.5264858,22.0028696 C10.526659,22.0030374 10.672034,22.0983186 10.6721612,22.0983186 C10.6723342,22.0983186 10.8338826,22.130124 10.8340266,22.130124 C10.8341997,22.130124 10.9980597,22.1000094 10.9981903,22.1000094 C10.9983632,22.1000094 11.1414719,22.0028696 11.1415673,22.0028696 L15.9970194,17.1473158 L20.8535215,22.0038836 C20.8536945,22.0040515 20.9990953,22.0993327 20.9991957,22.0993327 C20.9993705,22.0993327 21.1609275,22.1311381 21.1610608,22.1311381 C21.1612356,22.1311381 21.3251253,22.1009888 21.3252586,22.1009888 C21.3254334,22.1009888 21.4684685,22.0038836 21.4685689,22.0038836 L22.0004367,21.4721179 C22.000608,21.4719501 22.0951936,21.3314778 22.0952766,21.3314778 C22.0952766,21.33131 22.1276566,21.1657104 22.1276566,21.1640353 C22.1276566,21.1638691 22.0953095,21.0016303 22.0952438,21.0016303 C22.0952438,21.0016303 22.0005527,20.8559543 22.0004367,20.8559543 L17.1444763,15.9998936 L22.0004696,11.1439671 C22.0006426,11.1439671 22.0951936,11.0033278 22.0952766,11.0033278 C22.0952766,11.0031603 22.1276566,10.8375755 22.1276566,10.8375755 C22.1276566,10.8372406 22.0953268,10.6751694 22.0952766,10.6751694 C22.0952766,10.6750019 21.9982718,10.5311501 21.9981714,10.5311501 L21.4663036,9.99921518 C21.4661323,9.99921518 21.3253763,9.9037995 21.3252586,9.9037995 C21.3250873,9.9037995 21.1635441,9.87196036 21.1633935,9.87196036 C21.1632205,9.87196036 20.9970481,9.9037995 20.9969322,9.9037995 C20.9967591,9.9037995 20.8559702,9.99921518 20.8558871,9.99921518 L15.9997917,14.8553102 L11.1415335,9.99688294 L11.1415335,9.99536198 C11.1413605,9.99536198 10.998277,9.90329246 10.9981564,9.90329246 C10.9979835,9.90329246 10.8365203,9.87148723 10.8363249,9.87148723 L10.8362912,9.87148723 Z"/>
</svg>
