<svg xmlns="http://www.w3.org/2000/svg" width="32" height="32" viewBox="0 0 32 32">
  <path d="M6.49417317,0 C2.91556567,0 0,2.9032665 0,6.475 L0,19.8583333 C0,23.4300667 2.91556567,26.3333333 6.49417317,26.3333333 L25.5058267,26.3333333 C29.084435,26.3333333 32,23.4300667 32,19.8583333 L32,6.475 C32,2.9032665 29.084435,0 25.5058267,0 L6.49417317,0 Z M6.49417317,2 L25.5058267,2 C28.0147767,2 30,3.9804335 30,6.475 L30,19.8583333 C30,22.3529 28.0147767,24.3333333 25.5058267,24.3333333 L6.49417317,24.3333333 C3.98522283,24.3333333 2,22.3529 2,19.8583333 L2,6.475 C2,3.9804335 3.98522283,2 6.49417317,2 Z M5.22958983,4.76416017 L5.22958983,16.3412433 L22.7791667,16.3412433 L22.7791667,4.76416017 L5.22958983,4.76416017 Z M7.0459635,5.5215495 L20.96276,5.5215495 L14.004362,10.099414 L7.0459635,5.5215495 Z M5.98694667,5.73138017 L14.004362,11.0059897 L22.0217767,5.73138017 L22.0217767,15.5838867 L5.98694667,15.5838867 L5.98694667,5.73138017 Z" transform="translate(0 3)"/>
</svg>
