<svg xmlns="http://www.w3.org/2000/svg" width="32" height="32" viewBox="0 0 32 32">
  <path d="M15.994575,0.00132330317 C9.7041477,-0.0839938452 3.64311263,3.96434679 1.25709097,9.77515633 C-1.23514711,15.4844603 0.0597912261,22.5768268 4.41931135,27.0295457 C8.61222075,31.5428625 15.5205166,33.1994152 21.3062202,31.087695 C27.3023684,29.0458573 31.7290666,23.1572712 31.9696995,16.8194423 C32.3733063,10.5917249 28.7093668,4.37853462 23.0992299,1.66576271 C20.9024301,0.569493505 18.4492954,-0.00218686928 15.994575,0.00132330317 Z M15.994575,1.73061711 C22.2076285,1.62256029 28.1166462,6.08560804 29.7207858,12.0878826 C31.3987213,17.7410763 29.1291217,24.2863946 24.2578291,27.6346515 C19.1976992,31.3539198 11.6938239,31.08484 6.91539253,27.0094115 C2.1007956,23.1707269 0.377390733,16.0703191 2.84760514,10.4396321 C4.98859988,5.2342447 10.3629189,1.66453768 15.994575,1.73061711 Z M15.994575,8.50728722 C13.7265176,12.5783314 11.4584666,16.6493783 9.19041187,20.7204247 C13.7265204,20.7204247 18.2626285,20.7204247 22.7987374,20.7204247 C20.5306838,16.6493783 18.2626285,12.5783331 15.994575,8.50728722 Z M15.994575,10.2839002 C17.7721455,13.4745261 19.5497143,16.6651512 21.3272848,19.8557778 C17.7721455,19.8557778 14.217005,19.8557778 10.6618652,19.8557778 C12.4394352,16.6651512 14.217005,13.4745261 15.994575,10.2839002 Z" transform="translate(0 .004)"/>
</svg>
