<svg xmlns="http://www.w3.org/2000/svg" width="32" height="32" viewBox="0 0 32 32">
  <path d="M17.3449683,0 C11.5633133,0 5.78165602,0 0,0 L0,32 L24.5120936,32 L24.5120936,7.35976749 C22.1230511,4.90651105 19.7340107,2.45325563 17.3449683,0 Z M15.2400593,1.8179366 L15.2400593,9.32497742 L22.6941562,9.32497742 L22.6941562,30.1820618 L1.81793741,30.1820618 L1.81793741,1.8179366 C6.29197812,1.8179366 10.766019,1.8179366 15.2400593,1.8179366 L15.2400593,1.8179366 Z M17.0579967,2.31104505 L22.1180013,7.50704001 L17.0579967,7.50704001 L17.0579967,2.31104505 Z M7.87619018,3.17164591 L7.87619018,6.91463239 L3.59322742,6.91463239 L3.59322742,10.1373682 L7.87619018,10.1373682 L7.87619018,13.8803941 L13.5754326,8.52600019 L7.87619018,3.17164591 Z" transform="translate(3.488)"/>
</svg>
