<svg xmlns="http://www.w3.org/2000/svg" width="32" height="32" viewBox="0 0 32 32">
  <path d="M6.49417317,0 C2.91556567,0 0,2.9032665 0,6.475 L0,19.8583333 C0,23.4300667 2.91556567,26.3333333 6.49417317,26.3333333 L25.5058267,26.3333333 C29.084435,26.3333333 32,23.4300667 32,19.8583333 L32,6.475 C32,2.9032665 29.084435,0 25.5058267,0 L6.49417317,0 Z M6.49417317,2 L25.5058267,2 C28.0147767,2 30,3.9804335 30,6.475 L30,19.8583333 C30,22.3529 28.0147767,24.3333333 25.5058267,24.3333333 L6.49417317,24.3333333 C3.98522267,24.3333333 2,22.3529 2,19.8583333 L2,6.475 C2,3.9804335 3.98522267,2 6.49417317,2 Z M7.71318367,3.68111983 C7.71270033,4.067252 7.71329617,4.45342033 7.71429033,4.83955083 C7.38498667,4.93271367 7.08407517,5.06270917 6.79990233,5.22197267 L5.969336,4.40139967 L4.41634117,5.9634115 L5.24680983,6.78382167 C5.08638433,7.0713615 4.96112217,7.37694833 4.873698,7.694336 L3.69726567,7.69648433 L3.69726567,9.89635417 L4.88597,9.89208983 C4.994675,10.323098 5.23126583,10.7105633 5.4668945,11.0570313 L5.4668945,9.15944017 L4.4277995,9.163151 L4.4277995,8.42568367 L5.46171867,8.42382817 L5.51975917,8.12981767 C5.60439367,7.70104083 5.77201217,7.292292 6.0128255,6.9265625 L6.17757167,6.67636717 L5.45113933,5.9587565 L5.97395833,5.43291017 L6.70169267,6.151888 L6.949349,5.98662117 C7.3278145,5.73692367 7.741769,5.56956367 8.15455733,5.48238933 L8.44635417,5.42180983 L8.4437175,4.41171867 L9.19479167,4.41171867 L9.18899733,5.4165365 L9.485677,5.4165365 L11.1597657,5.4165365 C10.9749008,5.195872 10.2087762,4.90872267 9.92294917,4.828711 L9.92958983,3.68111983 C9.11137267,3.68111983 8.46988433,3.68111983 7.71318367,3.68111983 Z M9.79166667,5.78570967 L9.794694,6.9440755 C9.46537817,7.03723833 9.16445367,7.16724883 8.8802735,7.32653 L8.049707,6.505957 L6.49667967,8.06796867 L7.327181,8.88837883 C7.16674833,9.1759345 7.0414605,9.48149083 6.9540365,9.79889317 L5.77763667,9.80100917 L5.77763667,12.0009115 L6.96634117,11.9966472 C7.05990833,12.3228588 7.18961183,12.6207623 7.34856767,12.9019857 L6.4980795,13.7491533 L8.068392,15.29248 L8.91585283,14.4489583 C9.20613517,14.6101467 9.51469783,14.7353 9.83460283,14.8223967 L9.83515633,16.0195967 C10.5906678,16.0262117 11.3950317,16.02279 12.0407227,16.0227217 L12.0407227,14.81136 C12.3702825,14.7184367 12.6721407,14.5874867 12.9563802,14.4282883 L13.8031575,15.2631833 L15.357194,13.703125 L14.5086588,12.866927 C14.669453,12.5786142 14.794735,12.272552 14.8822592,11.9548177 L16.0342117,11.9476888 L16.0342117,9.74993483 L14.869336,9.75699867 C14.775696,9.430474 14.6478495,9.13461767 14.4867838,8.85153 L15.2916667,8.04459633 L13.722233,6.49863283 L12.918392,7.30524083 C12.6292995,7.1453655 12.3219803,7.02051083 12.0033203,6.93330083 L12.0099283,5.78570967 L9.79169917,5.78570967 L9.79166667,5.78570967 Z M10.5241212,6.516276 L11.2751953,6.516276 L11.269401,7.52112633 L11.5660482,7.5793295 C11.996785,7.6638545 12.4096493,7.831268 12.7768555,8.0706055 L13.0254883,8.23268233 L13.7269857,7.52880867 L14.2552735,8.04915367 L13.552767,8.7534505 L13.7218098,9.00292967 C13.9698287,9.37731483 14.1343355,9.782034 14.2272135,10.198763 L14.2883138,10.4910807 L15.3035807,10.4849283 L15.3035807,11.2216147 L14.2939778,11.227832 L14.2360027,11.5201823 C14.1508433,11.9494403 13.983575,12.3581803 13.7423503,12.7245443 L13.5774413,12.9750652 L14.3211263,13.7079433 L13.798405,14.2326817 L13.054655,13.4993483 L12.8073893,13.6636067 C12.4288053,13.9110183 12.0181637,14.0823517 11.6038412,14.166765 L11.3100912,14.2254233 L11.3100912,15.2921867 C11.1092837,15.2926783 10.8902398,15.2924321 10.565267,15.291895 L10.5647787,14.2331383 L10.2697265,14.17552 C9.8383875,14.09129 9.42623783,13.92465 9.059668,13.68431 L8.81175133,13.521745 L8.06513667,14.2649417 L7.53678383,13.74567 L8.28444017,13.0009115 L8.11383467,12.7503907 C7.86558483,12.3768267 7.70137,11.971681 7.60833333,11.5554362 L7.54726567,11.2639973 L6.5081705,11.2677083 L6.5081705,10.5302735 L7.54208983,10.5283853 L7.60013017,10.2344075 C7.68476533,9.8056275 7.8523865,9.3968445 8.09319667,9.03111983 L8.25794267,8.7809245 L7.53151033,8.06331383 L8.05429683,7.5374675 L8.78206383,8.25644533 L9.02972,8.091211 C9.40866567,7.84313967 9.81079567,7.67853867 10.2349283,7.58697917 L10.5267253,7.52639967 L10.5241212,6.516276 Z M10.9119792,9.20055333 C10.007694,9.20055333 9.26679683,9.94148217 9.26679683,10.8457682 C9.26679683,11.7500543 10.007694,12.490918 10.9119792,12.490918 C11.8162643,12.490918 12.5571615,11.7500543 12.5571615,10.8457682 C12.5571615,9.94148217 11.8162643,9.20055333 10.9119792,9.20055333 Z M10.9119792,9.93111983 C11.4214465,9.93111983 11.8266277,10.336302 11.8266277,10.8457682 C11.8266277,11.3552345 11.4214465,11.7603842 10.9119792,11.7603842 C10.4025118,11.7603842 9.99736333,11.3552345 9.99736333,10.8457682 C9.99736333,10.336302 10.4025118,9.93111983 10.9119792,9.93111983 Z" transform="translate(0 3)"/>
</svg>
