<svg xmlns="http://www.w3.org/2000/svg" width="32" height="32" viewBox="0 0 32 32">
  <path d="M5.63579855,2.02179691e-15 C2.52848609,2.02179691e-15 2.02179691e-15,2.52831287 2.02179691e-15,5.63562498 L2.02179691e-15,21.054313 C2.02179691e-15,24.1616269 2.52848609,26.6901118 5.63579855,26.6901118 L26.3642013,26.6901118 C29.4715152,26.6901118 32,24.1616269 32,21.054313 L32,5.63562498 C32,2.52831287 29.4715152,2.02179691e-15 26.3642013,2.02179691e-15 L5.63579855,2.02179691e-15 Z M5.63579855,1.77776609 L26.3642013,1.77776609 C28.5170472,1.77776609 30.2221991,3.48292668 30.2221991,5.63562498 L30.2221991,21.054313 C30.2221991,23.2071856 28.5170472,24.9123446 26.3642013,24.9123446 L22.161361,24.9123446 L22.161361,14.2870484 L22.161361,13.7225122 L21.5968266,13.7225122 L10.4031727,13.7225122 L9.83863763,13.7225122 L9.83863763,14.2870484 L9.83863763,24.9123446 L5.63579855,24.9123446 C3.48295354,24.9123446 1.77780077,23.2071856 1.77780077,21.054313 L1.77780077,5.63562498 C1.77780077,3.48292668 3.48295354,1.77776609 5.63579855,1.77776609 Z M10.9673604,14.8515827 L21.0326391,14.8515827 L21.0326391,24.9123446 L10.9673604,24.9123446 L10.9673604,14.8515827 Z M12.3031685,18.848135 L12.3031685,20.5590719 L19.6967951,20.5590719 L19.6967951,18.848135 L12.3031685,18.848135 Z" transform="translate(0 3)"/>
</svg>
