<svg xmlns="http://www.w3.org/2000/svg" width="32" height="32" viewBox="0 0 32 32">
  <path d="M15.9749497,0.00291311058 C8.19459426,-0.156397006 0.934430576,6.23964383 0.125121325,13.9849156 C-0.730147068,20.5353696 2.86607419,27.4446668 8.86565826,30.2993656 C14.5308467,33.1460873 21.8770104,32.2887598 26.5754169,27.9685412 C31.3201139,23.8072587 33.3024634,16.7264499 31.1073745,10.7625724 C29.0891658,4.88433641 23.4445334,0.407560824 17.2012601,0.0494092676 C16.7932624,0.0185971184 16.3841086,0.00316192869 15.9749497,0.00291311058 Z M15.7938239,1.72666556 C22.9282168,1.45799522 29.6335055,7.40712814 30.1925618,14.5309763 C30.8791581,20.8137263 26.9261347,27.3225161 20.9104626,29.3931251 C15.0626785,31.5554444 7.88454823,29.4526497 4.35270436,24.2519986 C0.727774864,19.1744227 0.871744999,11.6794189 4.98477735,6.91580463 C7.61726798,3.74484846 11.6564691,1.74209919 15.7938239,1.72666556 Z M16.0771396,3.28046262 C9.47736152,3.07057245 3.40557181,8.86469601 3.28634094,15.4648382 C2.99540086,21.4290085 7.41566311,27.2820261 13.3206268,28.4179223 C18.7919198,29.6156584 24.9052322,26.8047619 27.3462934,21.7157161 C29.8708918,16.7454879 28.7418209,10.1311451 24.4343405,6.50053377 C22.1519751,4.47881869 19.1330529,3.28389631 16.0771396,3.28046262 Z M15.9994842,4.97465185 C21.8174703,4.82058972 27.1162507,10.0565596 27.0229422,15.880254 C27.1257853,21.2639402 22.7926662,26.3806601 17.3871394,26.9234568 C12.312026,27.5898159 6.96107172,24.335586 5.50197207,19.3707194 C3.97252929,14.6402976 5.98191836,8.94289159 10.389583,6.50727795 C12.0795309,5.51160946 14.0371674,4.97133505 15.9994842,4.97465185 Z M12.0434967,8.92139284 C11.0112205,9.95366904 9.97894446,10.9859451 8.94666826,12.0182213 C10.2750278,13.3465922 11.6033875,14.6749634 12.9317471,16.0033343 C11.6273824,17.3077097 10.3230176,18.6120868 9.01865289,19.9164622 C10.0345499,20.9323589 11.050447,21.9482557 12.0663441,22.9641524 C13.37072,21.659777 14.6750957,20.3553999 15.9794716,19.0510245 C17.3086079,20.3801607 18.6377424,21.709297 19.9668786,23.0384332 C20.9991559,22.006156 22.0314314,20.9738805 23.0637086,19.9416032 C21.7345724,18.612467 20.4054361,17.2833325 19.0762999,15.9541962 C20.3807098,14.6497754 21.6851198,13.3453545 22.9895297,12.0409337 C21.973633,11.0250366 20.9577346,10.0091396 19.9418379,8.99324253 C18.6374279,10.2976523 17.3330197,11.6020619 16.0286097,12.9064717 C14.7002388,11.5781121 13.3718676,10.2497524 12.0434967,8.92139284 Z M12.0413029,10.1426696 C13.3704387,11.4718055 14.6995742,12.8009412 16.02871,14.1300771 C17.3330836,12.82571 18.6374625,11.5213481 19.9418379,10.2169831 C20.5506094,10.8257541 21.1593792,11.4345251 21.7681507,12.0432961 C20.4637753,13.3476609 19.1593982,14.6520258 17.8550228,15.9563906 C19.1833936,17.2847614 20.5117661,18.6131322 21.8401369,19.941503 C21.2157296,20.5659103 20.5913205,21.1903177 19.9669132,21.814725 C18.6385528,20.4863542 17.3101941,19.1579834 15.9818337,17.8296126 C14.6774579,19.133988 13.3730822,20.4383651 12.0687064,21.7427405 C11.4599354,21.133969 10.8511644,20.5251992 10.2423934,19.9164277 C11.5467693,18.6120523 12.8511452,17.3076752 14.1555212,16.0032998 C12.8263854,14.674164 11.4972495,13.3450283 10.1681138,12.0158926 C10.7925102,11.3914849 11.4169065,10.7670772 12.0413029,10.1426696 Z" transform="translate(0 .046)"/>
</svg>
