<svg xmlns="http://www.w3.org/2000/svg" width="32" height="32" viewBox="0 0 32 32">
  <path d="M6.49417317,0 C2.91556567,0 0,2.9032665 0,6.475 L0,19.8583333 C0,23.4300667 2.91556567,26.3333333 6.49417317,26.3333333 L25.5058267,26.3333333 C29.084435,26.3333333 32,23.4300667 32,19.8583333 L32,6.475 C32,2.9032665 29.084435,0 25.5058267,0 L6.49417317,0 Z M6.49417317,2 L25.5058267,2 C28.0147767,2 30,3.9804335 30,6.475 L30,19.8583333 C30,22.3529 28.0147767,24.3333333 25.5058267,24.3333333 L6.49417317,24.3333333 C3.98522267,24.3333333 2,22.3529 2,19.8583333 L2,6.475 C2,3.9804335 3.98522267,2 6.49417317,2 Z M9.4837565,5.0765625 L9.40664067,5.12236333 L9.38144533,5.13730467 C8.29110917,5.78345617 7.54075933,6.375977 7.04544267,6.95455733 C6.54944017,7.53393833 6.309618,8.11730933 6.3027995,8.6796875 C6.28923017,9.798862 7.1147455,10.6375555 7.847168,11.3876628 C8.57903333,12.1371987 9.23188167,12.8440708 9.29332683,13.4290683 C9.324645,13.72724 9.25415133,14.026715 8.9290365,14.4367833 C8.6052895,14.8451283 8.01771717,15.33423 7.07832033,15.8818367 L5.69143883,16.690235 L14.250944,16.690235 L14.3522462,16.631315 L14.3523437,16.6312167 C15.3478657,16.0508917 16.0185667,15.5147533 16.4459317,14.9757167 C16.87457,14.4350717 17.04894,13.869425 16.9931633,13.3384117 C16.8826517,12.2862533 16.0255733,11.519567 15.305013,10.781608 C14.5838933,10.0430765 13.9993665,9.34649717 14.0073242,8.69016933 C14.0113423,8.35883367 14.1386942,7.9892065 14.5415038,7.51868483 C14.9436237,7.048967 15.6216337,6.499409 16.661035,5.8834635 L16.661035,5.883431 L18.0225583,5.0765625 L9.4837565,5.0765625 Z M9.725,5.94401033 L14.9963867,5.94401033 C14.5321272,6.29016467 14.1650353,6.62458867 13.882552,6.95455733 C13.38655,7.53393833 13.1467602,8.11730917 13.1399413,8.6796875 C13.1263728,9.7988715 13.9519237,10.6375598 14.6843425,11.3876628 C15.4162038,12.137194 16.06899,12.8440597 16.1304367,13.4290683 C16.161755,13.7272417 16.0912917,14.026715 15.7661783,14.4367833 C15.4543988,14.8300317 14.893696,15.2992817 14.0130208,15.8227867 L8.7281575,15.8227867 C9.09477367,15.5368633 9.38602117,15.256695 9.608789,14.9757167 C10.0374283,14.4350717 10.2118295,13.8694567 10.1560547,13.3384433 C10.0455417,12.2862867 9.1884315,11.519567 8.46787117,10.781608 C7.74675167,10.0430767 7.1622575,9.34653 7.17013454,8.69020183 C7.17423217,8.35886683 7.3015855,7.98923917 7.7043945,7.5187175 C8.093011,7.06477417 8.7432035,6.535202 9.725,5.94401033 Z M8.491569,7.42350267 L8.491569,7.82418617 L12.6123372,7.82418617 L12.6123372,7.42350267 L8.491569,7.42350267 Z M8.338444,9.58170567 L8.338444,9.98238933 L12.5991212,9.98238933 L12.5991212,9.58170567 L8.338444,9.58170567 Z M10.2690103,11.7398437 L10.2690103,12.1405273 L14.3953125,12.1405273 L14.3953125,11.7398437 L10.2690103,11.7398437 Z M10.859017,13.8980467 L10.859017,14.2986983 L15.134668,14.2986983 L15.134668,13.8980467 L10.859017,13.8980467 Z" transform="translate(0 3)"/>
</svg>
