<svg xmlns="http://www.w3.org/2000/svg" width="32" height="32" viewBox="0 0 32 32">
  <path d="M15.6761859,0.000432365742 C7.94297348,0.00694746402 0.833735786,6.45084717 0.104143122,14.1590269 C-0.678757135,20.7242629 3.01600638,27.5863052 9.04640534,30.3749641 C14.6466754,33.1121136 21.8347822,32.2459016 26.4795563,28.0313162 C31.205405,23.9419062 33.270329,16.971484 31.1944649,11.0247262 C29.2203773,4.9577629 23.3943587,0.313022163 16.9778199,0.0319034629 C16.5445282,0.00358118766 16.1102637,-0.00173664991 15.6761859,0.000432365742 Z M15.9929513,5.00628033 C21.6880929,4.84062189 26.9092975,9.86363263 26.9761285,15.56106 C27.2224174,20.7732135 23.3066634,25.8914062 18.1124808,26.7652445 C13.0862248,27.77209 7.51165001,24.8672331 5.75233349,19.9876027 C3.85834087,15.1621756 5.79064373,9.05997034 10.400746,6.5273023 C12.0863331,5.53758826 14.0377933,5.00384576 15.9929513,5.00628033 Z M12.0378921,8.92442293 C11.0057084,9.95660658 9.97352494,10.9887901 8.94134129,12.0209737 C10.2695818,13.3492256 11.5978224,14.6774776 12.9260629,16.0057295 C11.6218151,17.3099879 10.3175672,18.6142481 9.01331947,19.9185066 C10.0291254,20.9343122 11.0449314,21.9501178 12.0607374,22.9659235 C13.3649964,21.661665 14.6692552,20.3574048 15.9735141,19.0531464 C17.3025312,20.3821635 18.6315466,21.7111806 19.9605637,23.0401977 C20.9927484,22.008013 22.0249313,20.97583 23.057116,19.9436453 C21.7280989,18.6146282 20.3990818,17.2856129 19.0700647,15.9565958 C20.3743578,14.6522919 21.6786508,13.347988 22.9829438,12.0436841 C21.9671381,11.0278781 20.9513308,10.0120722 19.9355251,8.99626618 C18.6312321,10.300559 17.3269409,11.6048517 16.0226479,12.9091445 C14.694396,11.580904 13.3661439,10.2526634 12.0378921,8.92442293 Z" transform="translate(0 .051)"/>
</svg>
