<svg xmlns="http://www.w3.org/2000/svg" width="32" height="32" viewBox="0 0 32 32">
  <path d="M15.9990822,0 C15.6646851,0 15.3303034,0.123717979 15.0822395,0.372943099 L0.370948941,15.0843688 C-0.125179101,15.5804749 -0.122880975,16.4219818 0.373247257,16.9180882 L15.0822395,31.6269781 C15.5783675,32.1232524 16.419831,32.1254277 16.9159582,31.6269781 L31.627283,16.9157554 C32.1234101,16.419649 32.1211137,15.5781089 31.6249502,15.0820028 L16.9159253,0.372943099 C16.6678608,0.124890066 16.3334793,0 15.9990822,0 Z M15.997966,2.18124481 L29.8190148,16.0023942 L15.997966,29.8233755 L2.17691859,16.0023942 L15.997966,2.18124481 Z M15.6712611,8.97117261 L15.6712282,8.97837179 C15.6712282,8.9785393 15.5264355,9.00517474 15.5263636,9.00517474 C15.5261905,9.00517474 15.4077842,9.0855497 15.4076939,9.0855497 C15.4075208,9.0855497 15.3252615,9.20776833 15.3251895,9.20776833 C15.3251895,9.20793584 15.2973232,9.35344377 15.2972712,9.35344377 L15.2972712,14.3069487 L11.7905158,10.8002272 L11.7906848,10.8002272 C11.7905116,10.8002272 11.6661589,10.7198522 11.6661002,10.7198522 C11.6658932,10.7198522 11.5273665,10.6916986 11.5263058,10.6914946 C11.5249645,10.6917055 11.3824092,10.7181959 11.3823542,10.7181959 C11.3821813,10.7180286 11.2600777,10.8002272 11.2600343,10.8002272 L10.7991455,11.2608455 C10.7991455,11.2608455 10.715034,11.3847539 10.7150188,11.3847539 C10.7148459,11.3847539 10.6889899,11.5270495 10.6889934,11.5270495 C10.6889968,11.5272168 10.7169203,11.6676887 10.7169454,11.6676887 C10.716949,11.6678563 10.7967648,11.7915974 10.7968135,11.7915974 L14.3018113,15.2966629 L9.34458841,15.2966629 L9.34360823,15.2954799 C9.34360823,15.2956472 9.19942763,15.3272851 9.19935235,15.3272851 C9.19917947,15.3274524 9.08079517,15.40766 9.08071643,15.40766 L9.08071643,15.406815 C9.08054355,15.4069825 8.99828907,15.5290674 8.99821206,15.5290674 C8.99803918,15.5290674 8.97026003,15.6747098 8.97026003,15.6747098 L8.97026003,16.326531 C8.97026003,16.326531 8.99795941,16.4738959 8.99895567,16.4738959 C8.99895567,16.4742316 9.08107984,16.5927677 9.08108832,16.5927677 C9.08126138,16.5927677 9.20039534,16.6731439 9.20043393,16.6731439 C9.20060698,16.6734779 9.34523286,16.7049493 9.3452981,16.7049493 L14.3008311,16.7049493 L10.7988076,20.2069712 L10.7988076,20.2056543 C10.7986345,20.2058222 10.7147026,20.3295619 10.7146808,20.3295619 C10.7145078,20.3297298 10.6886215,20.4718582 10.6886215,20.4718582 C10.6886251,20.4721922 10.7165873,20.6124965 10.7166074,20.6124965 C10.7166074,20.6124965 10.7967417,20.7364059 10.7964755,20.7364059 L11.2574316,21.1970244 C11.2576046,21.1971922 11.3833805,21.2790549 11.3834357,21.2790549 C11.3834357,21.2790549 11.5236785,21.3075152 11.5237372,21.3075152 C11.5239447,21.3075152 11.6658576,21.2807456 11.6659311,21.2807456 C11.6659311,21.2807456 11.7900329,21.1970244 11.7900764,21.1970244 L15.297305,17.6897952 L15.297305,22.6540141 L15.2963925,22.6530346 C15.2963925,22.6532025 15.32512,22.8003667 15.3250881,22.8003667 C15.3250881,22.8005345 15.4071869,22.9192385 15.4071869,22.9192385 C15.4073597,22.9194063 15.5265023,22.9996129 15.5265325,22.9996129 C15.5265325,22.9996129 15.6703145,23.0297449 15.6713961,23.0314183 L16.3230148,23.0312504 C16.3231879,23.0312504 16.4706514,23.001134 16.4707518,23.001134 C16.4707518,23.001134 16.5893052,22.9207596 16.5893883,22.9207596 C16.5895613,22.9205917 16.6714378,22.8018878 16.6715209,22.8018878 C16.6715209,22.8018878 16.6997787,22.6545211 16.6998445,22.6545211 L16.6998445,17.6931421 L20.204573,21.1976993 C20.2043999,21.198035 20.3304759,21.2797315 20.3305434,21.2797315 C20.3307147,21.2798994 20.470827,21.306534 20.4708772,21.306534 C20.4710849,21.306534 20.6129883,21.2797315 20.6130714,21.2797315 C20.6130714,21.2797315 20.7371676,21.1960103 20.7372507,21.1960103 L21.1980041,20.7350872 C21.1981789,20.7350872 21.279673,20.6128357 21.2807113,20.6128357 C21.2807078,20.6125 21.3090972,20.4688678 21.3083928,20.4671944 C21.3083894,20.4670265 21.2804067,20.3265214 21.2803738,20.3265214 C21.2801662,20.3266875 21.1988053,20.2009559 21.1977341,20.2009559 L17.701795,16.7047797 L22.6503647,16.7047797 C22.6505377,16.7049475 22.7980013,16.6746304 22.7980671,16.6746304 C22.7982401,16.6746304 22.9166533,16.594256 22.9167035,16.594256 C22.9168766,16.5939202 22.9987358,16.4753824 22.9988362,16.4753824 C22.9988362,16.4753824 23.0271597,16.3280521 23.0271597,16.3280521 L23.0271597,15.6763988 C23.0271597,15.6762309 22.9990231,15.532398 22.9990733,15.5307237 C22.9988985,15.5305562 22.9173698,15.4085051 22.9163661,15.4085051 C22.9161913,15.4083375 22.7970374,15.3281301 22.7969872,15.3281301 C22.7969872,15.3282975 22.6497555,15.2963405 22.649688,15.2980147 L17.6861112,15.2980147 L21.1978016,11.7864261 C21.1979747,11.7862586 21.2794376,11.6641737 21.2804742,11.6641737 C21.2804708,11.6638388 21.3088999,11.5201881 21.3088999,11.5201881 C21.3088964,11.5200208 21.2809311,11.3795489 21.2809138,11.3795489 C21.2807407,11.3793815 21.1970575,11.2556402 21.1970246,11.2556402 L20.7361691,10.7946841 C20.735996,10.7946841 20.6143052,10.7126529 20.614255,10.7126529 C20.6140803,10.7124855 20.4739697,10.6858838 20.4738866,10.6858838 C20.473679,10.6858838 20.3294445,10.7126529 20.3293943,10.7126529 C20.3292196,10.7128204 20.2071065,10.7946841 20.2070736,10.7946841 L16.699777,14.3019465 L16.699777,9.34806978 C16.699777,9.34790227 16.6716403,9.20406863 16.6716905,9.20239434 C16.6715174,9.20205949 16.5899974,9.08017571 16.5899974,9.08017571 C16.5898243,9.0800082 16.4706843,8.99980076 16.4706514,8.99980076 C16.4704784,8.99980076 16.3230148,8.97134151 16.3229819,8.97134151 L15.6712611,8.97117261 Z" transform="translate(.002)"/>
</svg>
