<svg xmlns="http://www.w3.org/2000/svg" width="32" height="32" viewBox="0 0 32 32">
  <path d="M5.55185225,0.0157706511 C3.21751962,0.0412563718 0.867165679,1.78585198 0.261795121,4.18562665 C-0.182433342,5.8484719 0.0907918162,7.60796685 0.0144518884,9.3135497 L0.0144518884,12.2363698 L2.0554774,12.2363698 C2.09258265,9.90403424 1.97890261,7.56346486 2.1167039,5.23642252 C2.35203611,3.3549882 4.08019636,1.93759004 5.85403703,2.0385527 L14.809814,2.0385527 L14.809814,0.00871306691 C11.7239151,0.00871306691 8.6373516,-0.0108913336 5.55185186,0.00871306691 L5.55185225,0.0157706511 Z M18.6454863,2.03894479 L20.5649375,2.03894479 L20.5649375,0.00890911092 L18.6454863,0.00890911092 L18.6454863,2.03894479 Z M24.400611,2.03894479 C25.6663162,1.97032939 27.0608732,2.08403491 28.0032725,3.09424967 C29.039018,4.07701827 29.2039636,5.61674789 29.1249088,7.00493549 L29.1249088,13.3165722 L31.2032282,13.3165722 C31.1724297,10.6399834 31.2652173,7.95731727 31.156158,5.28464934 C30.9859918,2.54218975 28.5369121,0.17378212 25.9406425,0.049294176 C25.429795,-0.0154003458 24.9137895,0.0296897755 24.4005306,0.0159666951 C24.4005306,0.690358074 24.4005306,1.36455341 24.4006188,2.03874874 L24.400611,2.03894479 Z M0.0144518884,18.3192232 L2.0554776,18.3192232 L2.0554776,16.2927163 L0.0144518884,16.2927163 L0.0144518884,18.3192232 Z M29.1249167,19.4025624 L31.203236,19.4025624 L31.203236,17.3725267 L29.1249167,17.3725267 L29.1249167,19.4025624 Z M0.0144518884,26.1484366 C0.0181963289,28.3656943 1.40736788,30.5137485 3.32719291,31.4284898 C5.05523887,32.2810852 7.00811751,31.8762543 8.84797579,31.9715317 C9.27745567,31.8597866 10.1385997,32.2030596 10.2826231,31.7892107 L10.2826231,29.9420841 C8.49534811,29.8989544 6.69939525,30.0361853 4.91849857,29.8597456 C3.24749749,29.5064744 1.9991418,27.8124581 2.05547779,26.0159108 L2.05547779,22.3722369 L0.0144518884,22.3722369 L0.0144518884,26.1488287 L0.0144518884,26.1484366 Z M29.1249167,26.0798212 C29.163851,28.0410454 27.616113,29.8668032 25.7425871,29.9220876 C23.7887243,29.9828613 21.8294056,29.941692 19.8734256,29.9475734 L19.8734256,31.977609 C21.9906224,31.9364398 24.1152964,32.0579871 26.2276098,31.914875 C28.7516391,31.6506076 31.0461283,29.2712215 31.1675795,26.5918881 C31.2475851,25.553247 31.1818908,24.5071562 31.2033184,23.4655744 L29.124999,23.4655744 L29.1249108,26.0794291 L29.1249167,26.0798212 Z M14.118295,31.9781972 L16.0377462,31.9781972 L16.0377462,29.9481615 L14.118295,29.9481615 L14.118295,31.9781972 Z" transform="translate(.789)"/>
</svg>
