<svg xmlns="http://www.w3.org/2000/svg" width="32" height="32" viewBox="0 0 32 32">
  <path d="M15.8471717,7.88406834e-05 C9.60965087,-0.020552156 3.62447576,4.00981668 1.25709426,9.77523116 C-1.23514456,15.484537 0.0597832436,22.576917 4.41930493,27.0296373 C8.61221567,31.5429555 15.5204966,33.1995261 21.3062012,31.0878052 C27.302353,29.0459668 31.7290665,23.1573702 31.9696995,16.8195392 C32.3733064,10.5918192 28.7093692,4.3786264 23.0992305,1.6658538 C20.90243,0.569584071 18.4492876,-0.00210217608 15.9945664,0.0014079802 C15.9454216,0.000741440984 15.8962854,7.88406834e-05 15.8471717,7.88406834e-05 Z M16.2855738,1.7287868 C22.3912366,1.76249767 28.1416972,6.17946876 29.7207729,12.0879597 C31.398709,17.7411546 29.1291173,24.2864974 24.2578231,27.6347554 C19.1976916,31.3540249 11.6937985,31.0849363 6.91536564,27.0095066 C2.100767,23.1708207 0.377390807,16.0704141 2.84760601,10.439726 C4.98860143,5.23433676 10.3629087,1.66462289 15.9945664,1.73070234 C16.0916455,1.7287868 16.1886589,1.72844769 16.2855738,1.7287868 Z" transform="translate(0 .004)"/>
</svg>
