<svg xmlns="http://www.w3.org/2000/svg" width="32" height="32" viewBox="0 0 32 32">
  <path d="M15.9749493,0.00289560922 C8.19459375,-0.155925046 0.934430646,6.23969914 0.125121246,13.9849645 C-0.730146789,20.5353971 2.86607384,27.4445971 8.86565799,30.2993566 C14.5308464,33.1460914 21.8770087,32.2887943 26.5754169,27.9685381 C31.3201154,23.8072697 33.302463,16.7263762 31.1073743,10.762577 C29.089165,4.88437382 23.4445435,0.40747033 17.2012601,0.0493715483 C16.7932599,0.0192792136 16.3841061,0.00256124994 15.9749493,0.00256124994 L15.9749493,0.00289560922 Z M15.7938235,1.72668484 C22.9282059,1.45802717 29.6335103,7.40711454 30.1925606,14.5309732 C30.8791574,20.8137512 26.9261347,27.322556 20.9104613,29.3930758 C15.0626781,31.5553772 7.88454808,29.4532604 4.35270421,24.2519676 C0.727774413,19.1743876 0.871745237,11.6793902 4.98477699,6.91577359 C7.61726779,3.74487742 11.6564688,1.74206537 15.7938235,1.72668484 Z M16.0771392,3.28045239 C9.47736109,3.07047477 3.40557172,8.8647538 3.28634071,15.4648387 C2.99540066,21.4289722 7.41566336,27.2819313 13.3206265,28.4179169 C18.7919192,29.6155919 24.9052321,26.8048006 27.3462922,21.7156853 C29.8708936,16.7454347 28.7418192,10.1311395 24.4343406,6.50049937 C22.1519741,4.47879603 19.1330526,3.28379598 16.0771392,3.28045239 Z M15.9994843,4.97465083 C21.817471,4.82084556 27.116248,10.0565774 27.0229417,15.8802801 C27.1257739,21.2639659 22.7926783,26.3806659 17.3871388,26.9234982 C12.312013,27.5898762 6.96104459,24.3355574 5.5019395,19.3706565 C3.97250679,14.6403087 5.98191976,8.94282669 10.3895826,6.50718656 C12.0795325,5.51163182 14.0371711,4.9713448 15.9994843,4.97465083 Z M16.0051684,8.90236922 C14.3328247,13.5561488 13.271368,18.4035223 11.5990151,23.0573019 C13.1332929,21.5321221 14.4709779,19.823379 16.0051684,18.2981992 C17.4738866,19.8845667 18.9426049,21.4709343 20.4113231,23.0573019 C18.9146541,18.3478515 17.5018357,13.6119868 16.0051684,8.90236922 Z" transform="translate(0 .046)"/>
</svg>
