<svg xmlns="http://www.w3.org/2000/svg" width="32" height="32" viewBox="0 0 32 32">
  <path d="M16.0071049,8.43423276 C13.7412125,12.5013709 11.4753168,16.5685074 9.20942317,20.6356449 C13.7412005,20.6356449 18.2729786,20.6356449 22.8047555,20.6356449 C20.5388714,16.5685078 18.272989,12.5013699 16.0071049,8.43423276 Z M16.0071049,10.2091112 C17.7829616,13.3966829 19.5588201,16.584254 21.3346769,19.7718257 C17.7829634,19.7718257 14.2312486,19.7718257 10.6795346,19.7718257 C12.4553913,16.5842542 14.2312481,13.3966827 16.0071049,10.2091112 Z M16.1400708,0 C14.5689798,0.235746795 11.9449463,-0.284491593 11.2391464,1.38148909 C11.8586072,3.08397996 13.9852044,1.44967967 15.3254031,1.74567665 C16.7460711,1.61602395 18.1641754,1.94655832 19.5600139,2.00467331 C21.2698714,0.397721876 18.1891709,-0.0416934424 17.0005747,0.0271349794 C16.7139802,0.0118706033 16.4270488,0.00319094808 16.1400708,0 L16.1400708,0 Z M25.0006616,2.77606522 C22.8092266,3.47029252 25.4013113,5.0360009 26.1814471,5.87044419 C27.2636174,7.02201865 28.1350191,8.35358643 28.8958193,9.73382471 C30.3758801,10.7393876 30.7406658,8.47365798 29.7061767,7.7037102 C28.5479385,5.80657305 27.0933119,3.99953864 25.1934488,2.81337824 L25.0006616,2.77606522 L25.0006616,2.77606522 L25.0006616,2.77606522 Z M6.56173271,3.19866164 C4.76918264,3.91086 3.65316384,5.74668689 2.55253934,7.26047231 C1.77876518,8.07366064 0.340885624,10.9128686 2.55707076,10.4709536 C3.68046243,9.00224415 4.42631778,7.16483543 5.82376801,5.85673814 C6.48788325,5.15630828 8.55352181,3.8440809 6.56173271,3.19866164 Z M31.1317202,14.2713052 C29.473101,14.7056188 30.6641763,16.9381663 30.1415243,18.1659294 C29.9113372,19.717665 29.3945971,21.2238346 28.6449662,22.6008159 C28.4146944,24.2599573 30.636135,23.7662046 30.6628288,22.4024397 C31.7539689,20.0608904 32.2006118,17.4190974 31.9165189,14.8500632 C31.8103815,14.517046 31.4772997,14.2824 31.1317202,14.2713052 L31.1317202,14.2713052 Z M0.951328331,14.9365811 C-0.725312456,15.3225079 0.319408142,17.6035656 0.34414706,18.8128985 C0.715312543,20.4358484 1.1362734,22.1625497 2.13318657,23.5089862 C4.51551575,23.8304947 2.70510363,21.1707279 2.42603267,20.0168793 C1.99491105,18.5953441 1.76268087,17.1133696 1.74175658,15.6279396 C1.66999462,15.2558329 1.32968632,14.9581539 0.951328331,14.9365811 Z M25.5100454,26.7478909 C23.7550395,27.6122947 22.2070444,29.0129309 20.2356173,29.5116761 C19.0741174,29.4962073 17.161772,30.7830441 18.9048122,31.6135935 C21.5657243,31.1673317 24.0677749,29.8813985 26.1413089,28.1690428 C26.6133325,27.6634593 26.20174,26.7365775 25.5100454,26.7478909 L25.5100454,26.7478909 Z M6.35890382,26.7901714 C4.35513839,27.5757377 6.77526985,29.1945561 7.78917417,29.7032734 C9.39740647,30.6072903 11.1679528,31.3392742 12.9968481,31.5797014 C14.7670174,30.7764917 12.769113,29.4855723 11.6400319,29.506853 C9.89024555,28.970033 8.23706528,28.1114309 6.84247498,26.9210597 L6.61534997,26.8173368 L6.35890382,26.7901714 L6.35890382,26.7901714 L6.35890382,26.7901714 Z" transform="translate(0 .386)"/>
</svg>
