<svg xmlns="http://www.w3.org/2000/svg" width="32" height="32" viewBox="0 0 32 32">
  <path d="M13.5025683,9.01616762 L13.5025683,13.4436666 L9.07506891,13.4436666 L9.07506891,18.4246028 L13.5025683,18.4246028 L13.5025683,22.8521018 L18.4835045,22.8521018 L18.4835045,18.4246028 L22.9110035,18.4246028 L22.9110035,13.4436493 L18.4835045,13.4436493 L18.4835045,9.01616762 L13.5025683,9.01616762 Z M14.3327243,9.84632369 L17.6533484,9.84632369 L17.6533484,14.2738228 L22.0808474,14.2738228 L22.0808474,17.5944468 L17.6533484,17.5944468 L17.6533484,22.0219458 L14.3327243,22.0219458 L14.3327243,17.5684975 L9.90522515,17.5684975 L9.90522515,14.2738228 L14.3327243,14.2738228 L14.3327243,9.84632369 Z M16.1202819,2.85366147e-05 L15.8995694,0.000400377352 L15.89376,0.000400377352 L15.887916,0.00050414686 L15.6672363,0.00384811925 L15.6613924,0.00395188876 L15.655583,0.00412483794 L15.4349711,0.0104414608 L15.4291273,0.01061441 L15.4233173,0.0108513504 L15.2028071,0.0201406238 L15.1969972,0.0204104245 L15.1911534,0.0207148151 L14.970812,0.032976739 L14.9649682,0.0333139899 L14.9591582,0.033718691 L14.7389858,0.0489530924 L14.7331759,0.0493577935 L14.7273658,0.0498299448 L14.5074298,0.0680368238 L14.5016197,0.0685107045 L14.4958099,0.069050306 L14.2761442,0.0902298355 L14.2703341,0.0908040268 L14.2645241,0.0914128079 L14.0451961,0.115564988 L14.0393861,0.116206629 L14.033576,0.116915721 L13.8146198,0.144006654 L13.8088097,0.144715745 L13.8029997,0.145526877 L13.5844825,0.175556562 L13.5786725,0.176367693 L13.5728624,0.177246275 L13.3547844,0.210248438 L13.3489743,0.21112702 L13.3431643,0.212073052 L13.1255928,0.248047865 L13.119783,0.248993897 L13.1139729,0.250041969 L12.8969758,0.288955534 L12.8911319,0.290003606 L12.8853557,0.291117399 L12.6689328,0.332969717 L12.6631228,0.334118099 L12.6573127,0.335301072 L12.4415316,0.380125867 L12.4356878,0.3813417 L12.4299117,0.382624983 L12.2148061,0.430388531 L12.2089961,0.431671814 L12.203186,0.433057137 L11.9888236,0.48375961 L11.9829799,0.485144933 L11.9772035,0.486597706 L11.8615438,0.515681705 L11.7095377,0.569322931 L11.570165,0.650291511 L11.4482224,0.755682417 L11.3479658,0.881915084 L11.2728747,1.02453053 L11.2255503,1.17859712 L11.2076473,1.33877781 L11.219774,1.49953269 L11.2615251,1.65518695 L11.3314478,1.80043728 L11.4270766,1.93018289 L11.5451685,2.03989753 L11.6815348,2.12579793 L11.8315143,2.18491144 L11.989837,2.21514382 L12.1509972,2.21551566 L12.2829386,2.19301878 L12.3925182,2.16548873 L12.5947876,2.11765756 L12.7983744,2.07239347 L13.0055082,2.02942649 L13.2082504,1.99020888 L13.414033,1.95332211 L13.6204573,1.91920512 L13.8250574,1.88822957 L14.0326303,1.85968621 L14.2381763,1.83425058 L14.4466274,1.81131458 L14.6553487,1.79118225 L14.8644415,1.77392106 L15.073906,1.75939592 L15.2811072,1.74787733 L15.4908756,1.7390609 L15.7007124,1.73304833 L15.9081148,1.72990688 L16.1180872,1.72953504 L16.327923,1.73200095 L16.5352596,1.73727053 L16.7422919,1.74527618 L16.9541201,1.75635565 L17.1606127,1.76996865 L17.369435,1.78658803 L17.577818,1.80601109 L17.7858309,1.82830528 L17.991004,1.8530991 L18.1973618,1.88089947 L18.4040551,1.91163842 L18.6117636,1.94551882 L18.8169038,1.9818653 L19.0186006,2.02050854 L19.07089,2.03125024 L19.231105,2.04891683 L19.3918249,2.03655373 L19.5474463,1.99456616 L19.6925611,1.92444063 L19.822138,1.82857542 L19.9316841,1.71034857 L20.017415,1.57381332 L20.076292,1.42376625 L20.1062884,1.26540966 L20.1064613,1.10421566 L20.0766345,0.94582534 L20.0179615,0.795710813 L19.9323983,0.659107941 L19.8230218,0.540712121 L19.6935451,0.444711836 L19.5484978,0.374383609 L19.4199015,0.337328036 L19.3629165,0.325606578 L19.3570051,0.324390746 L19.3510937,0.323242363 L19.134838,0.281829163 L19.1289612,0.28071537 L19.1230498,0.279667298 L18.9061871,0.241226576 L18.9003103,0.240180233 L18.8943989,0.239234201 L18.676962,0.203799855 L18.6710852,0.202853823 L18.6652083,0.201975241 L18.4472647,0.16954727 L18.4413862,0.168668688 L18.4354765,0.167857556 L18.217059,0.13843596 L18.2112167,0.137624829 L18.2053053,0.136915737 L17.9864831,0.110466792 L17.9806063,0.1097577 L17.9747278,0.109148919 L17.7555008,0.0856722787 L17.7496586,0.0850306373 L17.7437801,0.0844910358 L17.5242159,0.0640209438 L17.5183391,0.0634813424 L17.5124951,0.0630091911 L17.2926266,0.0455115767 L17.2867826,0.0450394254 L17.2809387,0.0446675847 L17.0608003,0.0301426208 L17.0549564,0.02977078 L17.0491124,0.0294663895 L16.8288045,0.0179139031 L16.8229606,0.0176095126 L16.8171166,0.017407162 L16.5966064,0.00886105123 L16.5907971,0.00862411086 L16.5849531,0.00848575151 L16.3643409,0.00291229124 L16.3584987,0.00273934206 L16.3526876,0.00267016239 L16.1320079,6.9179672e-05 L16.1261656,0 L16.1202819,2.85366147e-05 Z M24.8350977,2.7832267 L24.6775168,2.81717473 L24.5289898,2.87980135 L24.3946843,2.96887693 L24.2792269,3.08136134 L24.1866386,3.21330272 L24.1201621,3.36014055 L24.0820925,3.51677457 L24.0737495,3.67773214 L24.095401,3.83743981 L24.1463397,3.99039175 L24.2247756,4.13118327 L24.3279709,4.25501748 L24.429883,4.34176239 L24.4819701,4.3795274 L24.4830769,4.38033853 L24.5698231,4.44438369 L24.570878,4.44516023 L24.6522178,4.50623291 L24.653636,4.50731384 L24.7302801,4.56585316 L24.7314562,4.5667646 L24.8147883,4.63148547 L24.8974805,4.69681426 L24.8990024,4.69803009 L24.9776735,4.76126464 L24.9798354,4.76302111 L25.0568514,4.82601923 L25.1379888,4.89347615 L25.1399483,4.89509669 L25.2165596,4.95988501 L25.2925967,5.02524769 L25.2942224,5.02666587 L25.3736044,5.09608197 L25.4524104,5.16617377 L25.4541053,5.167694 L25.528655,5.23518465 L25.6063473,5.30666126 L25.6080768,5.30824893 L25.6813104,5.37678679 L25.7578196,5.44961465 L25.8297025,5.51919972 L25.8316274,5.52109126 L25.9089478,5.59726327 L25.9094839,5.59780287 L25.9782935,5.66671222 L25.9797463,5.66819786 L26.053893,5.74376177 L26.1246604,5.81706248 L26.1255424,5.81797392 L26.2004312,5.89694943 L26.2020915,5.89870608 L26.2709339,5.97258098 L26.3399787,6.04790847 L26.3406878,6.04868501 L26.413617,6.12968732 L26.483945,6.20916975 L26.4855707,6.21099384 L26.5540085,6.28976666 L26.5549597,6.29084759 L26.6216056,6.36887742 L26.6901437,6.45052154 L26.7548301,6.52888931 L26.7564904,6.53094982 L26.8237452,6.61394502 L26.8907959,6.69812267 L26.9540987,6.77906745 L26.9552748,6.78061061 L27.0223946,6.86799734 L27.0238474,6.86988888 L27.0870136,6.95369504 L27.0883626,6.95548524 L27.1522379,7.04179085 L27.1600743,7.05239765 L27.1682496,7.06273396 L27.2630344,7.18288643 L27.3556227,7.30297127 L27.4451706,7.42170486 L27.5327261,7.54050607 L27.6211948,7.66322579 L27.7073304,7.78553995 L27.7907646,7.90673945 L27.8723084,8.02783777 L27.8734153,8.02952749 L27.9566817,8.15616555 L28.0376495,8.28222924 L28.1173341,8.40927252 L28.1943519,8.53496472 L28.2727861,8.66609531 L28.3471352,8.79347653 L28.4215154,8.92406665 L28.4945467,9.05546756 L28.5649422,9.18531452 L28.6353048,9.31830292 L28.7035385,9.45078476 L28.7490725,9.54144801 L28.8345336,9.67815206 L28.9438427,9.79658177 L29.0732502,9.89268341 L29.2182646,9.96307908 L29.373784,10.0053705 L29.5344711,10.0180378 L29.6947189,10.0006753 L29.848955,9.95389116 L29.9918404,9.8792731 L30.1183769,9.77942193 L30.224208,9.65785076 L30.305648,9.51874843 L30.3598313,9.36694488 L30.3848951,9.20771005 L30.3799971,9.0466174 L30.3452724,8.8892065 L30.2946363,8.76530467 L30.246975,8.67041904 L30.244948,8.66639935 L30.2428865,8.66234594 L30.1702288,8.52138562 L30.1681673,8.51736576 L30.16604,8.51334607 L30.0919278,8.37316264 L30.0898005,8.36914295 L30.0876387,8.36515699 L30.0120408,8.22575061 L30.009879,8.22176465 L30.0076497,8.21777869 L29.9305991,8.07914903 L29.9284026,8.07519697 L29.9261404,8.07121101 L29.8476371,7.93342585 L29.8453749,7.92947379 L29.8430781,7.92552156 L29.7630891,7.78854719 L29.7607906,7.78459496 L29.758461,7.78067662 L29.6770193,7.64458049 L29.6746879,7.64062825 L29.6722908,7.63674382 L29.5894291,7.50149202 L29.5870321,7.49757369 L29.5845987,7.49368907 L29.5003205,7.35931569 L29.4978543,7.35539735 L29.495388,7.35154647 L29.4096571,7.21808504 L29.407158,7.21420061 L29.4046243,7.21034972 L29.3175081,7.07776653 L29.3149744,7.07391582 L29.3123732,7.07006493 L29.2238042,6.9384615 L29.2212376,6.93461062 L29.2186019,6.93079363 L29.1286147,6.80010216 L29.1259807,6.796285 L29.1233121,6.79250173 L29.0319396,6.66275612 L29.029271,6.65897286 L29.0265349,6.6551896 L28.9337425,6.5264573 L28.931041,6.52264031 L28.9282704,6.51889077 L28.8340615,6.39113805 L28.8312908,6.38738851 L28.8284873,6.38363915 L28.732926,6.25689974 L28.7300879,6.25315038 L28.7272169,6.24943456 L28.630272,6.12374236 L28.6273993,6.119993 L28.6244609,6.11631108 L28.5343717,6.00210375 L28.4737392,5.92018931 L28.4714753,5.91714921 L28.4692131,5.91410911 L28.4001009,5.8225 L28.397837,5.8194938 L28.3955402,5.81648742 L28.3257517,5.72565538 L28.323455,5.722649 L28.3211582,5.71967635 L28.2507281,5.62962119 L28.2483985,5.62664872 L28.2460343,5.62370979 L28.1749625,5.5343978 L28.1725983,5.53142532 L28.1702324,5.52852029 L28.0984861,5.43998519 L28.0961219,5.43704643 L28.0937231,5.43414141 L28.0213007,5.34638319 L28.0189019,5.34347816 L28.0165048,5.34060686 L27.9434407,5.2535918 L27.9410419,5.25072067 L27.9386102,5.24784937 L27.8649027,5.1616112 L27.862471,5.1587738 L27.8600048,5.15593639 L27.785692,5.07047511 L27.7832257,5.06763771 L27.7807595,5.06486775 L27.7058033,4.98014981 L27.7033042,4.97734613 L27.7008051,4.97457618 L27.6252401,4.89063512 L27.622741,4.88786516 L27.6202073,4.88509521 L27.5440024,4.80193104 L27.5415016,4.79919498 L27.5389679,4.79645876 L27.4621542,4.71403775 L27.4596223,4.71133542 L27.457054,4.70863309 L27.3796333,4.62698879 L27.377065,4.62428664 L27.3744984,4.62161803 L27.2964689,4.5407508 L27.2939006,4.53808219 L27.2912995,4.53544749 L27.2126958,4.45532324 L27.2100946,4.45268854 L27.2074935,4.45008755 L27.1282828,4.37070665 L27.125647,4.36810566 L27.1230459,4.36553841 L27.0432263,4.28693439 L27.0406252,4.28436713 L27.0379566,4.28179987 L26.9575957,4.20397274 L26.9549617,4.20140548 L26.9522931,4.19887212 L26.8713235,4.12182188 L26.8686895,4.11928852 L26.8660209,4.11678871 L26.7844771,4.04048181 L26.7818085,4.0380159 L26.779107,4.03551626 L26.6970236,3.95998607 L26.694355,3.95752016 L26.6916535,3.95508815 L26.6089959,3.88030112 L26.6062927,3.87786893 L26.6035913,3.87543692 L26.5203595,3.80142678 L26.5176563,3.79902849 L26.5149202,3.79663021 L26.4311817,3.72339695 L26.4284456,3.72099867 L26.4257096,3.71866783 L26.3414314,3.64617791 L26.3386954,3.64381335 L26.3359247,3.64148251 L26.2511053,3.56976948 L26.2483346,3.56743865 L26.2455657,3.56514171 L26.1602395,3.49417167 L26.1574689,3.49187473 L26.1546653,3.48961151 L26.0687995,3.41941853 L26.0660289,3.41715532 L26.0632254,3.41489211 L25.9768182,3.34547601 L25.9740493,3.3432128 L25.9712458,3.34101721 L25.8843319,3.27234411 L25.8815284,3.27011479 L25.8787249,3.26795293 L25.7913043,3.20002299 L25.7885008,3.19786112 L25.7856627,3.19569926 L25.6977353,3.12854638 L25.6949318,3.12638451 L25.6920937,3.12425637 L25.6036614,3.05788038 L25.6008233,3.05575241 L25.5979852,3.053658 L25.5090789,2.98802517 L25.5062408,2.98593093 L25.5033699,2.98387041 L25.4456083,2.94191657 L25.3068771,2.85983333 L25.1553442,2.80490848 L24.9962448,2.77906745 L24.8350977,2.7832267 Z M6.37652141,3.20924931 L6.21961724,3.24616981 L6.07230657,3.31159994 L5.96100426,3.38591413 L5.95374178,3.39162283 L5.95097182,3.3937508 L5.94826949,3.39594656 L5.86209895,3.46478846 L5.85936289,3.46698405 L5.85666056,3.46917964 L5.77099658,3.53876471 L5.76829425,3.5409603 L5.76559192,3.54318979 L5.68046858,3.61351801 L5.67776625,3.61574733 L5.67506392,3.61801054 L5.59048088,3.68904803 L5.58777854,3.69131125 L5.58507621,3.69360836 L5.50103381,3.76535512 L5.4983652,3.76765205 L5.4956966,3.76994916 L5.41219466,3.84243908 L5.40949233,3.84476992 L5.40685745,3.84710076 L5.32389597,3.92030011 L5.32122737,3.92266467 L5.31859266,3.92502906 L5.23617148,3.99897158 L5.23353677,4.00133614 L5.23090206,4.0037346 L5.14905507,4.07838639 L5.14642037,4.08078467 L5.14378566,4.08321686 L5.06251303,4.1586118 L5.05987815,4.16104399 L5.05727717,4.163476 L4.97657891,4.23958038 L4.97397793,4.24204629 L4.97137694,4.24454593 L4.8912527,4.32135975 L4.88865172,4.32385938 L4.88608464,4.32635902 L4.80653476,4.403916 L4.80393377,4.40641564 L4.80140024,4.40898289 L4.72242456,4.48724914 L4.71985747,4.4897825 L4.71732394,4.49234976 L4.63895634,4.57132545 L4.63638926,4.57392643 L4.63385572,4.57649351 L4.55609622,4.65621236 L4.55356268,4.65881335 L4.55106305,4.66144805 L4.47387773,4.74187617 L4.4713781,4.74451105 L4.46887846,4.74714576 L4.39233496,4.82831703 L4.38980143,4.83098564 L4.38733552,4.83365407 L4.31140011,4.91553478 L4.30890047,4.91820339 L4.30643456,4.92090572 L4.23114096,5.0034957 L4.22867506,5.00623176 L4.22620915,5.00896781 L4.15155719,5.09226723 L4.14909128,5.09500328 L4.14665927,5.09777324 L4.0726154,5.18181564 L4.07018322,5.1845856 L4.0677512,5.18735555 L3.99434915,5.2721074 L3.99195087,5.27491107 L3.98955241,5.27771458 L3.91679217,5.36320959 L3.91439388,5.36601327 L3.91199559,5.36885084 L3.8399109,5.45505511 L3.83751261,5.45789252 L3.83514805,5.46076382 L3.76370516,5.54767753 L3.7613406,5.55054883 L3.75900994,5.55345368 L3.68820887,5.64107683 L3.68587803,5.64398186 L3.68354737,5.64688688 L3.61342184,5.73525302 L3.6111249,5.73819177 L3.60882779,5.7411307 L3.53937797,5.83020627 L3.53708103,5.83314502 L3.53478392,5.8361175 L3.46600964,5.92590251 L3.46374643,5.92887516 L3.46148322,5.93188136 L3.39338448,6.02237581 L3.39115516,6.02538201 L3.38892567,6.02838839 L3.32150247,6.11962583 L3.31927316,6.12266593 L3.3170774,6.1256723 L3.25036363,6.2176529 L3.24816804,6.220693 L3.24597228,6.2237331 L3.17996796,6.31642314 L3.17777219,6.31949697 L3.17561033,6.32257097 L3.11031527,6.41597027 L3.1081534,6.41904409 L3.10602544,6.42215182 L3.04140592,6.51626056 L3.03927778,6.51936811 L3.03718353,6.52250956 L2.97330718,6.61732774 L2.97117904,6.62046918 L2.96911852,6.62361063 L2.9059516,6.7191718 L2.90385718,6.72231325 L2.90179667,6.72548842 L2.83937291,6.82175903 L2.83731239,6.8249342 L2.8352856,6.82810955 L2.78907583,6.90076844 L2.73817066,6.97008318 L2.73594117,6.97312329 L2.73371168,6.97619728 L2.66662643,7.06925882 L2.66439694,7.07233264 L2.66223507,7.07540647 L2.59606178,7.16887339 L2.59386619,7.17198112 L2.59173805,7.17505494 L2.52647671,7.26896099 L2.52434875,7.27206871 L2.52222061,7.27517643 L2.45790513,7.3694877 L2.45577699,7.37259542 L2.45368275,7.37570314 L2.39031313,7.4704198 L2.38821872,7.47356125 L2.3861582,7.4767027 L2.32370054,7.57179102 L2.32164003,7.57493247 L2.31961324,7.57810765 L2.25806771,7.67360136 L2.25604092,7.67674281 L2.25404803,7.67991798 L2.19344819,7.7757832 L2.19142157,7.77895837 L2.18946223,7.78213372 L2.12977453,7.87840415 L2.12781536,7.8815795 L2.12585619,7.88478839 L2.06708045,7.98143049 L2.06515501,7.98460584 L2.06322974,7.98781474 L2.00539986,8.08482851 L2.00347441,8.08803758 L2.0015827,8.09124648 L1.94466495,8.18863174 L1.94277323,8.19184081 L1.94091541,8.19504988 L1.88490962,8.29280664 L1.8830518,8.29601571 L1.88122771,8.29925851 L1.82613388,8.39735304 L1.82430979,8.40056211 L1.82251959,8.40383863 L1.768304,8.5022711 L1.7665138,8.5055139 L1.76475716,8.50875669 L1.7114876,8.60756066 L1.70973095,8.61080346 L1.70800838,8.61404625 L1.65561706,8.71318799 L1.65389448,8.71643078 L1.65217191,8.71970731 L1.60069238,8.81918698 L1.59900266,8.82242978 L1.59734754,8.8257063 L1.54674624,8.92548985 L1.54509112,8.92876637 L1.54347058,8.93207679 L1.49378142,9.03216439 L1.49216089,9.03544091 L1.49054035,9.03875133 L1.44176332,9.13917669 L1.44017565,9.14245321 L1.43858798,9.14576363 L1.39068918,9.24649304 L1.38913437,9.24980329 L1.38761414,9.25311371 L1.34059359,9.35414716 L1.33907336,9.35745741 L1.33755314,9.36076783 L1.32539274,9.38752082 L1.27259585,9.53979721 L1.24901803,9.69926863 L1.25540228,9.86029366 L1.29157979,10.0173666 L1.35630066,10.1650152 L1.44726778,10.2980713 L1.56133987,10.4119408 L1.69459859,10.5026378 L1.84234856,10.5670546 L1.99948915,10.6029281 L2.16054807,10.6090083 L2.31995187,10.5850925 L2.47216064,10.5319918 L2.61187106,10.4515976 L2.73421912,10.3466458 L2.83494852,10.2208522 L2.89963549,10.1036724 L2.91010705,10.0806688 L2.95395243,9.98639125 L2.99945294,9.89066111 L3.00056673,9.88833045 L3.04295952,9.8010788 L3.04339881,9.80016736 L3.09126388,9.70372795 L3.13919657,9.60921382 L3.13994025,9.60776105 L3.18723113,9.51648989 L3.18807512,9.51483476 L3.23519703,9.42572546 L3.28562918,9.33229226 L3.28684501,9.32999533 L3.33602744,9.24075095 L3.38814861,9.14799347 L3.38902719,9.14643865 L3.44020251,9.05722801 L3.44138548,9.05516749 L3.492392,8.96798346 L3.5447835,8.88005645 L3.54603392,8.87799593 L3.60149924,8.78679222 L3.65780907,8.6959939 L3.71506476,8.60546573 L3.7159762,8.60401295 L3.77316427,8.51530887 L3.77346866,8.51483672 L3.82765053,8.43231437 L3.82917075,8.43001726 L3.88899353,8.34063764 L3.94955946,8.25179866 L4.01107143,8.16329728 L4.01208492,8.16184451 L4.07167127,8.07770075 L4.13490581,7.98997626 L4.20016715,7.90113711 L4.2172931,7.87782961 L4.23279782,7.85344101 L4.29285701,7.75906212 L4.35176783,7.66823008 L4.35284876,7.66657496 L4.40959771,7.58074218 L4.46732625,7.49501075 L4.46806993,7.49392982 L4.53015609,7.40346927 L4.59166788,7.31550853 L4.59295117,7.31368443 L4.65351711,7.22876362 L4.65463263,7.22717595 L4.71462437,7.14451834 L4.77826431,7.05841525 L4.84203932,6.97359596 L4.84355955,6.97160289 L4.90507134,6.89130985 L4.97026505,6.80774029 L5.03360095,6.72788636 L5.03461443,6.72663594 L5.10142954,6.64387699 L5.16844735,6.56236795 L5.23806614,6.47913615 L5.23853829,6.47859655 L5.30653568,6.39877653 L5.37027696,6.32517178 L5.37047931,6.32496943 L5.44384764,6.24167001 L5.44431979,6.24113041 L5.51245226,6.16512737 L5.51410738,6.16330328 L5.58348958,6.08726652 L5.58450306,6.08615272 L5.65341241,6.01187226 L5.72576743,5.93519369 L5.72701785,5.93384295 L5.79410328,5.86392029 L5.79474493,5.86327865 L5.87024122,5.78585674 L5.87186175,5.78420162 L5.9424264,5.7130965 L6.01717971,5.63898518 L6.01893618,5.63726261 L6.09054786,5.56750857 L6.16644972,5.49474833 L6.16830754,5.49295814 L6.24106778,5.42438638 L6.31457119,5.35618629 L6.31612427,5.35476811 L6.39594447,5.28197415 L6.39641662,5.28153486 L6.47225086,5.21353746 L6.47353414,5.21238908 L6.54582153,5.14858035 L6.54690247,5.14763431 L6.62398643,5.08071785 L6.62439114,5.0803806 L6.70265738,5.01349787 L6.7045152,5.01194479 L6.78517991,4.94421754 L6.78724043,4.94249497 L6.86398663,4.87912535 L6.9457321,4.81271563 L6.94718487,4.81153266 L7.02244491,4.75140567 L7.02406545,4.75012238 L7.02970653,4.74569731 L7.1465823,4.63469904 L7.24085984,4.50397367 L7.3092289,4.35801408 L7.34932475,4.20188697 L7.35972868,4.04103075 L7.34010292,3.88105276 L7.29115709,3.72745901 L7.21454597,3.58565417 L7.11293832,3.46053616 L6.98988083,3.35642889 L6.84962994,3.27698036 L6.69708341,3.2249268 L6.53754453,3.20209198 L6.37652141,3.20924931 Z M30.972969,14.2966428 L30.8167405,14.3363671 L30.6706123,14.4043645 L30.53965,14.4983043 L30.4283814,14.6149436 L30.340691,14.7501953 L30.2796174,14.899364 L30.2472915,15.0572476 L30.2431373,15.1910468 L30.2497232,15.3326152 L30.2551278,15.4850604 L30.2588099,15.634398 L30.2609043,15.783668 L30.2613367,15.9366537 L30.2624436,15.9482737 L30.2618037,15.963069 L30.2655203,16.0725472 L30.2682564,16.1835116 L30.2682564,16.1851668 L30.2699167,16.2907603 L30.2699167,16.2921453 L30.2706604,16.3938881 L30.2704874,16.5044134 L30.2704874,16.5055957 L30.2693806,16.6111217 L30.2693806,16.6120337 L30.2674539,16.713844 L30.2645155,16.8204847 L30.2606985,16.9265174 L30.2559355,17.0324488 L30.250261,17.1384815 L30.2436734,17.2442441 L30.2361415,17.3497363 L30.2359685,17.3518306 L30.2277258,17.4550935 L30.2275528,17.4567486 L30.218703,17.5567349 L30.2085353,17.6620581 L30.1974562,17.7670776 L30.1854968,17.8716916 L30.1733367,17.9707996 L30.1730946,17.9726574 L30.1589076,18.0805479 L30.1587346,18.0817638 L30.1447499,18.1812435 L30.129245,18.2856546 L30.112929,18.389154 L30.1126004,18.3913496 L30.0961841,18.4899847 L30.0780452,18.593788 L30.0591626,18.6967468 L30.0587475,18.6989087 L30.0399998,18.796429 L30.0192597,18.8997255 L29.9976411,19.0028195 L29.9973298,19.0043397 L29.9760155,19.1019277 L29.9527089,19.2046839 L29.9522419,19.2067781 L29.9294749,19.3033528 L29.9044111,19.4058387 L29.9038404,19.4082032 L29.8795531,19.5042035 L29.8528342,19.6061826 L29.8521943,19.6086486 L29.8270285,19.7016762 L29.8266134,19.7030615 L29.7980041,19.8055813 L29.797295,19.8080472 L29.7687861,19.9069525 L29.7686131,19.9073572 L29.7398327,20.0042359 L29.7391928,20.0063978 L29.7101096,20.1014185 L29.6800459,20.1970471 L29.6796135,20.1983978 L29.6471181,20.2988569 L29.615771,20.3932697 L29.6150619,20.3953302 L29.5809788,20.4952826 L29.5802006,20.497512 L29.5469269,20.5924651 L29.5460794,20.5948636 L29.5115916,20.6907625 L29.5111593,20.6919783 L29.4778856,20.7823713 L29.4772802,20.7839589 L29.4404265,20.8817155 L29.4043839,20.9751489 L29.403744,20.976804 L29.3660134,21.0722976 L29.2869704,21.2655819 L29.2064072,21.4542384 L29.1223297,21.6428611 L29.0345044,21.8320919 L28.9453283,22.0167286 L28.8532122,22.2003181 L28.7578203,22.3835362 L28.7074886,22.476699 L28.6444573,22.6250571 L28.6100352,22.7825016 L28.6054417,22.9436281 L28.6308099,23.1027953 L28.6852958,23.2544975 L28.7670074,23.3934648 L28.8730408,23.5148332 L28.9997797,23.6144141 L29.1428,23.688762 L29.2971381,23.7352421 L29.4574188,23.7523006 L29.618073,23.7393294 L29.7735578,23.6967339 L29.9184027,23.6260342 L30.0476078,23.5296962 L30.1567146,23.41103 L30.2292391,23.2985452 L30.2823397,23.2002818 L30.285413,23.1945393 L30.2884205,23.1887971 L30.3898258,22.9940603 L30.3928646,22.9882841 L30.3957701,22.9824403 L30.494237,22.7861833 L30.4972083,22.780306 L30.5000464,22.7743946 L30.5955402,22.5766516 L30.5984112,22.5707064 L30.6012147,22.5646937 L30.6936681,22.3654981 L30.6964717,22.3594516 L30.6991748,22.3533714 L30.7885878,22.1527234 L30.7912893,22.1466093 L30.7939251,22.1404613 L30.8802302,21.9383947 L30.8828988,21.9321793 L30.8854325,21.925964 L30.9686297,21.7225123 L30.9705217,21.7178167 L30.9724138,21.7130878 L31.012813,21.6108383 L31.0140582,21.6076969 L31.0152689,21.6045215 L31.0548915,21.5019343 L31.0561022,21.4987591 L31.0573128,21.49555 L31.0961243,21.3926588 L31.0973004,21.3894499 L31.0984765,21.3862408 L31.1365114,21.2830118 L31.1376875,21.279769 L31.138829,21.2765601 L31.17602,21.1729933 L31.177196,21.1697505 L31.1783029,21.1665077 L31.2146827,21.0626031 L31.2158242,21.0593603 L31.2169311,21.0560836 L31.2524998,20.951875 L31.2536067,20.9485983 L31.254679,20.9453217 L31.2894366,20.8407753 L31.2905088,20.8374987 L31.2915811,20.8341884 L31.3254965,20.729338 L31.3265688,20.7260275 L31.3276237,20.7227171 L31.3606934,20.6175289 L31.3617483,20.6142187 L31.3627687,20.6108747 L31.3950272,20.505416 L31.3960476,20.502072 L31.397068,20.498694 L31.4284825,20.3929316 L31.4294683,20.3895537 L31.4304541,20.3862096 L31.4610246,20.2801094 L31.4620104,20.2767313 L31.4629617,20.2733535 L31.4926536,20.166983 L31.4936048,20.1635714 L31.494556,20.1601596 L31.5234022,20.0534851 L31.5243188,20.0500735 L31.5252355,20.0466617 L31.5532377,19.9396831 L31.5541197,19.9362715 L31.5550018,19.9328261 L31.58216,19.8255773 L31.5830074,19.8221318 L31.5838549,19.8186863 L31.6101345,19.7111336 L31.610982,19.7076881 L31.6117948,19.7042089 L31.6371976,19.5963858 L31.638045,19.5929065 L31.6388233,19.5894273 L31.6633475,19.4813341 L31.6641604,19.4778211 L31.664904,19.474308 L31.6885497,19.3659446 L31.6893279,19.3624315 L31.6900716,19.3589186 L31.7128041,19.2502849 L31.7135477,19.246738 L31.7142568,19.2432249 L31.736147,19.1342872 L31.7368561,19.1307742 L31.7375306,19.1272274 L31.7585076,19.0180195 L31.7591821,19.0144727 L31.759822,19.0109258 L31.7798876,18.9014815 L31.7805621,18.8979009 L31.7811674,18.8943202 L31.8003527,18.7846394 L31.800958,18.7810589 L31.8015633,18.7774444 L31.8198371,18.6674934 L31.8204078,18.6639128 L31.8209786,18.6602983 L31.8383409,18.5501108 L31.8389117,18.5464966 L31.8394478,18.5428821 L31.8558642,18.4324243 L31.8564003,18.4287763 L31.8569018,18.4251618 L31.8724067,18.3144676 L31.8729083,18.3108194 L31.8734098,18.3071714 L31.8879687,18.1962406 L31.8884357,18.1925926 L31.8889026,18.1889444 L31.9025501,18.0777771 L31.9029824,18.0740952 L31.9034148,18.0704472 L31.9161162,17.9590098 L31.9165486,17.9553616 L31.9169118,17.9516797 L31.9287,17.8400396 L31.9290805,17.8363577 L31.9294437,17.8326758 L31.9402876,17.7207993 L31.9406162,17.7170835 L31.9409621,17.7134016 L31.9508599,17.6012886 L31.9511713,17.5976067 L31.9514653,17.5938911 L31.9604171,17.4815755 L31.9606938,17.4778597 L31.9609706,17.474144 L31.9689418,17.361592 L31.9692185,17.3578762 L31.9694606,17.3541605 L31.9764858,17.2414058 L31.976728,17.2376562 L31.9769355,17.2339406 L31.9829818,17.1209493 L31.9831893,17.1172336 L31.9833623,17.1134841 L31.9884297,17.000324 L31.9886026,16.9965745 L31.9887756,16.992825 L31.992897,16.8794284 L31.9930699,16.875679 L31.9932429,16.8719295 L31.9963508,16.7583302 L31.9965237,16.7545808 L31.9965237,16.7508313 L31.9986856,16.6370294 L31.9986856,16.6332799 L31.9986856,16.6294966 L31.9998271,16.5155258 L31.9998271,16.5117426 L31.9998271,16.5079931 L32,16.3938196 L32,16.3900363 L32,16.3862531 L31.9991525,16.2719107 L31.9991525,16.2681274 L31.9991525,16.2643441 L31.9972951,16.1497991 L31.9972951,16.1460158 L31.9972951,16.1422326 L31.9944241,16.0274849 L31.9944241,16.0237016 L31.9942512,16.0199183 L31.9908389,15.9179053 L31.9904065,15.7726888 L31.9904065,15.7679597 L31.9904065,15.7632644 L31.9882101,15.6045363 L31.9882101,15.5998748 L31.9880371,15.5951795 L31.9840852,15.4365188 L31.9839123,15.4318235 L31.9837393,15.427162 L31.9780994,15.268569 L31.9779265,15.2639075 L31.977719,15.2592459 L31.9708269,15.1108542 L31.9483643,14.9512478 L31.8967165,14.7985661 L31.8175715,14.6581462 L31.713802,14.5348186 L31.5889206,14.4329407 L31.4472856,14.355958 L31.293826,14.3066405 L31.1338826,14.2866095 L30.972969,14.2966428 Z M0.75999679,14.9570925 L0.602518433,14.9914459 L0.454160551,15.0544102 L0.320023589,15.1438236 L0.204836668,15.2565783 L0.112585921,15.3887223 L0.0464463497,15.5357291 L0.00874878992,15.6924305 L1.96620454e-15,15.8259932 L0.00135125194,15.9365524 L0.00141870212,15.9427339 L0.00158819232,15.9489155 L0.00739819519,16.1686826 L0.00756768538,16.1748304 L0.00780410691,16.1809782 L0.0167556452,16.4007115 L0.0169925855,16.4068255 L0.0173298364,16.4129395 L0.0293890639,16.6325715 L0.0297263148,16.6386517 L0.0301310159,16.644732 L0.0452977942,16.8642288 L0.0457024953,16.8702752 L0.0462092364,16.8763555 L0.0644498405,17.0956496 L0.0649565816,17.1016961 L0.0655307729,17.1077088 L0.0868455487,17.3268003 L0.0874543298,17.3327792 L0.0880959712,17.338758 L0.112484573,17.5576131 L0.113126214,17.5635582 L0.113869896,17.5695034 L0.141298425,17.7880544 L0.142042106,17.7939658 L0.142853238,17.7999109 L0.173288143,18.0180903 L0.174132135,18.023968 L0.175010717,18.0298792 L0.208451997,18.2476533 L0.20936344,18.2535308 L0.210342332,18.2593746 L0.246789988,18.4767434 L0.24776888,18.4825872 L0.248815223,18.4883972 L0.288269255,18.7052931 L0.289317327,18.711103 L0.290431119,18.7169131 L0.332823903,18.9332685 L0.333972286,18.9390447 L0.335188119,18.944821 L0.380519655,19.1606358 L0.381735488,19.1663782 L0.383018771,19.1721207 L0.43128906,19.3873276 L0.432572343,19.3930702 L0.433957666,19.3987787 L0.485166707,19.6133438 L0.486517441,19.6190525 L0.487935624,19.6247275 L0.542049866,19.8386168 L0.543502639,19.8442581 L0.545022862,19.8499329 L0.602008233,20.0630793 L0.603528457,20.0687204 L0.60511613,20.0743614 L0.665006529,20.2867309 L0.666594202,20.292372 L0.668249326,20.2979456 L0.731011027,20.5095381 L0.73266615,20.5151117 L0.734388724,20.5206852 L0.799987829,20.7314332 L0.801710403,20.736973 L0.803534498,20.7425129 L0.871971007,20.9523488 L0.873761377,20.9578886 L0.875652922,20.9633946 L0.946926836,21.1723186 L0.948784829,21.1778246 L0.950743997,21.1832967 L1.02482159,21.3912411 L1.02674703,21.3967134 L1.02877382,21.4021518 L1.1056551,21.6090827 L1.10768189,21.6145213 L1.10977613,21.6199597 L1.18942736,21.8258097 L1.1915216,21.8312482 L1.19368346,21.8366529 L1.27607074,22.0413882 L1.27826651,22.0467929 L1.28049582,22.0521638 L1.36565306,22.2557843 L1.36791627,22.2611553 L1.37024711,22.2665262 L1.4581065,22.4689307 L1.46043734,22.4742677 L1.46283562,22.4796049 L1.55343125,22.6807934 L1.55582971,22.6861305 L1.55829544,22.691434 L1.6515934,22.8913388 L1.6540932,22.8966421 L1.65662656,22.9019455 L1.75262685,23.100533 L1.75519411,23.1058026 L1.75782881,23.1110721 L1.78880436,23.1730231 L1.87402904,23.3098624 L1.98316949,23.4284609 L2.11244226,23.5247652 L2.25732092,23.5953973 L2.41280638,23.6379253 L2.57345991,23.6508628 L2.73374195,23.6337367 L2.88804496,23.587189 L3.03103208,23.5128073 L3.15773759,23.4131588 L3.26377031,23.2917566 L3.3453807,23.1527555 L3.39983271,23.0010535 L3.42513328,22.8418524 L3.42047178,22.6807258 L3.38601701,22.5232814 L3.33558469,22.3993119 L3.30771704,22.3436102 L3.21617556,22.154278 L3.12855241,21.9664998 L3.0420441,21.7743979 L2.9593865,21.5840862 L2.87841792,21.3905318 L2.80059079,21.1970787 L2.72479045,21.0011935 L2.65216528,20.8056798 L2.58217482,20.6091528 L2.51458282,20.4110719 L2.44969316,20.2121129 L2.3872355,20.0114647 L2.32815571,19.812303 L2.27160946,19.6118237 L2.21715762,19.4083044 L2.16611721,19.2065417 L2.11798199,19.0047789 L2.07190729,18.7995707 L2.02873745,18.5939571 L1.98891192,18.3907079 L1.95138333,18.1842837 L1.91702992,17.9795484 L1.88531138,17.7729213 L1.85673413,17.5680847 L1.8307243,17.3607483 L1.80765305,17.1533106 L1.78745311,16.9458054 L1.77022581,16.7385028 L1.75590337,16.5309976 L1.74451986,16.3235937 L1.73610882,16.1162574 L1.73063671,15.9091913 L1.72935342,15.8049826 L1.71239627,15.6447006 L1.66598381,15.4903637 L1.59170334,15.3472753 L1.49219011,15.2205022 L1.37085537,15.1143682 L1.23195556,15.0326227 L1.08028726,14.9780694 L0.921120051,14.9525999 L0.75999679,14.9570925 Z M25.3452978,26.7863436 L25.1890347,26.8257637 L25.0427716,26.8935247 L24.9326514,26.9696291 L24.9179231,26.9815869 L24.7547369,27.1105219 L24.5894545,27.2375315 L24.4212009,27.3632237 L24.251325,27.4866525 L24.0814509,27.6066023 L23.9094477,27.7245929 L23.7364986,27.8399149 L23.5603394,27.9539193 L23.3827967,28.0654918 L23.2037667,28.1745985 L23.0252105,28.2801245 L22.8434461,28.3842657 L22.6614776,28.4852989 L22.4772123,28.5843056 L22.2926756,28.6802722 L22.1041886,28.7749888 L21.9184378,28.8651792 L21.7297139,28.9536467 L21.5390634,29.0397835 L21.3492257,29.1224411 L21.1567177,29.2030718 L20.9621499,29.2814056 L20.7708594,29.3552807 L20.5738253,29.4282436 L20.3789531,29.4972881 L20.1833389,29.5634615 L19.9849195,29.6274391 L19.7873113,29.6880389 L19.5877781,29.7461391 L19.3877035,29.801199 L19.1864478,29.8534553 L18.9874888,29.9020298 L18.8357535,29.936721 L18.6826658,29.9871194 L18.5415704,30.0650479 L18.4173981,30.1678378 L18.3144397,30.2918747 L18.2363082,30.432835 L18.1857067,30.5858883 L18.1643596,30.7456299 L18.1730399,30.9065875 L18.2114468,31.0631539 L18.2782622,31.2098229 L18.3711221,31.3415953 L18.4868147,31.4538096 L18.6213242,31.5426148 L18.7699515,31.6049374 L18.9275982,31.6385814 L19.0887591,31.6423646 L19.2211396,31.6227052 L19.3785165,31.5867303 L19.3847323,31.5853122 L19.3909135,31.5838265 L19.6042619,31.5317391 L19.6104448,31.5302189 L19.6165585,31.5286312 L19.8291632,31.4734023 L19.8352441,31.4718492 L19.841325,31.4701595 L20.0531203,31.4118568 L20.0591666,31.410167 L20.0651783,31.4084445 L20.2761625,31.347034 L20.2821414,31.3452775 L20.2881219,31.3434535 L20.4982275,31.2790366 L20.5041389,31.2772125 L20.5100503,31.2752871 L20.7192773,31.2078302 L20.7251559,31.2059386 L20.7309998,31.2039456 L20.9392479,31.1334823 L20.9450919,31.1315231 L20.9508684,31.1294626 L21.1581705,31.0560605 L21.163947,31.054 L21.169656,31.0518719 L21.3759446,30.9754973 L21.3816537,30.9734029 L21.387361,30.9712073 L21.5926032,30.8918939 L21.5982448,30.8896983 L21.6038864,30.8874351 L21.8080478,30.8052505 L21.8136202,30.803021 L21.8191943,30.8006902 L22.0222401,30.7156344 L22.0278143,30.7133036 L22.033321,30.7109053 L22.2352184,30.623012 L22.2406905,30.6206137 L22.2461626,30.6181478 L22.4468788,30.5274509 L22.4523163,30.5249849 L22.457721,30.5224514 L22.6572213,30.4289508 L22.6625914,30.4264511 L22.6679632,30.4238501 L22.8661785,30.3275797 L22.8715157,30.3250125 L22.8768183,30.3223439 L23.0737521,30.2233372 L23.0790201,30.2207025 L23.0842899,30.2179664 L23.2798712,30.1162912 L23.2851081,30.1135551 L23.2903087,30.1107514 L23.4845393,30.0064076 L23.489707,30.0036039 L23.4948764,30.0007665 L23.6876871,29.8937204 L23.692822,29.890883 L23.6979222,29.8879441 L23.8893147,29.7782971 L23.8943821,29.7753921 L23.8994478,29.7724196 L24.0893547,29.6601714 L24.0943875,29.6571651 L24.0993874,29.654125 L24.2877741,29.5393097 L24.2927723,29.5362696 L24.2977048,29.5331619 L24.4845712,29.4157794 L24.489502,29.4126718 L24.4943999,29.4094965 L24.6796786,29.2896143 L24.6845437,29.2864391 L24.689407,29.2831963 L24.8730652,29.1608146 L24.8778957,29.1575718 L24.8826916,29.1542951 L25.0646929,29.0294137 L25.0694905,29.0261032 L25.0742535,29.0227591 L25.2545323,28.8954457 L25.2592953,28.8921015 L25.2640238,28.8886898 L25.4425817,28.7589441 L25.4472755,28.7555324 L25.4519382,28.7520532 L25.6287719,28.6199093 L25.6334328,28.6164299 L25.6380264,28.612883 L25.8130371,28.4784083 L25.8176652,28.4748616 L25.8222242,28.4712472 L25.9954103,28.3344418 L25.999971,28.3308273 L26.004497,28.3271454 L26.0230424,28.3121137 L26.1381279,28.1992576 L26.230277,28.0670122 L26.2963142,27.9199717 L26.333877,27.7632365 L26.3417479,27.6022452 L26.3195551,27.4426049 L26.2681425,27.2898218 L26.189269,27.1492669 L26.0856673,27.0257704 L25.9609553,26.923656 L25.8194552,26.846437 L25.6660977,26.7968492 L25.5061872,26.7765816 L25.3452978,26.7863436 Z M6.17479245,26.840863 L6.02194186,26.8920046 L5.88125168,26.9706763 L5.75762,27.0740743 L5.65530309,27.1986179 L5.57788136,27.3399836 L5.52802322,27.4932733 L5.5074855,27.65315 L5.51697747,27.8140399 L5.55619508,27.9704036 L5.62371963,28.1167686 L5.71722028,28.2480343 L5.81227471,28.3422781 L5.85878853,28.3817321 L5.86392304,28.3860896 L5.86912501,28.3903459 L6.03893274,28.5299549 L6.04416843,28.5342449 L6.04943802,28.5384673 L6.22147524,28.675408 L6.22549492,28.678617 L6.22951461,28.6817246 L6.31636069,28.7492154 L6.31906302,28.7513097 L6.32176535,28.7534039 L6.4091858,28.8202192 L6.41188813,28.8222797 L6.41462436,28.8243402 L6.5025851,28.8904798 L6.50532133,28.8925403 L6.50809111,28.8946008 L6.5965925,28.9600647 L6.59936245,28.9620915 L6.60216596,28.9641183 L6.6912078,29.0289066 L6.69401148,29.0309334 L6.69681516,29.0329602 L6.7864312,29.0970392 L6.78923488,29.0990658 L6.79207228,29.1010589 L6.88219506,29.1644285 L6.88506637,29.1664214 L6.88790377,29.1684145 L6.97860074,29.2311086 L6.98147204,29.2330677 L6.98434317,29.2350269 L7.07558061,29.2970117 L7.07845191,29.2989709 L7.08135694,29.30093 L7.17313484,29.3621715 L7.17603987,29.3641307 L7.17897862,29.3660561 L7.2712631,29.4265883 L7.27420202,29.4285138 L7.2771745,29.4304392 L7.36999961,29.490262 L7.37297209,29.4921537 L7.37594474,29.4940453 L7.46931031,29.5531588 L7.47228279,29.5550505 L7.47528917,29.5569083 L7.56919521,29.6152787 L7.57220159,29.6171365 L7.57524169,29.6189943 L7.6696543,29.6766215 L7.6726944,29.6784456 L7.6757345,29.6803036 L7.77068775,29.7371537 L7.77376158,29.7390117 L7.77683557,29.7408019 L7.87229539,29.7969429 L7.87536922,29.7987331 L7.87847694,29.8005235 L7.97447723,29.8559212 L7.97758495,29.8577116 L7.98069268,29.859468 L8.07723343,29.9140888 L8.08034115,29.9158455 L8.0834826,29.917602 L8.18052992,29.9714459 L8.18367137,29.9732024 L8.18684671,29.9749249 L8.28440077,30.027992 L8.28757612,30.0297145 L8.2907513,30.0314042 L8.388846,30.0837281 L8.39202117,30.0854161 L8.39523024,30.0871058 L8.49383151,30.1386191 L8.49704041,30.1403088 L8.50028321,30.1419639 L8.59939121,30.1927003 L8.60260029,30.1943554 L8.60587681,30.1959759 L8.70549156,30.2459353 L8.70873435,30.2475558 L8.71201088,30.2491763 L8.81213237,30.298325 L8.81540889,30.2999456 L8.81871914,30.3015332 L8.9193472,30.3498711 L8.92262389,30.3514588 L8.92593414,30.3530119 L9.02710266,30.4005392 L9.03041308,30.4021269 L9.03375723,30.4036471 L9.13536487,30.4503638 L9.13870902,30.4519169 L9.14208689,30.4534025 L9.24420127,30.4993421 L9.24757914,30.5008278 L9.25095701,30.5023134 L9.35357814,30.5474085 L9.35695601,30.5488941 L9.36036761,30.5503469 L9.4634953,30.5945975 L9.46690707,30.5960831 L9.47031884,30.5975013 L9.5739531,30.6409413 L9.57736487,30.6423595 L9.58081036,30.6437777 L9.68491764,30.6863394 L9.68836313,30.6877576 L9.69180862,30.6891429 L9.79642247,30.7308939 L9.79990186,30.7322447 L9.80334736,30.7335954 L9.90846794,30.7745018 L9.91194716,30.7758526 L9.91542638,30.7771705 L10.02102,30.8171987 L10.0244992,30.8185494 L10.0280123,30.8198327 L10.1341127,30.8590164 L10.1375919,30.8602997 L10.1411385,30.861583 L10.247678,30.8998884 L10.2512249,30.9011389 L10.2547378,30.9023893 L10.3618177,30.9398504 L10.3653308,30.9410663 L10.3689114,30.9422821 L10.4764303,30.978865 L10.4799771,30.980048 L10.4835577,30.9812309 L10.5915835,31.0169354 L10.5951301,31.0181184 L10.5987109,31.0192668 L10.7072093,31.0540593 L10.7107899,31.0552077 L10.7144044,31.0563232 L10.8233758,31.0902373 L10.8269564,31.0913529 L10.8305709,31.0924667 L10.9400152,31.1254688 L10.9436297,31.1265498 L10.947244,31.1276307 L11.0571613,31.1597209 L11.0607756,31.1608018 L11.0644238,31.1618153 L11.1748139,31.1930273 L11.1784621,31.1940736 L11.1821103,31.1950525 L11.2655109,31.2178534 L11.3469862,31.2460251 L11.3505668,31.247241 L11.3541474,31.2484568 L11.462815,31.2849382 L11.4663955,31.286154 L11.4700098,31.287337 L11.5787786,31.3228051 L11.5823931,31.323988 L11.5859736,31.3251018 L11.6948777,31.3595903 L11.698492,31.3607041 L11.7020725,31.3618196 L11.8111116,31.3952946 L11.8147259,31.3964101 L11.8183065,31.3974565 L11.9274806,31.4299184 L11.9310614,31.4309993 L11.9346757,31.4320456 L12.0439175,31.463494 L12.0475318,31.4645421 L12.0511461,31.4655556 L12.1604892,31.4960244 L12.1641037,31.4970379 L12.1677517,31.4980168 L12.2771962,31.5274721 L12.2808105,31.528451 L12.2844249,31.529397 L12.3939706,31.5578729 L12.3975851,31.5588189 L12.4011993,31.5597304 L12.5108464,31.5872265 L12.5144608,31.588138 L12.5180751,31.5890166 L12.6277898,31.6155331 L12.6314379,31.6164117 L12.6350522,31.6172557 L12.6388018,31.6180997 L12.7985096,31.6398197 L12.9595009,31.6315437 L13.1161348,31.5935084 L13.2629726,31.5270648 L13.3949477,31.4345439 L13.507466,31.3191205 L13.5966092,31.1848146 L13.6592696,31.0363215 L13.693285,30.8787757 L13.6974737,30.7176491 L13.6717003,30.5585494 L13.6168092,30.4069824 L13.5347596,30.2682179 L13.4283891,30.1471195 L13.3014133,30.0478764 L13.1581898,29.9739002 L13.0340176,29.9346489 L13.0340868,29.9344119 L13.0305737,29.9335679 L12.9268718,29.9085038 L12.8243183,29.8827641 L12.8219876,29.8821899 L12.7268993,29.8574637 L12.7255486,29.8570919 L12.6246839,29.8299672 L12.6231983,29.8295625 L12.5225702,29.8015596 L12.5210154,29.8011203 L12.4181243,29.771496 L12.3138481,29.7404868 L12.2167669,29.7106937 L12.2145711,29.7099846 L12.1117812,29.6774892 L12.0103762,29.6444194 L11.9090389,29.6104037 L11.8033777,29.5738885 L11.7763883,29.5645655 L11.7488919,29.5570327 L11.6418796,29.52778 L11.5379074,29.4983922 L11.4342732,29.4680922 L11.4322801,29.467518 L11.3346584,29.4380627 L11.2329832,29.4064116 L11.1307,29.3736119 L11.0288896,29.339968 L10.926235,29.3050403 L10.9257611,29.3048674 L10.8297608,29.2712571 L10.729099,29.2350798 L10.6290451,29.1981254 L10.627221,29.1974492 L10.5325381,29.1615081 L10.4373823,29.12452 L10.4364034,29.1241153 L10.33966,29.0855734 L10.3375319,29.0846948 L10.2391333,29.0444637 L10.1409711,29.0033208 L10.1387416,29.0023748 L10.046626,28.9628531 L9.94961238,28.9202239 L9.85459168,28.8774934 L9.75821973,28.8332089 L9.75619293,28.8322628 L9.66556359,28.7896336 L9.57165754,28.7445046 L9.47815689,28.6986326 L9.38512909,28.6519836 L9.29490513,28.6058075 L9.29419604,28.6054357 L9.19873622,28.5555775 L9.110978,28.5087936 L9.10861344,28.5075103 L9.01974056,28.4591724 L9.01886198,28.4586985 L8.92482087,28.4065097 L8.92269273,28.4053267 L8.83594799,28.3562119 L8.74883158,28.3059823 L8.74737881,28.3051383 L8.65945179,28.25349 L8.65752635,28.2523416 L8.5670997,28.1981599 L8.48221261,28.1463765 L8.47991567,28.1449237 L8.39131294,28.0899314 L8.30686514,28.036459 L8.30517543,28.035378 L8.21461353,27.9770077 L8.21403934,27.9766359 L8.1291187,27.9209002 L8.12763307,27.9199213 L8.04416485,27.8641857 L7.96201399,27.8083826 L7.96056122,27.8073691 L7.87452575,27.7479178 L7.79254386,27.6902906 L7.79095618,27.6891423 L7.70502206,27.6276979 L7.70296154,27.6262123 L7.62229701,27.5675042 L7.54203787,27.508188 L7.54075458,27.5072091 L7.45630661,27.4437381 L7.4540773,27.4420484 L7.37753379,27.383543 L7.37564208,27.3820902 L7.29369391,27.3183828 L7.13253364,27.1900559 L6.97106932,27.0573376 L6.93117617,27.0234571 L6.79909973,26.931105 L6.65216055,26.8648303 L6.49545908,26.8269977 L6.3345015,26.8189244 L6.17479245,26.840863 Z" opacity=".98"/>
</svg>
