<svg xmlns="http://www.w3.org/2000/svg" width="32" height="32" viewBox="0 0 32 32">
  <path d="M15.8482439,0.00102696136 C8.11277103,-0.0925937022 0.931278972,6.28180323 0.125121586,13.9826043 C-0.730147077,20.5330416 2.86606693,27.4424137 8.86565821,30.2971752 C14.5308477,33.1437449 21.8770075,32.2864471 26.5754124,27.9661879 C31.3201143,23.8049166 33.3024633,16.7241852 31.1073747,10.7603817 C29.1051296,4.93784517 23.5489322,0.479996963 17.367021,0.0605429546 C16.8620462,0.017076218 16.3550568,-0.00298535279 15.8482439,0.000358242335 L15.8482439,0.00102696136 Z M16.1408745,1.72765948 C23.2535389,1.62902343 29.8032439,7.69781576 30.2184966,14.808138 C30.7777882,21.1069697 26.7015779,27.5425544 20.6361275,29.4870221 C14.8382714,31.4910059 7.82998865,29.3666527 4.35268917,24.2497819 C0.717303964,19.158824 0.874353613,11.6382426 5.01587722,6.87612726 C7.72240697,3.63818974 11.9021812,1.62885625 16.1408745,1.72765948 Z M15.7262107,3.28293276 C9.15705955,3.25785579 3.2557188,9.15645914 3.27790038,15.7294656 C3.11883553,21.694105 7.64309288,27.4542835 13.5712462,28.4658882 C18.9798777,29.5308232 24.941578,26.7222033 27.3463133,21.7134978 C29.8803873,16.7265257 28.7321081,10.0861458 24.3933187,6.462023 C22.0285242,4.38514889 18.8810861,3.19181979 15.7262107,3.28293276 L15.7262107,3.28293276 Z M16.2333784,4.97529343 C22.0534708,4.94854467 27.2463683,10.2927799 27.0230362,16.1181585 C26.9988118,21.4175896 22.7097249,26.3846674 17.3871528,26.9211472 C12.3120273,27.5875257 6.96106049,24.3333718 5.5019547,19.3684674 C3.9669289,14.6235715 5.99579049,8.90803002 10.4273697,6.48275329 C12.1759192,5.4619537 14.2080139,4.92748002 16.2333784,4.97529343 Z"/>
</svg>
