<svg xmlns="http://www.w3.org/2000/svg" width="32" height="32" viewBox="0 0 32 32">
  <path fill-rule="evenodd" d="M16.17724,0.0001639959 L16.31392,0.0023359416 C16.76624,0.011039724 17.21392,0.0385110372 17.65632,0.0839979001 C18.0024,0.11959701 18.27616,0.386950326 18.33536,0.729789755 L18.33536,0.729789755 L18.77264,3.26599835 C18.82752,3.58453439 19.06944,3.83640009 19.38128,3.92130997 C20.36656,4.18952726 21.30368,4.57442964 22.17696,5.06024149 C22.45616,5.21558161 22.80064,5.20641384 23.06176,5.02214645 L23.06176,5.02214645 L25.14544,3.55133522 C25.42944,3.35079623 25.812,3.35521212 26.08192,3.57448664 C26.94128,4.27262918 27.72672,5.05812955 28.4248,5.91746806 C28.64416,6.18736532 28.64848,6.56977176 28.448,6.85387665 L28.448,6.85387665 L27.00928,8.8920337 C26.82224,9.15689108 26.81584,9.50723432 26.97776,9.7880913 C27.49024,10.6768691 27.89728,11.6341571 28.18176,12.6428359 C28.2688,12.9513082 28.51936,13.1897023 28.83504,13.2441009 L28.83504,13.2441009 L31.2696,13.6637704 C31.61248,13.7229689 31.87984,13.9965621 31.91536,14.3426334 C31.95488,14.7245439 31.98032,15.1072543 31.99216,15.4904447 C31.99744,15.6592405 32,15.8288363 32,15.998912 C32,16.1353886 31.9984,16.2715452 31.99488,16.4073818 L31.99488,16.4073818 L31.99168,16.521139 C31.97952,16.9027294 31.95392,17.2808 31.91536,17.6551906 C31.87984,18.001262 31.61248,18.2748551 31.2696,18.3340536 L31.2696,18.3340536 L28.87376,18.7470033 C28.552,18.8047619 28.30208,19.0463558 28.21808,19.3572281 C27.93952,20.3880823 27.53328,21.3664578 27.01744,22.2744351 C26.85824,22.5545881 26.86576,22.9025794 27.05168,23.1657729 L27.05168,23.1657729 L28.448,25.1439634 C28.64848,25.4281163 28.64416,25.8105067 28.4248,26.08042 C27.72672,26.9397585 26.94112,27.7251789 26.08192,28.4234014 C25.812,28.6425959 25.42944,28.6470758 25.14544,28.4464408 L25.14544,28.4464408 L23.15472,27.041516 C22.89296,26.8640804 22.55152,26.8591205 22.27584,27.0159166 C21.36784,27.5317437 20.38944,27.9379736 19.35856,28.2165266 C19.04608,28.3010045 18.80336,28.5531582 18.74832,28.8721902 L18.74832,28.8721902 L18.33536,31.2679703 C18.27616,31.6108417 18.0024,31.878195 17.65632,31.9138742 C16.55504,32.0277913 15.44528,32.0277913 14.34384,31.9138742 C13.99776,31.878195 13.72416,31.6108417 13.66496,31.2681303 L13.66496,31.2681303 L13.24208,28.8163516 C13.18208,28.5086793 12.94688,28.2656454 12.643968,28.1802075 C12.141232,28.038451 11.651248,27.8662953 11.17616,27.6656604 C10.6932,27.4701452 10.21992,27.2434309 9.759424,26.9855174 C9.482816,26.8306412 9.141536,26.8373611 8.880752,27.0165566 L8.880752,27.0165566 L6.854784,28.4466008 C6.570672,28.6470758 6.188256,28.6425959 5.918352,28.4234014 C5.580592,28.1490083 5.25424,27.8611755 4.940112,27.560543 C4.854784,27.478945 4.77016,27.3962271 4.686288,27.3123892 C4.596352,27.2224714 4.507712,27.1315937 4.4204,27.040076 C4.12632,26.7317637 3.844448,26.4116117 3.57552,26.08074 C3.355968,25.8108267 3.350976,25.4289163 3.551616,25.1446034 L3.551616,25.1446034 L4.9536,23.158573 C5.140336,22.8939397 5.147072,22.5441884 4.98576,22.2633954 C4.453824,21.3374986 4.049248,20.358483 3.772048,19.3516282 C3.686496,19.040916 3.435056,18.800282 3.117456,18.7455634 L3.117456,18.7455634 L0.73128,18.3342136 C0.388592,18.2751751 0.121296,18.001582 0.085488,17.6556706 C-0.028496,16.5544181 -0.028496,15.4435659 0.085488,14.3421534 C0.12128,13.9964021 0.388576,13.7228089 0.73128,13.6637704 L0.73128,13.6637704 L3.117456,13.2522607 C3.435056,13.1975421 3.686496,12.9569081 3.772048,12.6462278 C4.049248,11.639437 4.453824,10.6603895 4.98576,9.73454064 C5.147072,9.45376366 5.140336,9.1039164 4.9536,8.83936302 L4.9536,8.83936302 L3.551568,6.85322067 C3.350944,6.56900377 3.35592,6.18707732 3.575472,5.91719607 C3.844416,5.58618035 4.12632,5.26610835 4.420416,4.95778006 C4.507728,4.86619835 4.596352,4.77543261 4.686288,4.68548286 C4.77016,4.60162896 4.854768,4.51889503 4.94008,4.43729707 C5.254224,4.13672858 5.580576,3.84881578 5.918352,3.57442264 C6.188256,3.35514812 6.570672,3.35074823 6.854784,3.55128722 L6.854784,3.55128722 L8.884992,4.98433939 C9.145216,5.16057499 9.484304,5.16644684 9.759424,5.01237069 C10.673808,4.50025549 11.638544,4.11117722 12.629424,3.84510387 C12.94256,3.76102597 13.1856,3.50868028 13.2408,3.18918427 L13.2408,3.18918427 L13.66496,0.729773756 C13.72416,0.386934327 13.99776,0.11958101 14.34384,0.0839819005 C14.84496,0.0321111972 15.34752,0.004559886 15.85072,1.53403765e-15 L15.85072,1.53403765e-15 L16.17724,0.0001639959 L16.17724,0.0001639959 Z M16,6.39915202 C10.698064,6.39915202 6.4,10.6971086 6.4,15.998912 C6.4,21.3006995 10.698064,25.598672 16,25.598672 C21.30192,25.598672 25.6,21.3006995 25.6,15.998912 C25.6,10.6971086 21.30192,6.39915202 16,6.39915202 Z M13,10.6834616 C13,9.25829358 14.6366646,8.47976633 15.7145891,9.39213001 L15.7145891,9.39213001 L21.4044355,14.2079889 C22.1985215,14.8800286 22.1985215,16.118545 21.4044355,16.7905847 L21.4044355,16.7905847 L15.7145891,21.6064772 C14.6366646,22.5188913 13,21.74028 13,20.3151793 L13,20.3151793 Z"/>
</svg>
