<svg xmlns="http://www.w3.org/2000/svg" width="32" height="32" viewBox="0 0 32 32">
  <path d="M32,0 C32,0 20.3308205,5.95413055 14.4032705,8.73825818 C15.6730764,9.89784538 16.8541675,11.14854 18.0794556,12.3540247 C14.3329441,16.1505303 10.5863993,19.9469862 6.83986397,23.7434562 L0.0452748534,23.7434562 L0.0452748534,25.4987447 L5.10769841,25.4987447 C3.40513247,27.2240078 1.70255657,28.949257 2.26599131e-15,30.6745322 C0.441940276,31.0962886 0.883529352,31.5178657 1.32546963,31.9396222 C3.44423622,29.7925826 5.56301137,27.6456666 7.68179092,25.4987447 L14.8274846,25.4987447 L14.8274846,23.7434562 L9.41403442,23.7434562 C12.7443361,20.36894 16.0746459,16.9944179 19.4049252,13.6196987 C20.6324835,14.8429252 21.8531035,16.0730431 23.0811102,17.2958836 C26.2471868,11.0605717 32,0 32,0 Z" transform="translate(0 .06)"/>
</svg>
