<svg xmlns="http://www.w3.org/2000/svg" width="32" height="32" viewBox="0 0 32 32">
  <path d="M24.9777017,3 C28.7394332,3 31.8671909,5.97871378 31.9958815,9.6951347 L32,9.93333333 L32,22.4 C32,26.1467982 28.9506116,29.2035703 25.2169284,29.3293096 L24.9777017,29.3333333 L7.02229817,29.3333333 C3.26056733,29.3333333 0.132809099,26.3546196 0.00411853569,22.6381986 L0,22.4 L0,9.93333333 C0,6.18653511 3.04938883,3.12976304 6.78307145,3.00402375 L7.02229817,3 L24.9777017,3 Z M24.9777017,6.66666667 L7.02229817,6.66666667 C5.18048424,6.66666667 3.76707783,8.01129037 3.67179155,9.74602016 L3.66666667,9.93333333 L3.66666667,22.4 C3.66666667,24.1613769 5.01656225,25.5667378 6.8266408,25.6615649 L7.02229817,25.6666667 L10,25.666 L10,15 L22,15 L22,25.666 L24.9777017,25.6666667 C26.8195159,25.6666667 28.2329222,24.3220428 28.3282084,22.5873132 L28.3333333,22.4 L28.3333333,9.93333333 C28.3333333,8.17195632 26.9834379,6.76659548 25.1733591,6.67176843 L24.9777017,6.66666667 Z M21.2457143,15.7542857 L10.7542857,15.7542857 L10.754,25.666 L21.245,25.666 L21.2457143,15.7542857 Z M16.7714286,17.5714286 L16.7714286,20.2285714 L19.4285714,20.2285714 L19.4285714,21.7714286 L16.7714286,21.7714286 L16.7714286,24.4285714 L15.2285714,24.4285714 L15.2285714,21.7714286 L12.5714286,21.7714286 L12.5714286,20.2285714 L15.2285714,20.2285714 L15.2285714,17.5714286 L16.7714286,17.5714286 Z"/>
</svg>
