<svg xmlns="http://www.w3.org/2000/svg" width="32" height="32" viewBox="0 0 32 32">
  <path d="M17.3449687,0 C11.5633135,0 5.78165617,0 0,0 L0,32 L24.5120942,32 L24.5120942,7.35976687 C22.1230517,4.90651118 19.7340112,2.45325569 17.3449687,0 Z M15.2400597,1.81793745 L15.2400597,9.32497766 L22.6941567,9.32497766 L22.6941567,30.1820625 L1.81793745,30.1820625 L1.81793745,1.81793745 C6.29197828,1.81793745 10.7660193,1.81793745 15.2400597,1.81793745 Z M17.0579972,2.31104511 L22.1180019,7.5070402 L17.0579972,7.5070402 L17.0579972,2.31104511 Z M7.87619038,3.17164599 L7.87619038,4.10546936 L7.87619038,6.91463256 L3.59322751,6.91463256 L3.59322751,10.1373685 L7.87619038,10.1373685 L7.87619038,13.8803944 L13.575433,8.52600041 L7.87619038,3.17164599 Z M8.68416258,5.03933211 L12.39543,8.52600041 L8.68416258,12.0126689 L8.68416258,9.32939625 L4.40119971,9.32939625 L4.40119971,7.72260476 L8.68416258,7.72260476 L8.68416258,5.03933211 Z" transform="translate(3.488)"/>
</svg>
