<svg xmlns="http://www.w3.org/2000/svg" width="32" height="32" viewBox="0 0 32 32">
  <path d="M15.6761859,0.000432365742 C7.94297348,0.00694746402 0.833735786,6.45084717 0.104143122,14.1590269 C-0.678757135,20.7242629 3.01600638,27.5863052 9.04640534,30.3749641 C14.6466754,33.1121136 21.8347822,32.2459016 26.4795563,28.0313162 C31.205405,23.9419062 33.270329,16.971484 31.1944649,11.0247262 C29.2203773,4.9577629 23.3943587,0.313022163 16.9778199,0.0319034629 C16.5445282,0.00358118766 16.1102637,-0.00173664991 15.6761859,0.000432365742 Z M15.9929513,5.00628033 C21.6880929,4.84062189 26.9092975,9.86363263 26.9761285,15.56106 C27.2224174,20.7732135 23.3066634,25.8914062 18.1124808,26.7652445 C13.0862248,27.77209 7.51165001,24.8672331 5.75233349,19.9876027 C3.85834087,15.1621756 5.79064373,9.05997034 10.400746,6.5273023 C12.0863331,5.53758826 14.0377933,5.00384576 15.9929513,5.00628033 Z M15.4338292,10.7502348 C12.9644534,12.4936971 10.4950777,14.2371595 8.02570189,15.9806219 C10.495248,17.724969 12.9644275,19.4698344 15.4338292,21.2143854 C15.4338292,19.5285934 15.4338292,17.8427997 15.4338292,16.1570077 C17.8184162,17.844194 20.2051438,19.5283619 22.5905548,21.2143854 C22.5905548,17.7263356 22.5905548,14.238285 22.5905548,10.7502348 C20.2049796,12.4349698 17.8194045,14.1197049 15.4338292,15.8044399 C15.4338292,14.1197049 15.4338292,12.4349698 15.4338292,10.7502348 Z" transform="translate(0 .051)"/>
</svg>
