<svg xmlns="http://www.w3.org/2000/svg" width="32" height="32" viewBox="0 0 32 32">
  <path d="M23.6214929,13.5235588 C21.0807536,11.6791242 18.5400127,9.83468976 15.9992734,7.99025517 C13.4585048,9.83467057 10.9177665,11.6791275 8.37700942,13.5235588 C9.34748583,16.5078668 10.3179621,19.4921749 11.2884385,22.4764828 C14.42898,22.4764828 17.5695223,22.4764828 20.7100631,22.4764828 C21.6805397,19.4921749 22.6510163,16.5078668 23.6214929,13.5235588 L23.6214929,13.5235588 Z M22.6050717,13.8535125 C21.7640129,16.4399135 20.9229525,19.0263145 20.0818938,21.6127154 C17.3601313,21.6127154 14.6383698,21.6127154 11.9166078,21.6127154 C11.0755488,19.0263145 10.2344897,16.4399135 9.3934306,13.8535125 C11.5953633,12.2550251 13.7972958,10.6565375 15.9992285,9.05805009 C18.2011762,10.6565375 20.403124,12.2550251 22.6050717,13.8535125 L22.6050717,13.8535125 Z M16.1322969,0 C14.622447,0.0158309312 13.0767249,0.138711861 11.6404908,0.614178563 C10.7860973,1.05572636 11.3736893,2.47544003 12.2913342,2.19173399 C14.5567228,1.61201155 16.9465435,1.59609938 19.2354163,2.04771675 C20.1696588,2.11131548 20.4454318,0.65678997 19.5526226,0.374167859 C18.4349387,0.113250211 17.278772,0.0127772341 16.1322969,0 L16.1322969,0 Z M24.9971793,2.77740983 C24.065628,2.67762928 23.7345922,4.06690727 24.5720505,4.44255246 C26.4352931,5.8072498 27.7940699,7.74114681 28.8942427,9.73853417 C29.5110594,10.4764429 30.7689641,9.59409276 30.2924771,8.76012302 C29.1084681,6.48454692 27.4835442,4.3760295 25.368881,2.89435293 C25.2586942,2.82150185 25.1261391,2.79386872 24.9971793,2.77740983 Z M6.54931943,3.20021093 C5.81512904,3.27796604 5.35299303,3.96197292 4.81419361,4.40639639 C3.55171017,5.65593131 2.54964121,7.14707318 1.68059224,8.68851834 C1.37144236,9.22233215 0.971551849,10.0194081 1.65040079,10.4564377 C2.26552673,10.8882751 2.93251609,10.3243676 3.09721626,9.71383789 C3.89293242,8.23894766 4.84280887,6.82335847 6.03101386,5.63395271 C6.46192877,5.08577528 7.32336518,4.81196234 7.37101821,4.03865932 C7.36264133,3.59885503 6.98879375,3.2174739 6.54931943,3.20021093 L6.54931943,3.20021093 Z M31.1312076,14.2782176 C30.3597995,14.244551 30.1266575,15.0973321 30.2579007,15.7151561 C30.3880946,18.1100298 29.7866855,20.5115898 28.643249,22.6117628 C28.3133626,23.4881884 29.6269519,24.1709107 30.1546191,23.3972753 C31.6119795,20.8295832 32.2413449,17.7871733 31.9163691,14.857256 C31.8091224,14.5233461 31.4786674,14.2902156 31.1312076,14.2782176 Z M0.936197618,14.9438157 C0.162289801,14.8843816 -0.0960260079,15.7285109 0.0307381484,16.351227 C0.148135318,18.7602678 0.763135597,21.1603791 1.88854319,23.2961664 C2.41659097,24.0695396 3.72985632,23.3863561 3.39964238,22.5100472 C2.33544511,20.380366 1.76063723,18.0156251 1.72700543,15.6355091 C1.65220774,15.2601426 1.31830471,14.9679819 0.936197618,14.9438157 Z M25.5068099,26.7608464 C24.744255,26.8596884 24.2629628,27.5958638 23.5871256,27.9212997 C22.0731715,28.9232874 20.3496553,29.5532867 18.6085588,30.0129868 C17.7448346,30.4361013 18.301955,31.8681271 19.2254568,31.604122 C21.7526102,31.0262217 24.1550386,29.8531345 26.1383791,28.1826867 C26.6065677,27.6612996 26.2079814,26.763271 25.5068099,26.7608464 L25.5068099,26.7608464 Z M6.3463923,26.8031474 C5.50062123,26.8044299 5.22562273,28.0308825 5.95077424,28.4307892 C7.61561473,29.8320741 9.6184091,30.778772 11.7108095,31.343366 C12.3293888,31.5210786 13.1930581,31.9076158 13.6042326,31.1664669 C13.9585994,30.5379441 13.377681,29.869406 12.733684,29.8395234 C10.7620502,29.3245944 8.82191167,28.5550235 7.23465327,27.2462743 C6.97458448,27.0333682 6.71225708,26.7744013 6.3463923,26.8031474 L6.3463923,26.8031474 Z"/>
</svg>
