<svg xmlns="http://www.w3.org/2000/svg" width="32" height="32" viewBox="0 0 32 32">
  <path d="M32,0 C32,0 20.4194917,5.90888659 14.5369837,8.67185832 C15.7971407,9.82263411 16.9692569,11.063825 18.1852343,12.2601495 C12.4817021,18.0397893 15.0344038,15.563022 10.0977868,20.5757277 L1.62601217,21.952516 L2.2487726e-15,31.9588947 L10.0064183,30.3329207 L10.1035819,29.7348341 L11.3828572,21.8619573 C16.358497,16.8101278 13.785979,19.3071147 19.500632,13.516206 C20.7188624,14.7301375 21.9302072,15.9509081 23.1488826,17.1644564 C26.290901,10.9765251 32,0 32,0 Z M9.60269704,22.3561195 L8.5411608,28.8675083 L2.02969487,29.9290837 L3.09126968,23.413909 L9.60269704,22.3561195 Z" transform="translate(0 .041)"/>
</svg>
