<svg xmlns="http://www.w3.org/2000/svg" width="32" height="32" viewBox="0 0 32 32">
  <path d="M7.29489949,1.7806361 L9.07379463,1.7806361 L9.07379463,0.00174095966 L7.29489949,0.00174095966 L7.29489949,1.7806361 Z M10.8526898,1.7806361 L12.6315849,1.7806361 L12.6315849,0.00174095966 L10.8526898,0.00174095966 L10.8526898,1.7806361 Z M14.41048,1.7806361 L16.1893757,1.7806361 L16.1893757,0.00174095966 L14.41048,0.00174095966 L14.41048,1.7806361 Z M17.9682708,1.7806361 L19.747166,1.7806361 L19.747166,0.00174095966 L17.9682708,0.00174095966 L17.9682708,1.7806361 Z M21.5260611,1.7806361 L23.3049563,1.7806361 L23.3049563,0.00174095966 L21.5260611,0.00174095966 L21.5260611,1.7806361 Z M25.0838514,1.7806361 C25.6348375,1.79369728 26.189988,1.74617872 26.7375977,1.82517821 C26.8193166,1.23786495 26.9010337,0.650551512 26.9827526,0.063238254 C26.3543347,-0.0331357026 25.7166578,0.0122951445 25.0838514,0.0017368682 L25.0838514,1.7806361 Z M5.7316607,0.00344336231 C5.4248728,0.0106619409 5.11860043,0.041331694 4.81660665,0.0958996581 C4.92817344,0.678263674 5.04254466,1.26012942 5.13246478,1.84633941 C5.48966443,1.74476272 6.07852586,1.94447839 5.87772151,1.36325678 C5.78188247,0.981126975 6.04180751,0.154981213 5.7316607,0.00344336231 Z M28.1042552,2.28411198 C28.5314978,2.51802157 28.9155008,2.83066844 29.2334054,3.19916354 C29.6531481,2.79972332 30.235932,2.42226383 30.5643107,2.018804 C30.1139851,1.50053732 29.572292,1.06158124 28.9707408,0.730460016 L28.1042552,2.28411198 Z M2.83327768,0.844214489 C2.2474635,1.19801716 1.72389908,1.65495751 1.2954714,2.18870486 C1.7647772,2.52165941 2.25503928,3.04816932 2.71188197,3.26601353 C3.01098397,2.90355885 3.37260969,2.59255265 3.77692587,2.35290524 C3.44898727,1.85972488 3.2275118,1.29754848 2.83327768,0.844214489 L2.83327768,0.844214489 Z M30.5157699,4.25906787 C29.9533011,4.30513556 29.9589687,4.60143776 30.1379291,5.0426155 C30.2924368,5.29212102 30.0407605,5.90491357 30.3880435,5.89217686 C30.913136,5.86952743 31.52765,5.9362995 32,5.86090726 C31.9989682,5.17102985 31.8773879,4.48115937 31.638388,3.83383544 C31.2641814,3.97557958 30.8899766,4.11732373 30.5157699,4.25906787 L30.5157699,4.25906787 Z M0.267777176,4.11411567 C0.0708150603,4.73947736 -0.0121527868,5.39756841 0.00142640925,6.05231229 L1.78032155,6.05231229 C1.76773497,5.55249576 1.82826508,5.0486271 1.98868193,4.57384888 L0.29609096,4.02656058 L0.270408162,4.10598007 L0.267777176,4.11411567 Z M30.2211049,9.44996713 L32,9.44996713 L32,7.67107199 L30.2211049,7.67107199 L30.2211049,9.44996713 Z M0.00142943337,9.61010256 L1.78032457,9.61010256 L1.78032457,7.83120742 L0.00142943337,7.83120742 L0.00142943337,9.61010256 Z M30.2211049,13.0077569 L32,13.0077569 L32,11.2288623 L30.2211049,11.2288623 L30.2211049,13.0077569 Z M0.00142943337,13.167893 L1.78032457,13.167893 L1.78032457,11.3889977 L0.00142943337,11.3889977 L0.00142943337,13.167893 Z M30.2211049,16.5655471 L32,16.5655471 L32,14.786652 L30.2211049,14.786652 L30.2211049,16.5655471 Z M0.00142943337,16.7256833 L1.78032457,16.7256833 L1.78032457,14.9467881 L0.00142943337,14.9467881 L0.00142943337,16.7256833 Z M30.2211049,20.1233374 L32,20.1233374 L32,18.3444423 L30.2211049,18.3444423 L30.2211049,20.1233374 Z M0.00142943337,20.2834736 L1.78032457,20.2834736 L1.78032457,18.5045784 L0.00142943337,18.5045784 L0.00142943337,20.2834736 Z M30.1379291,21.7537019 C30.0430126,22.2195483 29.8660018,22.6686855 29.6161418,23.0732116 C30.121549,23.355734 30.6616838,23.7879646 31.146374,23.9811775 C31.5049957,23.3923134 31.7586573,22.7395496 31.8900002,22.0626462 C31.3138108,21.9693716 30.6811254,21.7991136 30.1379291,21.7537019 Z M0.15392095,22.2627025 C0.310683237,22.9394725 0.58921321,23.5879919 0.973324522,24.1668852 L2.45998757,23.190021 C2.18762609,22.781085 1.99170232,22.3218508 1.88254149,21.8428904 C1.30633458,21.9828272 0.730127854,22.1227657 0.15392095,22.2627025 Z M28.5809778,24.2056242 C28.2095178,24.4831906 27.7903354,24.6965317 27.3472873,24.8334141 L27.8945751,26.52604 C28.5569734,26.3188716 29.1818103,25.9922487 29.7298594,25.5664096 C29.3693325,25.0956393 29.0088038,24.6248689 28.6482769,24.1540985 L28.5820024,24.2048398 L28.5809707,24.2056225 L28.5809778,24.2056242 Z M2.41676593,25.6753314 C2.98374695,26.0885385 3.62622535,26.3979933 4.30284644,26.5834716 C4.4425541,26.014154 4.64641975,25.4078781 4.74729236,24.8609319 C4.28734461,24.7307061 3.85042075,24.5190407 3.46409044,24.2374149 L2.41676593,25.6753314 Z M6.2968767,26.7946122 L8.07577184,26.7946122 L8.07577184,25.0157171 L6.2968767,25.0157171 L6.2968767,26.7946122 Z M9.84613735,26.7946122 L11.6335621,26.7946122 L11.6335621,25.0157171 L9.84613735,25.0157171 L9.84613735,26.7946122 Z M13.4124572,26.7946122 L15.1913524,26.7946122 L15.1913524,25.0157171 L13.4124572,25.0157171 L13.4124572,26.7946122 Z M16.9702484,26.7946122 L18.7491435,26.7946122 L18.7491435,25.0157171 L16.9702484,25.0157171 L16.9702484,26.7946122 Z M20.421305,26.7946122 L22.164222,26.7946122 L22.164222,25.0157171 L20.421305,25.0157171 L20.421305,26.7946122 Z M24.085829,26.7946122 L25.8647241,26.7946122 L25.8647241,25.0157171 L24.085829,25.0157171 L24.085829,26.7946122 Z M22.164222,26.2495463 L22.164222,13.7757397 L9.84613735,13.7757397 L9.84613735,26.2495463 L22.164222,26.2495463 Z M10.9666502,14.90513 L21.0347801,14.90513 L21.0347801,24.9687418 L10.9666502,24.9687418 L10.9666502,14.90513 Z M12.3028367,18.9028143 L12.3028367,20.614236 L19.6985577,20.614236 L19.6985577,18.9028143 L12.3028367,18.9028143 Z" opacity=".97" transform="translate(0 3)"/>
</svg>
