<svg xmlns="http://www.w3.org/2000/svg" width="32" height="32" viewBox="0 0 32 32">
  <path d="M15.9990822,0 C15.6646851,0 15.3303034,0.123717979 15.0822395,0.372943099 L0.370948941,15.0843688 C-0.125179101,15.5804749 -0.122880975,16.4219818 0.373247257,16.9180882 L15.0822395,31.6269781 C15.5783675,32.1232524 16.419831,32.1254277 16.9159582,31.6269781 L31.627283,16.9157554 C32.1234101,16.419649 32.1211137,15.5781089 31.6249502,15.0820028 L16.9159253,0.372943099 C16.6678608,0.124890066 16.3334793,0 15.9990822,0 Z M15.997966,2.18124481 L29.8190148,16.0023942 L15.997966,29.8233755 L2.17691859,16.0023942 L15.997966,2.18124481 Z M15.9987448,8.05733823 L15.7443016,8.24201807 L8.36741388,13.5971952 L11.2823079,22.5607628 L20.715112,22.5607628 L23.6300069,13.5971952 L15.9987448,8.05733823 Z M15.9986755,9.12637946 L22.6123744,13.9275504 L20.0862065,21.6959706 L11.9112134,21.6959706 L9.38504628,13.9275504 L15.9986755,9.12637946 Z"/>
</svg>
