<svg xmlns="http://www.w3.org/2000/svg" width="32" height="32" viewBox="0 0 32 32">
  <path d="M15.8471718,7.88404177e-05 C9.60965096,-0.0205521218 3.62447587,4.00981689 1.25709438,9.775231 C-1.23514479,15.4845371 0.0597835381,22.5769185 4.41930503,27.029637 C8.61221542,31.542957 15.5204967,33.1995258 21.3062013,31.087805 C27.3023531,29.0459649 31.7290665,23.15737 31.9696995,16.819539 C32.3733064,10.5918194 28.7093692,4.37862643 23.0992305,1.66585385 C20.9022658,0.569540023 18.4494554,-0.00206864559 15.9945664,0.00140796237 C15.9454216,0.000741423154 15.8962855,7.88404177e-05 15.8471718,7.88404177e-05 Z M16.2855738,1.72878683 C22.3912366,1.76249754 28.1416972,6.17946879 29.7207729,12.0879595 C31.398709,17.7411561 29.1291174,24.2864955 24.2578231,27.6347552 C19.1976934,31.3540246 11.6937982,31.0849361 6.91536574,27.0095063 C2.10076746,23.1708205 0.377390581,16.0704174 2.84760612,10.4397258 C4.98238264,5.23914873 10.3700059,1.66089423 15.9945664,1.73070239 C16.0916456,1.72878683 16.188659,1.72844773 16.2855738,1.72878683 Z M13.5043826,9.08013578 L13.5043826,13.5071293 L9.07738903,13.5071293 L9.07738903,18.4874971 L13.5043826,18.4874971 L13.5043826,22.9144906 L18.4847503,22.9144906 L18.4847503,18.4874971 L22.9117439,18.4874971 L22.9117439,13.5070956 L18.4847503,13.5070956 L18.4847503,9.08013578 L13.5043826,9.08013578 Z M14.3344439,9.91019707 L17.654689,9.91019707 L17.654689,14.3371906 L22.0816826,14.3371906 L22.0816826,17.6574358 L17.654689,17.6574358 L17.654689,22.0844293 L14.3344439,22.0844293 L14.3344439,17.6314964 L9.90745032,17.6314964 L9.90745032,14.3371906 L14.3344439,14.3371906 L14.3344439,9.91019707 Z"/>
</svg>
