<svg xmlns="http://www.w3.org/2000/svg" width="32" height="32" viewBox="0 0 32 32">
  <path d="M15.8403486,0.000390732616 C8.65426372,-0.0531133165 1.9126915,5.39460208 0.400717567,12.4124941 C-1.05756055,18.5769966 1.55345144,25.4532701 6.78285744,29.0470702 C11.8587045,32.6825031 19.0927303,32.9674122 24.372744,29.5909723 C29.6819273,26.3397653 32.8083579,19.8473833 31.8177003,13.6695049 C30.9105425,7.2654046 25.7948231,1.69563309 19.4421569,0.37926628 C18.261065,0.115758838 17.0501882,-0.00763487475 15.8403486,0.000390732616 L15.8403486,0.000390732616 Z M16.2219171,5.00987453 C21.5023286,4.99315451 26.3528034,9.36326492 26.8910123,14.6202049 C27.5780227,19.644904 24.3385398,24.901008 19.4681164,26.4116614 C14.7144786,28.0293229 8.98238566,25.9649026 6.50595141,21.5555001 C3.76577197,16.9807367 4.93164827,10.4616027 9.2737856,7.28546862 C11.2429122,5.76612082 13.7358126,4.95269208 16.2219171,5.00987453 L16.2219171,5.00987453 Z" transform="translate(0 .042)"/>
</svg>
