<svg xmlns="http://www.w3.org/2000/svg" width="32" height="32" viewBox="0 0 32 32">
  <path d="M15.9749497,0.00291311058 C8.19459426,-0.156397006 0.934430576,6.23964383 0.125121325,13.9849156 C-0.730147068,20.5353696 2.86607419,27.4446668 8.86565826,30.2993656 C14.5308467,33.1460873 21.8770104,32.2887598 26.5754169,27.9685412 C31.3201139,23.8072587 33.3024634,16.7264499 31.1073745,10.7625724 C29.0891658,4.88433641 23.4445334,0.407560824 17.2012601,0.0494092676 C16.7932624,0.0185971184 16.3841086,0.00316192869 15.9749497,0.00291311058 Z M15.7938239,1.72666556 C22.9282168,1.45799522 29.6335055,7.40712814 30.1925618,14.5309763 C30.8791581,20.8137263 26.9261347,27.3225161 20.9104626,29.3931251 C15.0626785,31.5554444 7.88454823,29.4526497 4.35270436,24.2519986 C0.727774864,19.1744227 0.871744999,11.6794189 4.98477735,6.91580463 C7.61726798,3.74484846 11.6564691,1.74209919 15.7938239,1.72666556 Z M16.0771396,3.28046262 C9.47736152,3.07057245 3.40557181,8.86469601 3.28634094,15.4648382 C2.99540086,21.4290085 7.41566311,27.2820261 13.3206268,28.4179223 C18.7919198,29.6156584 24.9052322,26.8047619 27.3462934,21.7157161 C29.8708918,16.7454879 28.7418209,10.1311451 24.4343405,6.50053377 C22.1519751,4.47881869 19.1330529,3.28389631 16.0771396,3.28046262 Z M15.9994842,4.97465185 C21.8174703,4.82058972 27.1162507,10.0565596 27.0229422,15.880254 C27.1257853,21.2639402 22.7926662,26.3806601 17.3871394,26.9234568 C12.312026,27.5898159 6.96107172,24.335586 5.50197207,19.3707194 C3.97252929,14.6402976 5.98191836,8.94289159 10.389583,6.50727795 C12.0795309,5.51160946 14.0371674,4.97133505 15.9994842,4.97465185 Z M13.8485147,8.25604871 C13.8485147,10.1007658 13.8485147,11.9454827 13.8485147,13.7901998 C11.9699144,13.7901998 10.0913143,13.7901998 8.21271409,13.7901998 C8.21271409,15.2500644 8.21271409,16.7099294 8.21271409,18.1697936 C10.0913143,18.1697936 11.9699144,18.1697936 13.8485147,18.1697936 C13.8485147,20.0144551 13.8485147,21.8591148 13.8485147,23.7037763 C15.2852172,23.7037763 16.721919,23.7037763 18.1586224,23.7037763 C18.1586224,21.8591148 18.1586224,20.0144551 18.1586224,18.1697936 C20.0383015,18.1697936 21.9179824,18.1697936 23.7976616,18.1697936 C23.7976616,16.7099294 23.7976616,15.2500644 23.7976616,13.7901998 C21.9179824,13.7901998 20.0383015,13.7901998 18.1586224,13.7901998 C18.1586224,11.9454827 18.1586224,10.1007658 18.1586224,8.25604871 C16.7219207,8.25604871 15.2852172,8.25604871 13.8485147,8.25604871 Z M14.7137826,9.12135033 C15.5747197,9.12135033 16.4356572,9.12135033 17.2965938,9.12135033 C17.2965938,10.9660111 17.2965938,12.8106721 17.2965938,14.6553328 C19.1751826,14.6553328 21.0537715,14.6553328 22.9323603,14.6553328 C22.9323603,15.5383861 22.9323603,16.4214386 22.9323603,17.3044924 C21.0537715,17.3044924 19.1751826,17.3044924 17.2965938,17.3044924 C17.2965938,19.1491417 17.2965938,20.9937911 17.2965938,22.8384405 C16.4356572,22.8384405 15.5747197,22.8384405 14.7137826,22.8384405 C14.7137826,20.9937911 14.7137826,19.1491417 14.7137826,17.3044924 C12.8341026,17.3044924 10.9544224,17.3044924 9.07474237,17.3044924 C9.07474237,16.4214386 9.07474237,15.5383861 9.07474237,14.6553328 C10.9544224,14.6553328 12.8341026,14.6553328 14.7137826,14.6553328 C14.7137826,12.8106721 14.7137826,10.9660111 14.7137826,9.12135033 Z"/>
</svg>
