<svg xmlns="http://www.w3.org/2000/svg" width="32" height="32" viewBox="0 0 32 32">
  <g transform="translate(0 3)">
    <path d="M6.49417317,0 C2.91556567,0 0,2.90326667 0,6.475 L0,19.8583333 C0,23.4300667 2.91556567,26.3333333 6.49417317,26.3333333 L25.5058267,26.3333333 C29.084435,26.3333333 32,23.4300667 32,19.8583333 L32,6.475 C32,2.90326667 29.084435,0 25.5058267,0 L6.49417317,0 Z M6.49417317,2 L25.5058267,2 C28.0147767,2 30,3.98043383 30,6.475 L30,19.8583333 C30,22.3529 28.0147767,24.3333333 25.5058267,24.3333333 L6.49417317,24.3333333 C3.98522267,24.3333333 2,22.3529 2,19.8583333 L2,6.475 C2,3.98043383 3.98522267,2 6.49417317,2 Z M5.29550783,4.39847 L5.29550783,17.0631183 L22.1658533,17.0631183 L22.1658533,4.39847 L5.29550783,4.39847 Z M6.01393233,8.78356117 L21.4474617,8.78356117 L21.4474617,12.223405 L9.984668,12.223405 L9.984668,8.79205733 L9.2662435,8.79205733 L9.2662435,12.223405 L6.01393233,12.223405 L6.01393233,8.78356117 Z M6.01393233,12.9418295 L9.2662435,12.9418295 L9.2662435,16.3446933 L6.01393233,16.3446933 L6.01393233,12.9418295 Z M9.984668,12.9418295 L21.4474617,12.9418295 L21.4474617,16.3446933 L9.984668,16.3446933 L9.984668,12.9418295 Z"/>
    <polygon points="6.079 5.209 6.079 8.796 21.44 8.796 21.44 5.209"/>
  </g>
</svg>
