<svg xmlns="http://www.w3.org/2000/svg" width="32" height="32" viewBox="0 0 32 32">
  <path d="M15.994575,0.00132330317 C9.7041477,-0.0839938452 3.64311263,3.96434679 1.25709097,9.77515633 C-1.23514711,15.4844603 0.0597912261,22.5768268 4.41931135,27.0295457 C8.61222075,31.5428625 15.5205166,33.1994152 21.3062202,31.087695 C27.3023684,29.0458573 31.7290666,23.1572712 31.9696995,16.8194423 C32.3733063,10.5917249 28.7093668,4.37853462 23.0992299,1.66576271 C20.9024301,0.569493505 18.4492954,-0.00218686928 15.994575,0.00132330317 Z M15.994575,1.73061711 C22.2076285,1.62256029 28.1166462,6.08560804 29.7207858,12.0878826 C31.3987213,17.7410763 29.1291217,24.2863946 24.2578291,27.6346515 C19.1976992,31.3539198 11.6938239,31.08484 6.91539253,27.0094115 C2.1007956,23.1707269 0.377390733,16.0703191 2.84760514,10.4396321 C4.98859988,5.2342447 10.3629189,1.66453768 15.994575,1.73061711 Z M15.994575,8.91411034 C14.3208856,13.5716378 13.2585747,18.4229144 11.5848758,23.0804387 C13.1203936,21.5539495 14.4591438,19.8438872 15.994575,18.3173151 C17.4644747,19.9050229 18.9343745,21.4927308 20.4042742,23.0804387 C18.9064014,18.3670668 17.492446,13.6274824 15.994575,8.91411034 Z M16.0266274,11.8451957 C16.8489897,14.4329359 17.6252748,17.0350558 18.4476388,19.6227953 C17.6406344,18.7511119 16.8336318,17.8794285 16.0266274,17.0077451 C15.3443161,17.6060773 13.5724213,19.8948651 13.6860604,19.3979853 C14.5581514,16.9093189 15.1351338,14.3274806 16.0266274,11.8451957 Z"/>
</svg>
