<svg xmlns="http://www.w3.org/2000/svg" width="32" height="32" viewBox="0 0 32 32">
  <g fill-rule="evenodd">
    <path fill-rule="nonzero" d="M0 0L0 8.62 32 8.62 32 0 0 0zM1.65517241 7.05446983L1.65517241 1.68446983 30.2758621 1.68446983 30.2758621 1.68446983 30.2758621 7.05446983 1.65517241 7.05446983zM0 23.38L0 32 32 32 32 23.38 0 23.38zM1.65517241 30.43447L1.65517241 25.06447 30.2758621 25.06447 30.2758621 25.06447 30.2758621 30.43447 1.65517241 30.43447z"/>
    <path d="M24,8 L28,15 L20,15 L24,8 Z M24,10 L21.72,14 L26.28,14 L24,10 Z"/>
    <rect width="1" height="3" x="23.5" y="21"/>
    <rect width="1" height="3" x="23.5" y="15"/>
    <path d="M8,24 L4,17 L12,17 L8,24 Z M8,22 L10.28,18 L5.72,18 L8,22 Z"/>
    <rect width="1" height="3" x="7.5" y="8"/>
    <rect width="1" height="3" x="7.5" y="14"/>
  </g>
</svg>
