<svg xmlns="http://www.w3.org/2000/svg" width="32" height="32" viewBox="0 0 32 32">
  <path d="M4.07280401,26.5474058 L5.368,27.843 L1.32546963,31.9395825 C1.10449949,31.7287043 0.883617152,31.5178804 0.662734814,31.3070564 L0,30.6745304 C1.35759781,29.2988172 2.71519977,27.9231099 4.07280401,26.5474058 Z M11.026,19.501 L12.3221645,20.7966914 C8.65659384,24.5109366 4.99101662,28.2251224 1.32546963,31.9395825 L8.88,24.284 L7.58507842,22.9883144 C8.06996148,22.4969689 8.55484463,22.0056236 9.03972778,21.5142783 L11.026,19.501 Z M32,0 C32,0 29.301176,5.18885947 26.5832149,10.4620988 L26.2571392,11.0949658 C25.1167532,13.3091313 23.9918994,15.5021642 23.0811102,17.2958838 C21.8531035,16.0730433 20.6324835,14.842925 19.4049252,13.6196987 C18.2147655,14.8257399 17.0246027,16.0317521 15.8344379,17.2377469 L14.538,15.942 L18.0794556,12.3540247 C17.0992251,11.3896373 16.1472807,10.3963148 15.1555716,9.44385281 L14.4032705,8.73825818 C17.082847,7.47968021 20.9357466,5.57330068 24.3535757,3.86199806 L24.969847,3.55318937 C28.838,1.61339189 32,0 32,0 Z M27.8739407,4.0595825 C27.8739407,4.0595825 27.8691114,4.06198061 27.859453,4.06677683 L27.7435519,4.12433148 C27.7290643,4.13152581 27.7133694,4.13931966 27.6964671,4.14771305 L27.5805661,4.20526769 C26.6243823,4.68009348 23.3308602,6.31560455 17.7,9.11180088 L22.7172861,14.0595825 C26.1550558,7.39291584 27.8739407,4.0595825 27.8739407,4.0595825 Z" transform="translate(0 .06)"/>
</svg>
