<svg xmlns="http://www.w3.org/2000/svg" width="32" height="32" viewBox="0 0 32 32">
  <path d="M15.9979399,8.40615367 C12.9798447,8.36498797 10.0776137,10.3318119 8.96675921,13.1327656 C7.8287705,15.8276891 8.45789697,19.1447803 10.5042261,21.2355285 C12.4938633,23.3774403 15.7721556,24.1667824 18.5181301,23.162913 C21.3956899,22.1825972 23.5096735,19.3362227 23.5858453,16.2926232 C23.7391421,13.3357435 21.9620672,10.4120832 19.2864578,9.15635215 C18.2654607,8.66201613 17.1321544,8.40465745 15.9979399,8.40615367 Z M15.9979399,9.78993266 C18.756512,9.73768809 21.3705259,11.7625615 22.0126564,14.4450033 C22.7166332,17.0226116 21.5305616,19.9616925 19.2215396,21.3122556 C16.8639192,22.7919184 13.5399172,22.3975967 11.6039394,20.3936408 C9.5608951,18.4227331 9.19707365,15.0126951 10.764482,12.6490449 C11.8745928,10.8856521 13.9134458,9.76963262 15.9979399,9.78993266 Z M17.9597908,11.5545553 C17.2684652,12.8087624 16.5771379,14.0629696 15.8858123,15.3171767 C15.2452536,15.3852897 15.0930915,16.3571039 15.6841023,16.6162926 C16.0744992,16.8872763 16.3802677,16.4365397 16.7356532,16.4520726 C17.7924695,16.4520726 18.8492857,16.4520726 19.9061019,16.4520726 C19.9061019,16.1637848 19.9061019,15.8754986 19.9061019,15.5872108 C18.8455651,15.5872108 17.7850282,15.5872108 16.7244913,15.5872108 C17.3887347,14.3821468 18.052978,13.1770846 18.7172213,11.9720207 C18.4647439,11.8328661 18.2122682,11.6937099 17.9597908,11.5545553 Z M15.9945739,3.28650764 L15.8473778,3.2874192 L15.8420053,3.28745379 L15.8366345,3.28755758 L15.6896409,3.290294 L15.6843047,3.29039778 L15.6789321,3.29057076 L15.5321422,3.29513152 L15.5268043,3.29530449 L15.5214328,3.29554146 L15.374913,3.30189266 L15.3695415,3.30212964 L15.3642035,3.30239947 L15.2179203,3.31057519 L15.2125825,3.31087962 L15.2072448,3.31125151 L15.061198,3.32121766 L15.0558939,3.32155495 L15.050556,3.3219943 L14.9048133,3.33375106 L14.8994755,3.33419041 L14.8941715,3.33466263 L14.748699,3.34821 L14.743395,3.3487168 L14.7380909,3.34925821 L14.6882263,3.35452833 L14.5301863,3.38631875 L14.3807949,3.44685908 L14.245221,3.53412243 L14.1281943,3.64500032 L14.0338028,3.77564186 L13.9652557,3.9215873 L13.9250194,4.07766771 L13.9144451,4.23854551 L13.9339045,4.39857886 L13.982722,4.5521932 L14.0592081,4.69411842 L14.1606943,4.8193544 L14.2836667,4.92361073 L14.4238352,5.00320518 L14.5763685,5.0554008 L14.7359288,5.07840751 L14.8697459,5.07469137 L14.9146106,5.06999535 L15.0501506,5.05736041 L15.1827515,5.04665082 L15.3185957,5.03739421 L15.4544735,5.02979276 L15.5906557,5.02384701 L15.7268368,5.01962389 L15.8632896,5.01709019 L15.9999446,5.01624608 L16.1365997,5.01709019 L16.2730525,5.01962389 L16.4092336,5.02384701 L16.5454165,5.02979276 L16.6812932,5.03739421 L16.8171371,5.04665082 L16.9497394,5.05736041 L17.0851093,5.06996162 L17.2199067,5.08418462 L17.3546695,5.10009669 L17.4892299,5.11763038 L17.620784,5.13644787 L17.7547356,5.15729243 L17.8883169,5.1797247 L18.0209504,5.20374502 L18.1538555,5.22945425 L18.2837889,5.25627864 L18.4158481,5.28519737 L18.5480785,5.31587298 L18.6767267,5.34735932 L18.8076374,5.3811429 L18.9355418,5.41577128 L19.0645965,5.45242654 L19.1946302,5.49110887 L19.3210488,5.53036547 L19.449358,5.57191932 L19.5754393,5.61448678 L19.7026345,5.6591825 L19.8300996,5.70570273 L19.9562155,5.75350658 L20.0768568,5.80090499 L20.2025991,5.85208734 L20.3257398,5.90394515 L20.3315517,5.90641139 L20.3317593,5.90593918 L20.4788879,5.95428357 L20.6387178,5.97536458 L20.7996634,5.96637815 L20.956148,5.92769582 L21.1027698,5.86063529 L21.2343568,5.76752755 L21.3464187,5.65161565 L21.4349978,5.51695406 L21.4970257,5.36817066 L21.5304042,5.21043473 L21.5339173,5.04928675 L21.5074646,4.89026702 L21.4519249,4.73891619 L21.3692891,4.60050456 L21.262432,4.47982917 L21.1349997,4.38107959 L21.0167904,4.31824201 L21.0129055,4.31655207 L21.0080744,4.31445755 L21.0032104,4.31239676 L20.8700337,4.2562821 L20.8652026,4.25425503 L20.8603041,4.2522617 L20.7264874,4.19776866 L20.7215889,4.19580923 L20.7166903,4.19384979 L20.5821973,4.1410121 L20.5772988,4.13908639 L20.5723673,4.13722833 L20.4372309,4.08601224 L20.4322995,4.08415417 L20.4273334,4.08232983 L20.291557,4.03276927 L20.2866239,4.03097866 L20.281625,4.02922195 L20.1452726,3.98131673 L20.1402737,3.97956003 L20.135273,3.97787009 L19.9983135,3.93162021 L19.9933146,3.929932 L19.9882811,3.92831125 L19.8507127,3.88371673 L19.8457138,3.88209598 L19.8406803,3.88054268 L19.7025377,3.83760368 L19.6975042,3.83604865 L19.6924378,3.83452823 L19.5537555,3.7933122 L19.5486874,3.79179177 L19.5436193,3.7903734 L19.4043973,3.75081271 L19.3993292,3.74935974 L19.3942283,3.74797423 L19.2544648,3.71010262 L19.2493639,3.70875171 L19.2442629,3.7074008 L19.1039927,3.67125234 L19.0988918,3.66993429 L19.0937562,3.6686837 L18.9530138,3.63422431 L18.9478782,3.63294086 L18.9427098,3.63175773 L18.8014934,3.59898759 L18.7963596,3.59780446 L18.7911895,3.59665593 L18.6495009,3.5656425 L18.6443325,3.56449396 L18.6391295,3.56344748 L18.4970015,3.5341233 L18.4918331,3.53304222 L18.4866301,3.5320286 L18.3440628,3.50446113 L18.3388615,3.50344751 L18.3336239,3.50250135 L18.1906519,3.47665686 L18.1854489,3.4757107 L18.180213,3.474832 L18.0368345,3.45071048 L18.0315986,3.44983178 L18.026361,3.44902054 L17.8825777,3.42665573 L17.8773418,3.42581163 L17.8720714,3.42506785 L17.7279508,3.40445975 L17.7226803,3.40371597 L17.7174098,3.40300678 L17.5729174,3.38415538 L17.5676469,3.38347906 L17.5623436,3.38283734 L17.4175467,3.36577655 L17.4122416,3.36513482 L17.4069383,3.36459515 L17.2618041,3.34925752 L17.256499,3.34871611 L17.2511957,3.3482093 L17.1057224,3.33466193 L17.1004191,3.33418972 L17.0950812,3.33375037 L16.9493381,3.32199361 L16.9440002,3.32155426 L16.9386969,3.32121696 L16.7926494,3.31125082 L16.7873114,3.31087892 L16.7819735,3.31057449 L16.6356908,3.30239878 L16.6303528,3.30212894 L16.6249821,3.30189197 L16.4784623,3.29554077 L16.4730898,3.2953038 L16.4677519,3.29513083 L16.3209623,3.29057007 L16.3155898,3.29039709 L16.3102536,3.29029331 L16.16326,3.28755689 L16.1578892,3.2874531 L16.1525167,3.28741851 L16.0053206,3.28650694 L15.9999498,3.28647235 L15.9945739,3.28650764 Z M10.3574642,4.65964485 L10.2007417,4.69734747 L10.077803,4.75028636 L10.0179722,4.78173896 L10.0133099,4.7842052 L10.0086817,4.78670517 L9.88145235,4.85562394 L9.87679022,4.85812391 L9.87219556,4.86069134 L9.74577714,4.93119799 L9.74114874,4.93376542 L9.73658798,4.93636675 L9.61098029,5.00842739 L9.60641952,5.01106245 L9.60185876,5.01373141 L9.47712942,5.08734603 L9.47256866,5.090015 L9.46804162,5.09275142 L9.34415691,5.16792002 L9.33962987,5.17065662 L9.33513657,5.17346068 L9.21213021,5.25014953 L9.20763708,5.25295359 L9.20317768,5.2558251 L9.08104967,5.33403439 L9.07659026,5.3369059 L9.07216459,5.33981132 L8.95094884,5.41957459 L8.94652317,5.42248001 L8.94213123,5.42545288 L8.82179383,5.50677031 L8.81740189,5.50970946 L8.81304385,5.51274997 L8.69368616,5.59555375 L8.68932812,5.59859425 L8.68500381,5.60166849 L8.56655821,5.68599252 L8.5622339,5.68906694 L8.55794332,5.69220881 L8.44047761,5.77805309 L8.43618703,5.78119496 L8.43193035,5.78437056 L8.31544418,5.87170137 L8.31118751,5.87491088 L8.30696456,5.87815411 L8.19145811,5.96697144 L8.18726889,5.97021468 L8.18307984,5.97352537 L8.06858701,6.06382923 L8.06439779,6.06713992 L8.0602762,6.07048451 L7.94679681,6.16230845 L7.9426415,6.16565305 L7.93855364,6.16906527 L7.8261216,6.26234201 L7.82200001,6.26575406 L7.81794588,6.26920002 L7.70656119,6.36396328 L7.70250706,6.36740924 L7.69848684,6.37092265 L7.58818322,6.46713854 L7.584163,6.47065212 L7.5801765,6.47423317 L7.47095396,6.57190168 L7.46696747,6.57548272 L7.4630147,6.57909767 L7.35487324,6.67821897 L7.35095438,6.68183375 L7.34703534,6.68548243 L7.24004259,6.78605635 L7.23612355,6.78973876 L7.23227232,6.79345507 L7.1263942,6.89548162 L7.12250907,6.89919793 L7.11869157,6.9029478 L7.01396216,7.0063934 L7.01014466,7.01017718 L7.00639462,7.01399485 L6.90294901,7.11872409 L6.89916541,7.12254176 L6.8954491,7.12639299 L6.79342238,7.23227111 L6.78970624,7.23615624 L6.78605756,7.24004137 L6.68548364,7.34706803 L6.68180123,7.35095299 L6.67818628,7.35490576 L6.57906515,7.46304722 L6.5754502,7.46696625 L6.57186916,7.47095258 L6.47420065,7.58017529 L6.47065333,7.58416178 L6.46713975,7.58818201 L6.37092386,7.69851936 L6.36741045,7.70253975 L6.36393076,7.70659371 L6.26920123,7.8179784 L6.26572155,7.82203253 L6.26230949,7.82615411 L6.16903276,7.93858616 L6.16562053,7.94267401 L6.16227594,7.94682933 L6.07048572,8.06027499 L6.0671074,8.06443031 L6.06383044,8.06861952 L5.97349285,8.18311236 L5.97021589,8.18726768 L5.96697265,8.19149062 L5.87812159,8.30699708 L5.87487836,8.31122003 L5.87170258,8.3154767 L5.78433804,8.43196287 L5.78116244,8.43621955 L5.77802057,8.44051013 L5.69217629,8.55797584 L5.68906815,8.56226642 L5.68596001,8.56659073 L5.60163597,8.68500243 L5.59856173,8.68932674 L5.59555496,8.69368495 L5.51271745,8.81307637 L5.50971067,8.8174344 L5.50673779,8.82182635 L5.42545427,8.94213002 L5.42248122,8.94652179 L5.41954207,8.95094746 L5.35180575,9.05392016 L5.27613033,9.19628455 L5.22819138,9.35016908 L5.20964407,9.51033752 L5.22113065,9.67111396 L5.26224532,9.82699182 L5.33160326,9.97253181 L5.42673807,10.1026328 L5.54440651,10.2128688 L5.68045326,10.2993213 L5.83018247,10.3590507 L5.98842521,10.389929 L6.14960709,10.3909081 L6.30822138,10.3619554 L6.45866012,10.3040841 L6.59578795,10.2192871 L6.71474036,10.1105036 L6.79676697,10.004727 L6.86156415,9.90628132 L6.93659767,9.79523444 L7.01423251,9.6833092 L7.09071865,9.57591083 L7.17119145,9.46567484 L7.25163035,9.35841156 L7.33487331,9.25020264 L7.41781218,9.14500015 L7.5037241,9.03881811 L7.58966974,8.93527114 L7.67808146,8.8313189 L7.76686507,8.72956254 L7.85781065,8.627806 L7.95037786,8.52686053 L8.04291133,8.42841486 L8.1368637,8.33091518 L8.23196478,8.23459793 L8.32963328,8.13811187 L8.42841677,8.04294316 L8.52682853,7.95040969 L8.62767281,7.85797757 L8.72973326,7.7667279 L8.83108435,7.67828228 L8.93523932,7.58970157 L9.03882002,7.50375592 L9.14466423,7.41808046 L9.25054235,7.33460105 L9.3570622,7.25267562 L9.46581184,7.17115565 L9.57412229,7.09196682 L9.68331111,7.01423061 L9.7934459,6.93781193 L9.90624949,6.86156225 L10.0180396,6.78801509 L10.1308095,6.71578563 L10.2443226,6.64497507 L10.359356,6.57517812 L10.4744907,6.50723907 L10.5923958,6.43953664 L10.7089831,6.37453691 L10.8284085,6.30987482 L10.8829354,6.28119254 L11.0180024,6.1931861 L11.1343871,6.08166614 L11.2280355,5.95045051 L11.295738,5.80413335 L11.3350959,5.64781631 L11.3447243,5.48690478 L11.3243528,5.32697297 L11.2746907,5.1736288 L11.1973937,5.03214276 L11.0951644,4.90748106 L10.9716175,4.80393408 L10.8309761,4.7251507 L10.6781724,4.67379953 L10.5184771,4.6517388 L10.3574642,4.65964485 Z M24.2661318,6.77581985 L24.1093756,6.81335364 L23.9622816,6.87933309 L23.8300183,6.97149484 L23.7171141,7.08656212 L23.6275542,7.22061571 L23.5644452,7.36892603 L23.5299182,7.52639161 L23.525222,7.68753976 L23.5505261,7.84676222 L23.6049519,7.99851832 L23.6865741,8.13750439 L23.7729928,8.23973383 L23.8630249,8.33091587 L23.9569783,8.42841556 L24.0495116,8.52686123 L24.1420795,8.62780669 L24.2330249,8.72956323 L24.3218082,8.83131959 L24.4102196,8.93527183 L24.4961661,9.03881881 L24.5820763,9.14500084 L24.6650165,9.25020333 L24.7482595,9.35841225 L24.8286985,9.46567553 L24.9091705,9.57591152 L24.9856571,9.6833099 L25.0632923,9.79523513 L25.138326,9.90624828 L25.2131227,10.0199641 L25.2852505,10.1325989 L25.3560948,10.2462134 L25.4254186,10.3605035 L25.4944381,10.47753 L25.5609252,10.5934419 L25.6264662,10.711009 L25.6900456,10.8284749 L25.7515996,10.9455014 L25.8133559,11.0664807 L25.8720385,11.1849601 L25.9308232,11.3073921 L25.9870392,11.4283038 L26.0413629,11.5488102 L26.0955845,11.6732355 L26.1473085,11.7959715 L26.1981191,11.9208022 L26.2464977,12.0438423 L26.2945374,12.1706661 L26.3407538,12.2972535 L26.3845712,12.4220166 L26.4277468,12.5498539 L26.4696044,12.6789752 L26.5088276,12.8051909 L26.5473071,12.93465 L26.5689961,13.011001 L26.6273068,13.1612708 L26.7125095,13.2981284 L26.8215963,13.4168105 L26.9508534,13.5131615 L27.0957177,13.5838707 L27.2511888,13.6264381 L27.4118991,13.6394111 L27.5722013,13.6223503 L27.7265255,13.575864 L27.869565,13.5015061 L27.9963226,13.4019119 L28.1024031,13.2804934 L28.184091,13.1415412 L28.2385843,12.9898187 L28.2639558,12.8306301 L28.2593617,12.669482 L28.2328762,12.5382662 L28.2095647,12.456307 L28.2081117,12.4512057 L28.2066242,12.4461719 L28.1653737,12.30749 L28.1638861,12.3024225 L28.1622948,12.2973886 L28.119389,12.1592472 L28.1178322,12.1542135 L28.1162063,12.1491797 L28.0716123,12.0116127 L28.0699864,12.0066126 L28.0682912,12.0016126 L28.0220401,11.8646199 L28.020345,11.8596199 L28.0185876,11.8546537 L27.9706829,11.718269 L27.9689255,11.7133028 L27.9671352,11.7083366 L27.9175752,11.5725939 L27.9157503,11.5676277 L27.9138926,11.5626952 L27.8626772,11.4275606 L27.8608178,11.4226282 L27.8588926,11.4177295 L27.8060219,11.2832367 L27.8040949,11.2783382 L27.8021023,11.2734396 L27.7476437,11.1396224 L27.7456493,11.1347237 L27.7435892,11.1298588 L27.6874752,10.9967175 L27.685448,10.9918527 L27.6833187,10.9870215 L27.6256169,10.8545558 L27.6234876,10.8497247 L27.6213254,10.8448936 L27.5619682,10.7131374 L27.5598061,10.70834 L27.5576093,10.7035428 L27.4966296,10.572496 L27.4944,10.5677325 L27.4921375,10.562969 L27.42957,10.4326653 L27.4273058,10.4279018 L27.4249412,10.4231722 L27.3607858,10.2936118 L27.3584558,10.288882 L27.3560567,10.2841862 L27.2903134,10.1554029 L27.2879142,10.1506731 L27.2854494,10.146011 L27.2181182,10.0180047 L27.2156862,10.0133426 L27.2131521,10.0086804 L27.1442676,9.88145113 L27.1417336,9.87682274 L27.1391649,9.87219434 L27.0686925,9.74580966 L27.0661256,9.74118126 L27.0634895,9.73658677 L26.9914638,9.61101281 L26.9888277,9.60641831 L26.9861588,9.60189128 L26.9125452,9.47712821 L26.9098416,9.47256727 L26.9071052,9.46807414 L26.8319712,9.34418943 L26.8292348,9.33966239 L26.8264309,9.33516926 L26.7497418,9.2121629 L26.746938,9.2076696 L26.7440649,9.20321019 L26.6658226,9.08108218 L26.6629841,9.07662278 L26.6600799,9.07219711 L26.5803154,8.95094746 L26.5773766,8.94652179 L26.5744032,8.94213002 L26.49312,8.82182635 L26.4901484,8.8174344 L26.4871404,8.81307637 L26.4043039,8.69368495 L26.4012959,8.68932674 L26.3982222,8.68500243 L26.3138982,8.56659073 L26.3107898,8.56226642 L26.3076815,8.55797584 L26.2218371,8.44051013 L26.2186959,8.43621955 L26.2155201,8.43196287 L26.1281552,8.3154767 L26.1249795,8.31122003 L26.1217362,8.30699708 L26.0328855,8.19149062 L26.0296423,8.18726768 L26.0263644,8.18311236 L25.9360279,8.06861952 L25.9327501,8.06443031 L25.9293719,8.06027499 L25.8375824,7.94682933 L25.8342371,7.94267401 L25.8308261,7.93858616 L25.737549,7.82615411 L25.7341363,7.82203253 L25.7306561,7.8179784 L25.6359277,7.70659371 L25.6324475,7.70253975 L25.6289345,7.69851936 L25.5327186,7.58818201 L25.5292055,7.58416178 L25.5256579,7.58017529 L25.427989,7.47095258 L25.4244085,7.46696625 L25.4207934,7.46304722 L25.3216715,7.35490576 L25.3180564,7.35095299 L25.3143738,7.34706803 L25.2138008,7.24004137 L25.2101528,7.23615624 L25.2064356,7.23227111 L25.1044096,7.12639299 L25.1006924,7.12254176 L25.0969095,7.11872409 L25.0035978,7.02426508 L24.8801526,6.92061675 L24.7395797,6.8416981 L24.5868088,6.79024557 L24.4271484,6.76801585 L24.2661318,6.77581985 Z M4.28863381,12.8282652 L4.1305938,12.859988 L3.98116867,12.9204609 L3.8455611,13.0076564 L3.72850066,13.1184669 L3.63404148,13.2491084 L3.5654607,13.3949862 L3.52992024,13.5240399 L3.50441356,13.6558637 L3.50339994,13.6610663 L3.50245379,13.666269 L3.47660929,13.8092415 L3.47566313,13.814478 L3.47478443,13.8197145 L3.45066292,13.9630923 L3.44978422,13.9683288 L3.44897298,13.9735653 L3.42660817,14.1173148 L3.42579693,14.122585 L3.42502028,14.1278553 L3.40441218,14.2719764 L3.4036684,14.2772467 L3.40299208,14.2825169 L3.38414068,14.4270097 L3.3834315,14.4322799 L3.38282263,14.4375502 L3.36572812,14.5823808 L3.36508639,14.5876848 L3.36454672,14.5929888 L3.34924281,14.7381235 L3.34866855,14.7434275 L3.34816174,14.7487315 L3.33464827,14.894204 L3.33414146,14.899508 L3.33370211,14.9048121 L3.32194535,15.0505886 L3.3215406,15.0558926 L3.32116871,15.0612305 L3.31120256,15.2072772 L3.31083067,15.2126151 L3.31052623,15.2179529 L3.30238442,15.3642362 L3.30207999,15.369574 L3.30184302,15.3749118 L3.29549165,15.5214653 L3.29525468,15.5268032 L3.2950817,15.5321748 L3.29052094,15.6789648 L3.29034797,15.6843026 L3.29024419,15.6896742 L3.28750776,15.836667 L3.28743857,15.8420385 L3.28740398,15.8474102 L3.28645782,15.9946056 L3.28645782,15.9999772 L3.28645782,16.0053488 L3.28740398,16.1525442 L3.28743857,16.1579158 L3.28750776,16.1632537 L3.29024419,16.3102802 L3.29034797,16.315618 L3.29052094,16.3209896 L3.2950817,16.4677459 L3.29525468,16.4731175 L3.29549165,16.4784553 L3.30184302,16.6250088 L3.30207999,16.6303466 L3.30238442,16.6356845 L3.31052623,16.7820015 L3.31083067,16.7873393 L3.31120256,16.7926772 L3.32116871,16.9386902 L3.3215406,16.944028 L3.32194535,16.9493658 L3.33370211,17.0951085 L3.33414146,17.1004126 L3.33464827,17.1057504 L3.34816174,17.2511891 L3.34866855,17.2564931 L3.34924281,17.2617971 L3.36454672,17.4069656 L3.36508639,17.4122696 L3.36572812,17.4175399 L3.38282263,17.5623704 L3.3834315,17.5676744 L3.38414068,17.5729447 L3.40299208,17.7174375 L3.4036684,17.7227076 L3.40441218,17.7279779 L3.42502028,17.872099 L3.42579693,17.8773693 L3.42660817,17.8826059 L3.44897298,18.0263553 L3.44978422,18.0316256 L3.45066292,18.036862 L3.47478443,18.1802061 L3.47566313,18.1854426 L3.47660929,18.190679 L3.50245379,18.3336516 L3.50339994,18.3388543 L3.50441356,18.3440907 L3.53201476,18.486624 L3.53299379,18.4918267 L3.53407487,18.4970294 L3.56339922,18.6391573 L3.5644803,18.6443262 L3.56559597,18.6495289 L3.59664313,18.7911838 L3.59775707,18.7963527 L3.59897306,18.8015216 L3.6317093,18.9427373 L3.63292529,18.9479063 L3.63417588,18.9530413 L3.66863527,19.0937841 L3.66988586,19.0989191 L3.67120391,19.1040206 L3.70738609,19.2442903 L3.70870414,19.2493916 L3.71008965,19.254493 L3.74792736,19.3942222 L3.74931287,19.3993235 L3.75076584,19.4044248 L3.79032652,19.5436473 L3.79177949,19.5487149 L3.79326532,19.5537825 L3.83451508,19.6924645 L3.83600091,19.697532 L3.8375888,19.7025657 L3.88049408,19.8406734 L3.88204737,19.845741 L3.88366812,19.8507409 L3.90130317,19.9051326 L3.96508674,20.0531726 L4.0552216,20.1868209 L4.16863336,20.3014151 L4.30130179,20.3929687 L4.44866612,20.4583064 L4.60559133,20.4951644 L4.76667186,20.5022927 L4.92623213,20.4793537 L5.07876539,20.4272253 L5.21900136,20.3476987 L5.34200772,20.2435098 L5.44356136,20.1183076 L5.52011513,19.97645 L5.56900006,19.8228356 L5.58856082,19.6628023 L5.57805413,19.5019584 L5.54677052,19.3717899 L5.530284,19.3209454 L5.49109504,19.1947634 L5.45261543,19.0653045 L5.41623034,18.9372306 L5.38089261,18.8068931 L5.34798738,18.6793599 L5.31508215,18.5449683 L5.28518353,18.4158809 L5.25619717,18.2837531 L5.22954178,18.1543955 L5.20379865,18.0215243 L5.1796434,17.8878423 L5.15724486,17.7547008 L5.13680575,17.6234852 L5.117245,17.4865599 L5.10004912,17.3547022 L5.08417078,17.2202433 L5.06991405,17.0851424 L5.05754912,16.9524739 L5.04640053,16.8142311 L5.0373475,16.68136 L5.02974606,16.5453807 L5.02373267,16.4067663 L5.01961109,16.2731857 L5.01707722,16.1366321 L5.01623311,15.9999772 L5.01707722,15.863356 L5.01961109,15.7268362 L5.02373267,15.5931881 L5.02974606,15.4544048 L5.0373475,15.3184255 L5.0464353,15.1855206 L5.05758389,15.047244 L5.06991491,14.914812 L5.08413774,14.7800152 L5.10008372,14.6449143 L5.11724586,14.5133945 L5.13680662,14.3764355 L5.15714436,14.2456589 L5.17971172,14.1116054 L5.20373205,13.9788355 L5.22812375,13.8526873 L5.24386701,13.6922825 L5.22957655,13.5317088 L5.18572528,13.3765742 L5.11383364,13.2322841 L5.01643532,13.1038386 L4.89687491,12.9956971 L4.75934163,12.9116096 L4.60856507,12.8545489 L4.4498157,12.8264072 L4.28863381,12.8282652 Z M27.575377,17.0304804 L27.4186208,17.0680141 L27.271494,17.1339598 L27.1391961,17.2260878 L27.0262918,17.341155 L26.9366973,17.4751409 L26.8735555,17.6234852 L26.8436901,17.7500049 L26.8434479,17.7499703 L26.8428425,17.7536865 L26.8428425,17.7537557 L26.8428425,17.754195 L26.8203422,17.8878432 L26.7961867,18.0215252 L26.7704432,18.1543964 L26.7437881,18.2837539 L26.7148014,18.4158818 L26.6849031,18.5449692 L26.6519986,18.6793608 L26.6190923,18.806894 L26.5837541,18.9372314 L26.5473693,19.0653054 L26.5088899,19.1947643 L26.4697013,19.3210139 L26.4281135,19.4492904 L26.3849725,19.5770941 L26.3408507,19.7026679 L26.2946342,19.8292891 L26.2469319,19.9552008 L26.1978441,20.0800316 L26.1470334,20.2048621 L26.0956814,20.326686 L26.0418645,20.4501654 L25.987136,20.5716853 L25.9314268,20.6915159 L25.8726422,20.8139141 L25.8134528,20.9334407 L25.7516964,21.05442 L25.6895353,21.1725953 L25.626563,21.2888448 L25.5603803,21.4076283 L25.4938932,21.52354 L25.4255155,21.6394517 L25.3561916,21.753742 L25.2854148,21.8672551 L25.2132196,21.9799911 L25.1391995,22.0924908 L25.0633892,22.2047201 L24.985754,22.3166455 L24.9092673,22.4241113 L24.8288283,22.5342122 L24.7483563,22.6415092 L24.6641326,22.7510019 L24.619843,22.8071505 L24.5322412,22.942454 L24.4712286,23.0916766 L24.4389987,23.249649 L24.436667,23.4108308 L24.4642682,23.5696478 L24.5208561,23.7205932 L24.604471,23.8584306 L24.7122068,23.9783288 L24.8403482,24.0761663 L24.9844031,24.1484971 L25.1394019,24.1928552 L25.2999082,24.2076862 L25.4604144,24.1924498 L25.6152783,24.1477201 L25.7591636,24.0750178 L25.8870352,23.9768762 L25.9778457,23.8784982 L26.0264924,23.8168428 L26.0297703,23.8126538 L26.0330135,23.8084308 L26.1218642,23.6929244 L26.1251075,23.6887352 L26.1282832,23.6844785 L26.2156481,23.5679925 L26.2188239,23.5637356 L26.2219651,23.5594451 L26.3078095,23.4419794 L26.3109178,23.4376888 L26.3140262,23.4333645 L26.3983502,23.314919 L26.4014239,23.3105947 L26.4044319,23.3062365 L26.4872684,23.1868451 L26.4902764,23.1824871 L26.493248,23.1780951 L26.5745312,23.0577915 L26.5775046,23.0533997 L26.5804434,23.048974 L26.6602079,22.9277581 L26.6631121,22.9233324 L26.6659506,22.918873 L26.7441929,22.7967452 L26.747066,22.7922856 L26.7498698,22.7877925 L26.8265589,22.6647861 L26.8293628,22.6602928 L26.8320992,22.6557658 L26.9072332,22.5318812 L26.9099696,22.5273542 L26.9126732,22.5227933 L26.9862868,22.3980641 L26.9889557,22.3935033 L26.9915918,22.3889087 L27.0636175,22.2633347 L27.0662536,22.2587402 L27.0688205,22.2541455 L27.1392929,22.1277271 L27.1418616,22.1230987 L27.1443956,22.1184703 L27.2132801,21.9912412 L27.2158142,21.9866128 L27.2182462,21.9819168 L27.2855774,21.8539105 L27.2880422,21.8492483 L27.2904414,21.8445525 L27.3561847,21.7157353 L27.3585838,21.7110394 L27.3609138,21.7063097 L27.4250692,21.5767492 L27.4274338,21.5720196 L27.429698,21.5672899 L27.4922655,21.4369524 L27.494528,21.4322229 L27.4967576,21.4274255 L27.5577373,21.2963787 L27.5599341,21.2916152 L27.5620962,21.286784 L27.6214534,21.1550279 L27.6236156,21.1502305 L27.6257449,21.1453994 L27.6834467,21.0129337 L27.685576,21.0080688 L27.6876032,21.0032379 L27.7437172,20.8700626 L27.7457773,20.8651978 L27.7477717,20.8603329 L27.8022303,20.7264821 L27.8042229,20.721617 L27.8061499,20.7166847 L27.8590206,20.582192 L27.8609458,20.5772934 L27.8628052,20.5723609 L27.9140206,20.4372262 L27.9158783,20.4322938 L27.9177032,20.4273615 L27.9672632,20.2915849 L27.9690535,20.2866187 L27.9708109,20.2816525 L28.0187156,20.1452677 L28.020473,20.1403015 L28.0221681,20.1353016 L28.0684192,19.9983088 L28.0701144,19.9933426 L28.0717403,19.9883088 L28.1163343,19.8507418 L28.1179602,19.8457419 L28.119517,19.8406743 L28.1624228,19.7025666 L28.1640141,19.6975329 L28.1655017,19.6924653 L28.2067521,19.5537833 L28.2082397,19.5487158 L28.2096927,19.5436482 L28.2492532,19.4044257 L28.2507062,19.3993244 L28.2520899,19.3942231 L28.2899276,19.2544939 L28.2913114,19.2493924 L28.292626,19.2442911 L28.3288084,19.1040214 L28.330123,19.09892 L28.3313684,19.0937849 L28.3658279,18.9530422 L28.3670733,18.9479071 L28.3682841,18.9427382 L28.4010209,18.8015225 L28.4022317,18.7963536 L28.403356,18.7911846 L28.4344028,18.6495298 L28.4355098,18.6443271 L28.4365823,18.6391582 L28.4659063,18.4970302 L28.4669787,18.4918276 L28.4679647,18.4866249 L28.4955659,18.3440915 L28.4965864,18.3388551 L28.4975377,18.3336525 L28.5233815,18.1906799 L28.5243329,18.1854435 L28.525215,18.1802069 L28.549336,18.0368628 L28.5502182,18.0316264 L28.5510312,18.0263561 L28.5520863,18.019667 L28.5619181,17.8587554 L28.5417149,17.6988236 L28.4921877,17.5454118 L28.4150265,17.4038583 L28.3129658,17.2790953 L28.1895206,17.1754132 L28.048946,17.0964608 L27.8962097,17.0449744 L27.7365146,17.022711 L27.575377,17.0304804 Z M6.68122696,22.7341093 L6.52896388,22.7871497 L6.38923472,22.8674872 L6.26680262,22.9723855 L6.16599225,23.0981622 L6.0902492,23.2404927 L6.04227635,23.3943774 L6.02366158,23.5545119 L6.03511426,23.7153221 L6.0761952,23.8711999 L6.14548551,24.0167399 L6.22271491,24.126064 L6.26230949,24.1738002 L6.26572155,24.1778881 L6.26920123,24.1819759 L6.36393076,24.2933269 L6.36741045,24.2974148 L6.37092386,24.301435 L6.46713975,24.4117386 L6.47065333,24.4157588 L6.47420065,24.4197453 L6.57186916,24.528968 L6.5754502,24.5329545 L6.57906515,24.5369071 L6.67818628,24.6450148 L6.68180123,24.6489676 L6.68548364,24.6528865 L6.78605756,24.7598794 L6.78970624,24.7637983 L6.79342238,24.7676495 L6.8954491,24.8735276 L6.89916541,24.8773788 L6.90294901,24.8811965 L7.00639462,24.9859259 L7.01014466,24.9897434 L7.01396216,24.9935272 L7.11869157,25.0969728 L7.12250907,25.1007566 L7.1263942,25.1044727 L7.23227232,25.2064657 L7.23612355,25.2101818 L7.24004259,25.2138643 L7.34703534,25.3144382 L7.35095438,25.3180869 L7.35487324,25.3217355 L7.4630147,25.4208568 L7.46696747,25.4244716 L7.47095396,25.4280189 L7.5801765,25.5257213 L7.584163,25.5292685 L7.58818322,25.5327821 L7.69848684,25.628998 L7.70250706,25.6325114 L7.70656119,25.6359573 L7.81794588,25.7307206 L7.82200001,25.7341665 L7.8261216,25.7375786 L7.93855364,25.8308891 L7.9426415,25.8342676 L7.94679681,25.8376459 L8.0602762,25.9294361 L8.06439779,25.9327807 L8.06858701,25.9360916 L8.18307984,26.026429 L8.18726889,26.0297059 L8.19145811,26.0329492 L8.30696456,26.1218002 L8.31118751,26.1250435 L8.31544418,26.1282192 L8.43193035,26.21555 L8.43618703,26.2187594 L8.44047761,26.2219012 L8.55794332,26.3077118 L8.5622339,26.3108537 L8.56655821,26.3139281 L8.68500381,26.3982521 L8.68932812,26.4013601 L8.69368616,26.4043669 L8.81304385,26.4871706 L8.81740189,26.4902111 L8.82179383,26.4931842 L8.94213123,26.5744677 L8.94652317,26.5774406 L8.95094884,26.580346 L9.07216459,26.6601093 L9.07659026,26.6630484 L9.08104967,26.6658862 L9.20317768,26.7441292 L9.20763708,26.746967 L9.21213021,26.7497711 L9.33513657,26.8264599 L9.33962987,26.829264 L9.34415691,26.8320343 L9.46804162,26.9071692 L9.47256866,26.9099056 L9.47712942,26.9126083 L9.60185876,26.9861892 L9.60641952,26.9888919 L9.61098029,26.9915269 L9.73658798,27.0635539 L9.74114874,27.0661889 L9.74577714,27.0687565 L9.87219556,27.1392293 L9.87679022,27.1417967 L9.88145235,27.1442967 L10.0086817,27.2132154 L10.0133099,27.2157154 L10.0179722,27.2181816 L10.1460122,27.2855125 L10.1506743,27.2879788 L10.1553704,27.2903774 L10.2841537,27.3561204 L10.2888495,27.358519 L10.2935793,27.3608501 L10.4231396,27.4250052 L10.4278693,27.4273364 L10.4326328,27.4296336 L10.5629365,27.492201 L10.5677,27.4944645 L10.5724972,27.4966942 L10.703544,27.5576399 L10.7083075,27.5598697 L10.7131049,27.5620319 L10.844895,27.6213898 L10.8496922,27.6235519 L10.8545233,27.6256464 L10.986989,27.6833827 L10.9918201,27.6854772 L10.996685,27.6875382 L11.1298602,27.7436529 L11.1346912,27.7456798 L11.1395899,27.7476731 L11.2734069,27.8021661 L11.2783056,27.8041593 L11.2832042,27.806085 L11.4120889,27.8567266 L11.5669533,27.9014563 L11.7274594,27.9166252 L11.8879656,27.9017941 L12.0429651,27.8574024 L12.1869849,27.7850377 L12.3151263,27.6871665 L12.4228287,27.5672683 L12.5064432,27.4294309 L12.5629971,27.2784516 L12.5905983,27.1196346 L12.5881997,26.9584527 L12.5559363,26.8005141 L12.4949229,26.6512917 L12.4072882,26.5159882 L12.2960723,26.3992993 L12.1651269,26.3052795 L12.0446881,26.2468337 L11.9207358,26.1981514 L11.7950267,26.1469354 L11.6732029,26.0956179 L11.5510073,26.042341 L11.4304672,25.9880846 L11.3051298,25.9297739 L11.1860423,25.8726119 L11.0664482,25.8133893 L10.9465162,25.7521731 L10.8283747,25.6900451 L10.7110102,25.626498 L10.5923282,25.5603158 L10.4763827,25.4938296 L10.361248,25.4258905 L10.246147,25.3560936 L10.1327015,25.2853844 L10.0180396,25.2119048 L9.90618186,25.1383239 L9.79520261,25.0633241 L9.68506781,24.9869731 L9.57412229,24.9079531 L9.46408886,24.8275479 L9.35544059,24.7460619 L9.24895447,24.6641027 L9.14469814,24.5818395 L9.03882002,24.4961979 L8.93368533,24.4089345 L8.83267206,24.3229889 L8.72824691,24.2319419 L8.62767281,24.1419423 L8.5282476,24.0508278 L8.42834913,23.9569091 L8.33098471,23.8631257 L8.23189714,23.7652543 L8.1381475,23.6703223 L8.04166143,23.5701875 L7.94922932,23.4718095 L7.85662821,23.3707964 L7.76804751,23.2717425 L7.67804773,23.1685673 L7.58966974,23.0646825 L7.55389283,23.0215745 L7.43983917,22.9076222 L7.3066302,22.8168454 L7.15889415,22.7523525 L7.00173249,22.7164066 L6.84065197,22.7102581 L6.68122696,22.7341093 Z M21.7436065,25.4251811 L21.5883707,25.4685593 L21.4674596,25.5259915 L21.407663,25.5602482 L21.2888794,25.626498 L21.1715142,25.6900451 L21.0533724,25.7521731 L20.933442,25.8133893 L20.8138471,25.8726119 L20.6947591,25.9297739 L20.5694216,25.9880846 L20.4488823,26.042341 L20.326686,26.0956179 L20.2048633,26.1469354 L20.0791539,26.1981175 L19.9537489,26.2474079 L19.8300996,26.294266 L19.7026345,26.340786 L19.5779059,26.3846034 L19.4492577,26.4280492 L19.3234808,26.4688261 L19.1921965,26.5096031 L19.0645619,26.547542 L18.9379081,26.5835216 L18.8076046,26.6188256 L18.6768271,26.6525417 L18.5480785,26.6840618 L18.4157806,26.7147711 L18.2863558,26.7431158 L18.1513232,26.7709872 L18.0184856,26.7966628 L17.8883169,26.8202101 L17.7573371,26.8422369 L17.620784,26.8634869 L17.4891624,26.8823044 L17.3545692,26.8999057 L17.2225411,26.91548 L17.0851439,26.9300069 L16.9498069,26.9425746 L16.8171371,26.953284 L16.6786917,26.9627096 L16.5428824,26.9702771 L16.4093357,26.9760541 L16.2730525,26.9803109 L16.1325124,26.9829122 L15.9723089,27.0009188 L15.8182216,27.0483511 L15.675656,27.1235536 L15.5494732,27.2238911 L15.4441358,27.3459178 L15.3632577,27.4853767 L15.3096768,27.6374032 L15.2852174,27.7967607 L15.2907916,27.957875 L15.3261633,28.115138 L15.3900819,28.2631443 L15.4803856,28.396691 L15.5938643,28.5111501 L15.7266691,28.6025688 L15.8741003,28.6677713 L16.0310589,28.7044603 L16.1646732,28.7123319 L16.3102484,28.7096292 L16.3155846,28.7095254 L16.3209572,28.7093524 L16.4677467,28.7048256 L16.4730846,28.7046526 L16.4784572,28.7044156 L16.6249769,28.6980643 L16.6303477,28.6978273 L16.6356856,28.6975229 L16.7819683,28.6893472 L16.7873062,28.6890427 L16.7926442,28.6887054 L16.9386917,28.6787393 L16.943995,28.6783674 L16.9493329,28.677928 L17.095076,28.6661713 L17.1004139,28.6657665 L17.1057173,28.6652597 L17.2511905,28.6517123 L17.2564938,28.6512401 L17.2617989,28.6506659 L17.4069331,28.6353618 L17.4122364,28.6347875 L17.4175415,28.6341786 L17.5623384,28.6170841 L17.5676417,28.6164753 L17.5729122,28.6157661 L17.7174047,28.5969147 L17.7226751,28.5962384 L17.7279456,28.5954617 L17.8720662,28.5748536 L17.8773366,28.5741098 L17.8825725,28.5732986 L18.0263558,28.5509338 L18.0315934,28.5501226 L18.0368293,28.5492439 L18.1802078,28.5251223 L18.1854437,28.5242436 L18.1906467,28.5232975 L18.3336187,28.4974193 L18.3388563,28.4965077 L18.3440576,28.4954941 L18.4866249,28.4678929 L18.4918279,28.4668792 L18.4969963,28.465831 L18.6391243,28.4365069 L18.6443273,28.4354258 L18.6494957,28.4343101 L18.7911843,28.403263 L18.7963544,28.4021144 L18.8014883,28.4009313 L18.9427046,28.368161 L18.947873,28.3669778 L18.9530086,28.3657273 L19.093751,28.3312679 L19.0988866,28.3300173 L19.1039875,28.3286664 L19.2442577,28.2925179 L19.2493587,28.2911999 L19.2544597,28.2898143 L19.3942231,28.2519427 L19.399324,28.2505572 L19.4043921,28.2491389 L19.5436141,28.2095783 L19.5486822,28.2081254 L19.5537503,28.2066395 L19.6924326,28.1653898 L19.697499,28.1638694 L19.7025325,28.1623143 L19.8406751,28.1194091 L19.8457086,28.1178212 L19.8507075,28.1162004 L19.9882759,28.0716398 L19.9933094,28.0699844 L19.9983083,28.0682962 L20.1352679,28.0220464 L20.1402685,28.0203564 L20.1452674,28.0186336 L20.2816198,27.9707284 L20.2866187,27.9689717 L20.2915519,27.9671474 L20.4273283,27.9175868 L20.4322943,27.9157962 L20.4372257,27.9139044 L20.5723621,27.862722 L20.5772936,27.8608302 L20.5821921,27.8589045 L20.7166851,27.8060668 L20.7215837,27.8041411 L20.7264822,27.802148 L20.8602989,27.7476549 L20.8651974,27.7456616 L20.8700286,27.7436347 L21.0032052,27.68752 L21.0080692,27.6854591 L21.0129003,27.6833646 L21.145366,27.6256283 L21.1501971,27.6235338 L21.1549936,27.6213716 L21.2867847,27.5620137 L21.2915813,27.5598516 L21.2963449,27.5576218 L21.4273923,27.496676 L21.4321888,27.4944464 L21.4369524,27.4921829 L21.567256,27.4296155 L21.5720196,27.4273182 L21.5767504,27.4249871 L21.7063102,27.360832 L21.7110393,27.3585008 L21.7157355,27.3561022 L21.8445186,27.2903592 L21.8492148,27.2879606 L21.8538764,27.2854944 L21.9819175,27.2181635 L21.9865791,27.2156972 L21.9912078,27.2131973 L22.1184376,27.1442785 L22.1230992,27.1417785 L22.1276934,27.1392111 L22.254112,27.0687384 L22.2587407,27.0661708 L22.263302,27.0635357 L22.3281321,27.0263399 L22.459854,26.9334684 L22.5720836,26.8177257 L22.6608669,26.6831653 L22.7231646,26.5344834 L22.7567801,26.376815 L22.7605301,26.215667 L22.7343127,26.0566135 L22.6790428,25.9051613 L22.5966111,25.7666144 L22.4899218,25.6457702 L22.3626262,25.5468516 L22.2192131,25.473237 L22.064619,25.4275277 L21.9042148,25.4113115 L21.7436065,25.4251811 Z M15.9945739,3.25188064e-05 L15.8065339,0.00121564985 L15.8011959,0.00125024432 L15.7958234,0.00135402775 L15.608055,0.00483388598 L15.6026825,0.0049376694 L15.5973117,0.00511064178 L15.4098454,0.0109214757 L15.4044738,0.0110944481 L15.3991358,0.0113314203 L15.2119406,0.0194395003 L15.2066029,0.0196764725 L15.2012312,0.0199809038 L15.0143737,0.0304199596 L15.0090359,0.030724391 L15.0036981,0.0310616871 L14.8171447,0.043798162 L14.8118407,0.0441700526 L14.8065029,0.044574808 L14.620321,0.0596085289 L14.6150169,0.0600478788 L14.6096792,0.0605200933 L14.423869,0.0778173308 L14.418565,0.0783241399 L14.4132609,0.0788638137 L14.2278562,0.0984245676 L14.2225521,0.0989988359 L14.2172818,0.0996076987 L14.0322825,0.121431969 L14.0269785,0.122073697 L14.0217082,0.122750019 L13.8371481,0.146837806 L13.8318778,0.147546992 L13.8266076,0.148290773 L13.6425204,0.174608347 L13.6372501,0.175352129 L13.6319798,0.176196234 L13.4483657,0.204743421 L13.4430954,0.205587527 L13.437859,0.206466226 L13.2547177,0.237243028 L13.2495149,0.238121728 L13.2442785,0.239067886 L13.0616441,0.272108378 L13.0564412,0.273054536 L13.0512386,0.274068155 L12.8691109,0.30930453 L12.8639083,0.310318148 L12.8587393,0.311364631 L12.6771858,0.34883062 L12.6719831,0.349878833 L12.6668142,0.351027369 L12.4858351,0.390655513 L12.4806664,0.39180405 L12.4755312,0.392987181 L12.2951263,0.434845112 L12.2899913,0.436028243 L12.2848561,0.437278833 L12.1050594,0.481332648 L12.0999244,0.482583239 L12.0947892,0.483901288 L11.9246885,0.52775238 L11.7730336,0.582380688 L11.6341152,0.664204751 L11.5128318,0.770386784 L11.4133389,0.897244377 L11.3391161,1.04035203 L11.2927649,1.19474337 L11.2758394,1.3550469 L11.2889811,1.51572198 L11.3317176,1.67116066 L11.4025282,1.8159913 L11.4990142,1.94514614 L11.6177639,2.0541324 L11.7547229,2.13919952 L11.9050601,2.19737497 L12.0635731,2.22666542 L12.2247888,2.2259891 L12.3566126,2.20267848 L12.5220175,2.16004338 L12.6903615,2.11882735 L12.8611717,2.0791653 L13.0324887,2.04166541 L13.2044476,2.00622631 L13.3737376,1.97345618 L13.5471492,1.94207121 L13.7173849,1.91345639 L13.8937695,1.88599028 L14.0652891,1.86146331 L14.2399507,1.83869323 L14.4145785,1.81808513 L14.5899496,1.79957172 L14.7656245,1.78322047 L14.9413335,1.7690651 L15.1176165,1.75707189 L15.2940349,1.74724083 L15.4709263,1.73957193 L15.6451489,1.73416654 L15.8224456,1.73088958 L15.9999446,1.72977391 L16.1774437,1.73088958 L16.3547404,1.73416654 L16.5289634,1.73957193 L16.7058536,1.74724083 L16.8822733,1.75707189 L17.0585563,1.7690651 L17.2342651,1.78322047 L17.4099393,1.79957172 L17.5853108,1.81808513 L17.7599386,1.83869323 L17.9346009,1.86146331 L18.1061203,1.88599028 L18.2825037,1.91345639 L18.4527396,1.94207121 L18.6261513,1.97345618 L18.7954411,2.00622631 L18.9673999,2.04166541 L19.1212173,2.0753478 L19.2812168,2.09504365 L19.4420949,2.08467205 L19.5982423,2.04463846 L19.7442569,1.97629414 L19.8750655,1.88207141 L19.9860792,1.7652137 L20.0735115,1.62974122 L20.1342542,1.48045118 L20.1662472,1.3224449 L20.1683765,1.16122928 L20.1405383,1.002446 L20.0837152,0.851601984 L19.9998962,0.713899714 L19.891958,0.594170485 L19.7636817,0.496501807 L19.6195265,0.42437371 L19.4913851,0.385691379 L19.3330756,0.351029445 L19.3279055,0.349880909 L19.3227042,0.348832696 L19.1411506,0.311366707 L19.1359805,0.310320224 L19.1307792,0.309306606 L18.9486514,0.27407023 L18.9434484,0.273056612 L18.9382454,0.272110453 L18.7556108,0.239069962 L18.7503749,0.238123803 L18.7451719,0.237245104 L18.5620305,0.206468302 L18.5567946,0.205589602 L18.5515241,0.204745497 L18.3679088,0.176198309 L18.36264,0.175354204 L18.3573696,0.174610423 L18.173282,0.148292849 L18.1680115,0.147549068 L18.1627411,0.146839881 L17.9781813,0.122752094 L17.9729108,0.122075772 L17.9676075,0.121434045 L17.7826066,0.0996097743 L17.7773379,0.0990009116 L17.7720328,0.0984266433 L17.5866289,0.0788658893 L17.5813238,0.0783262155 L17.5760205,0.0778194065 L17.3902101,0.060522169 L17.3848722,0.0600499544 L17.3795688,0.0596106046 L17.1933866,0.0445768836 L17.1880486,0.0441721283 L17.1827453,0.0438002377 L16.9961911,0.0310637628 L16.9908532,0.0307264667 L16.9855153,0.0304220353 L16.7986584,0.0199829795 L16.7932859,0.0196785481 L16.787948,0.019441576 L16.6007538,0.0113334959 L16.5954159,0.0110965238 L16.5900434,0.0109235514 L16.4025776,0.00511271745 L16.3972068,0.00493974507 L16.3918343,0.00483596165 L16.2040659,0.00135610342 L16.1986934,0.00125231999 L16.1933554,0.00121772552 L16.0053154,3.45944749e-05 L15.9999446,0 L15.9945739,3.25188064e-05 Z M24.85434,2.93890754 L24.6966376,2.97235331 L24.5478883,3.03448152 L24.4132604,3.12312987 L24.2974156,3.23522409 L24.2043755,3.36687908 L24.1373833,3.51353388 L24.0987672,3.67001991 L24.0898834,3.83099907 L24.111031,3.99079579 L24.1614368,4.14393706 L24.2394093,4.28501765 L24.3422137,4.40920645 L24.443835,4.49630081 L24.489408,4.52961149 L24.6308614,4.6356247 L24.7675839,4.74079311 L24.907887,4.85150218 L25.0439004,4.96153561 L25.1786632,5.07332576 L25.3134605,5.18802132 L25.4472097,5.30471021 L25.5765325,5.42038549 L25.7088633,5.54166887 L25.8370393,5.66214136 L25.9637952,5.78426937 L26.0905182,5.90940399 L26.2143681,6.03480896 L26.337815,6.16291663 L26.45947,6.29237572 L26.577003,6.42055085 L26.6952798,6.5527801 L26.8118666,6.68642841 L26.9252448,6.81967111 L27.038386,6.95605585 L27.1484864,7.0921026 L27.2567637,7.22933179 L27.3655806,7.37081783 L27.4703776,7.51058089 L27.5733169,7.65145876 L27.6744314,7.79348534 L27.7738559,7.93672809 L27.8726404,8.08290998 L27.9683824,8.22844998 L28.0622683,8.37496986 L28.1554762,8.52446245 L28.2468281,8.67507018 L28.3344628,8.82365069 L28.4209836,8.9744947 L28.5055429,9.12611589 L28.5893601,9.28091267 L28.6695968,9.43344594 L28.7485155,9.58807373 L28.7888198,9.66935725 L28.8734811,9.80655271 L28.9821631,9.92560631 L29.1110483,10.0224304 L29.2556757,10.0936801 L29.4109789,10.1368556 L29.5716201,10.1504367 L29.7319914,10.1339502 L29.886518,10.0880383 L30.0298291,10.0142209 L30.1569223,9.91506589 L30.2634421,9.79408642 L30.3456715,9.65540461 L30.4007061,9.50388479 L30.4266848,9.3447976 L30.4226995,9.18361571 L30.3888471,9.02601487 L30.3389152,8.90182607 L30.2970576,8.81726558 L30.294693,8.81253583 L30.2922939,8.80783997 L30.2083418,8.64331349 L30.2059426,8.63861747 L30.2034761,8.63395534 L30.1174638,8.47044248 L30.1150301,8.46574645 L30.1124978,8.46111806 L30.0244912,8.29861864 L30.0219571,8.29395652 L30.0193902,8.28936203 L29.9293892,8.12787605 L29.9267877,8.12328156 L29.9241862,8.1186869 L29.8321597,7.95824827 L29.8295253,7.95368751 L29.8268218,7.94912675 L29.7328355,7.78976903 L29.7301337,7.78524217 L29.7273973,7.78071514 L29.6314184,7.6224724 L29.6286473,7.61794536 L29.6258781,7.61345223 L29.5279048,7.4563243 L29.5251009,7.45183117 L29.5222295,7.4473716 L29.4222965,7.29135865 L29.4194597,7.28689925 L29.4165192,7.28247357 L29.3146281,7.12760933 L29.3117222,7.12318366 L29.3087505,7.11879172 L29.2049325,6.96510974 L29.2019591,6.96071797 L29.19892,6.95635976 L29.0931422,6.8038604 L29.0901013,6.79950219 L29.0870276,6.79517788 L28.9793246,6.64392841 L28.976218,6.63957037 L28.9731097,6.63531369 L28.863447,6.48524667 L28.8603058,6.48095609 L28.85713,6.47669941 L28.7455767,6.32791601 L28.7423663,6.32365933 L28.7391231,6.31943639 L28.6256445,6.17190306 L28.6224013,6.16768011 L28.6191235,6.16349089 L28.5037526,6.01724154 L28.5004419,6.01308605 L28.4970967,6.00893074 L28.3798006,5.86399874 L28.3764553,5.85984343 L28.3730443,5.85575557 L28.2538889,5.7121411 L28.2504761,5.70801952 L28.2470305,5.70396556 L28.1259844,5.56170253 L28.1225371,5.55761468 L28.119024,5.55359445 L27.9961185,5.41268268 L27.9926054,5.40866246 L27.9890578,5.40467596 L27.8642617,5.26514953 L27.860714,5.26116303 L27.8570989,5.25724417 L27.7304779,5.11913645 L27.7268628,5.11518369 L27.7231819,5.11126483 L27.5947015,4.97457617 L27.5910535,4.97069104 L27.5873363,4.96680591 L27.4570328,4.83156988 L27.4533174,4.82771848 L27.4495327,4.82390098 L27.317406,4.69011774 L27.3136214,4.68630007 L27.3098039,4.6825163 L27.1760201,4.55038841 L27.1722026,4.54660464 L27.1683523,4.5428885 L27.0330827,4.41258478 L27.0292306,4.40886864 L27.0253456,4.40518623 L26.8886231,4.27674075 L26.8847381,4.27305834 L26.8807857,4.26944339 L26.7426776,4.14282225 L26.7387252,4.13920748 L26.7347382,4.13562643 L26.5952118,4.01086336 L26.5912594,4.00731604 L26.5872049,4.00380245 L26.4463275,3.88089745 L26.4422731,3.87738403 L26.4382186,3.87390435 L26.2959557,3.75289115 L26.291903,3.74941146 L26.2877811,3.74599941 L26.1441656,3.62684427 L26.1400782,3.62346595 L26.1359234,3.62008763 L25.9909916,3.50282447 L25.9868351,3.49947987 L25.9826474,3.49616918 L25.8363975,3.38079782 L25.832241,3.37748713 L25.8280188,3.37424389 L25.6804854,3.2607645 L25.6762632,3.25752127 L25.6720063,3.25434567 L25.5232224,3.14279198 L25.5189656,3.13958248 L25.5146758,3.13647434 L25.464372,3.09971771 L25.3259267,3.01715056 L25.1745412,2.96171153 L25.0155208,2.93532649 L24.85434,2.93890754 Z M6.47291685,3.28684545 L6.31605927,3.32404126 L6.16886376,3.38975052 L6.05768179,3.4642774 L6.01724275,3.49616918 L6.01305353,3.49947987 L6.00889804,3.50282447 L5.86396622,3.62008763 L5.85981073,3.62346595 L5.85572305,3.62684427 L5.71210859,3.74599941 L5.707987,3.74941146 L5.70393305,3.75289115 L5.56167001,3.87390435 L5.55761589,3.87738403 L5.55356193,3.88089745 L5.41268406,4.00380245 L5.40862994,4.00731604 L5.40467717,4.01086336 L5.26515074,4.13562643 L5.26116424,4.13920748 L5.25721148,4.14282225 L5.11910393,4.26944339 L5.11515117,4.27305834 L5.11126604,4.27674075 L4.97454366,4.40518623 L4.97065852,4.40886864 L4.96680712,4.41258478 L4.83153736,4.5428885 L4.82768596,4.54660464 L4.82386846,4.55038841 L4.69008505,4.6825163 L4.68626755,4.68630007 L4.68248378,4.69011774 L4.55035589,4.82390098 L4.54657212,4.82771848 L4.54285598,4.83156988 L4.41255226,4.96680591 L4.40883612,4.97069104 L4.40518744,4.97457617 L4.27670823,5.11126483 L4.27302582,5.11518369 L4.26941087,5.11913645 L4.14278973,5.25724417 L4.13917496,5.26116303 L4.13562764,5.26514953 L4.01083067,5.40467596 L4.00728352,5.40866246 L4.00376993,5.41268268 L3.88086493,5.55359445 L3.87735152,5.55761468 L3.87390556,5.56170253 L3.75285863,5.70396556 L3.74941267,5.70801952 L3.74600062,5.7121411 L3.62684549,5.85575557 L3.62343343,5.85984343 L3.62008884,5.86399874 L3.50279195,6.00893074 L3.49944735,6.01308605 L3.49613649,6.01724154 L3.3807653,6.16349089 L3.37748834,6.16768011 L3.37424511,6.17190306 L3.26076571,6.31943639 L3.25752248,6.32365933 L3.25431298,6.32791601 L3.14275946,6.47669941 L3.13958369,6.48095609 L3.13644182,6.48524667 L3.0267801,6.63531369 L3.02367196,6.63957037 L3.02056382,6.64392841 L2.91286153,6.79517788 L2.9097873,6.79950219 L2.90674679,6.8038604 L2.80097003,6.95635976 L2.79792952,6.96071797 L2.79495647,6.96510974 L2.69113932,7.11879172 L2.68816644,7.12318366 L2.68526102,7.12760933 L2.5833694,7.28247357 L2.58043025,7.28689925 L2.57759247,7.29135865 L2.47766027,7.4473716 L2.47478876,7.45183117 L2.4719847,7.4563243 L2.37401211,7.61345223 L2.37124179,7.61794536 L2.36847146,7.6224724 L2.2724922,7.78071514 L2.26975561,7.78524217 L2.26705291,7.78976903 L2.17306682,7.94912675 L2.17036412,7.95368751 L2.16772906,7.95824827 L2.07570222,8.1186869 L2.07310089,8.12328156 L2.07049956,8.12787605 L1.98049996,8.28936203 L1.97793236,8.29395652 L1.97539849,8.29861864 L1.88739204,8.46111806 L1.88485834,8.46574645 L1.88242583,8.47044248 L1.79641273,8.63395534 L1.79394649,8.63861747 L1.79154788,8.64331349 L1.70759539,8.80783997 L1.70519678,8.81253583 L1.7028319,8.81726558 L1.62090648,8.98277178 L1.61854177,8.98750154 L1.61627826,8.99226502 L1.53634599,9.15871703 L1.53408248,9.16348052 L1.53185286,9.168244 L1.45398139,9.33564217 L1.45178551,9.34043938 L1.44958962,9.34523677 L1.40462355,9.44513507 L1.35239402,9.59763443 L1.32938731,9.7571947 L1.33641432,9.91827522 L1.37317095,10.0752004 L1.43844103,10.2226324 L1.52992716,10.3553683 L1.64445373,10.4688139 L1.77806814,10.5590163 L1.92607437,10.6228675 L2.08337113,10.6581713 L2.24448555,10.6636443 L2.4038092,10.6391174 L2.55583583,10.5854689 L2.6952609,10.5045232 L2.81721992,10.3991182 L2.91748993,10.2729025 L2.9817464,10.1554703 L3.02455032,10.0604032 L3.0987392,9.90094426 L3.17380662,9.74462722 L3.25140774,9.5880061 L3.33029248,9.43344594 L3.41052883,9.28091267 L3.49434605,9.12611589 L3.57890654,8.9744947 L3.66542645,8.82365069 L3.75306135,8.67507018 L3.84441239,8.52446245 L3.93762149,8.37496986 L4.0315064,8.22844998 L4.1272492,8.08290998 L4.22603269,7.93672809 L4.32545807,7.79348534 L4.42657254,7.65145876 L4.52951134,7.51058089 L4.63430838,7.37081783 L4.74312547,7.22933179 L4.8514022,7.0921026 L4.9615031,6.95605585 L5.07464467,6.81967111 L5.18802253,6.68642841 L5.30461006,6.5527801 L5.42288667,6.42055085 L5.54042001,6.29237572 L5.66207494,6.16291663 L5.78552048,6.03480896 L5.90937147,5.90940399 L6.03609397,5.78426937 L6.16285038,5.66214136 L6.2910255,5.54166887 L6.42335611,5.42038549 L6.55267995,5.30471021 L6.68642963,5.18802132 L6.82122648,5.07332576 L6.95598943,4.96153561 L7.09210381,4.85140082 L7.12902943,4.82224563 L7.24571816,4.71106349 L7.33977188,4.58011804 L7.40787976,4.43400377 L7.44767689,4.2777881 L7.45781204,4.11691013 L7.43791347,3.95694458 L7.38865682,3.8034316 L7.31176523,3.66174284 L7.20990751,3.53677704 L7.08666469,3.43289225 L6.94625973,3.35366952 L6.79359137,3.30191307 L6.63396347,3.27934554 L6.47291685,3.28684545 Z M30.9868178,14.4368745 L30.8304335,14.4761311 L30.6840833,14.5436985 L30.5528335,14.6372792 L30.4411781,14.7535964 L30.3531041,14.8885959 L30.2915847,15.0375819 L30.2587805,15.1954192 L30.2542192,15.3292025 L30.2602335,15.4682223 L30.2657392,15.6452825 L30.2690499,15.8224778 L30.2701223,15.9999772 L30.2690499,16.177409 L30.2657392,16.3546381 L30.2602335,16.5316308 L30.2525639,16.7083193 L30.2426993,16.8848728 L30.2306725,17.0609195 L30.216449,17.2371689 L30.2003677,17.4099724 L30.1818891,17.5850055 L30.1612137,17.7603089 L30.1384765,17.9344976 L30.1135443,18.1087199 L30.0869913,18.2794287 L30.0577347,18.4532795 L30.0265513,18.6257452 L29.9936121,18.795981 L29.9581736,18.9679062 L29.9207406,19.1387164 L29.8815866,19.3076009 L29.839255,19.4804043 L29.796114,19.6475997 L29.751181,19.8135451 L29.7031414,19.9827 L29.6532423,20.1504358 L29.601316,20.3176312 L29.5481754,20.4815833 L29.4919248,20.6481029 L29.4336141,20.8140485 L29.374864,20.97496 L29.3125334,21.1394188 L29.2504726,21.2973912 L29.1836154,21.4616138 L29.1163187,21.6212753 L29.0460487,21.7825248 L28.9753047,21.9395512 L28.9011497,22.0990101 L28.82659,22.254246 L28.7485155,22.4119145 L28.6678394,22.5699206 L28.6082452,22.7197175 L28.5775029,22.8779602 L28.5766553,23.0391758 L28.6057077,23.1977226 L28.6637158,23.3481612 L28.7486141,23.4851879 L28.8574984,23.6040725 L28.9865185,23.7006938 L29.1312462,23.7717071 L29.2866515,23.8146124 L29.4472927,23.8279568 L29.6076312,23.811234 L29.7620903,23.7650516 L29.9052648,23.6909978 L30.0322576,23.591674 L30.1385751,23.470492 L30.2084732,23.3563369 L30.2922904,23.1920806 L30.2946896,23.1873848 L30.2970541,23.182655 L30.378979,23.0171488 L30.3813435,23.0124191 L30.3836078,23.0076895 L30.46354,22.8412036 L30.4658025,22.8364738 L30.4680338,22.8316766 L30.5459043,22.6642784 L30.548101,22.659515 L30.550296,22.6546838 L30.6260735,22.4863738 L30.6282685,22.4815764 L30.6303632,22.4767454 L30.7041135,22.3075229 L30.7062082,22.302692 L30.7082683,22.2978269 L30.7799238,22.12776 L30.7819839,22.1228951 L30.7839783,22.1179966 L30.853572,21.9470513 L30.8555317,21.9421525 L30.8574915,21.9372539 L30.9249905,21.765464 L30.9269174,21.7605654 L30.9287752,21.7556329 L30.9941795,21.5829984 L30.9960718,21.5780661 L30.9978621,21.5731336 L31.0611734,21.3996883 L31.0629965,21.3947558 L31.0647263,21.3897559 L31.1259429,21.2155673 L31.1277003,21.2105672 L31.1293954,21.205601 L31.1884499,21.0306018 L31.1901451,21.0256016 L31.191771,21.0206017 L31.2487308,20.8448929 L31.2503568,20.8398591 L31.2519481,20.8348254 L31.3067457,20.6583733 L31.3083371,20.6533395 L31.3098247,20.6482719 L31.362493,20.4711442 L31.3640152,20.4660767 L31.3654681,20.4609754 L31.4159743,20.2831719 L31.4174273,20.2780706 L31.4188111,20.2729691 L31.4671551,20.0944901 L31.4685389,20.0893887 L31.4698535,20.0842536 L31.5160683,19.9050989 L31.5173829,19.8999974 L31.5186283,19.8948624 L31.562648,19.7150657 L31.5638934,19.7099305 L31.5651042,19.7047955 L31.6069272,19.5243907 L31.608138,19.5192217 L31.609245,19.5140528 L31.6489076,19.3330737 L31.6500146,19.3279049 L31.651087,19.322736 L31.68852,19.1411825 L31.6895924,19.1359798 L31.690613,19.1307771 L31.7258492,18.9486832 L31.7268697,18.9434806 L31.727821,18.9382779 L31.7608276,18.7556433 L31.761779,18.7504069 L31.7626611,18.7451704 L31.793471,18.5620291 L31.7943531,18.5567927 L31.7951661,18.5515561 L31.8237463,18.3679083 L31.8245593,18.3626717 L31.8253031,18.3574014 L31.8516554,18.1733143 L31.8523992,18.168044 L31.8531084,18.1627738 L31.8771619,17.9782136 L31.8778711,17.9729096 L31.8784765,17.9676393 L31.9003005,17.78264 L31.9009405,17.7773359 L31.9014767,17.7720657 L31.9210381,17.5866272 L31.9216089,17.5813231 L31.9221105,17.5760191 L31.9393749,17.3902089 L31.9398765,17.3849049 L31.940309,17.3796008 L31.9553091,17.193419 L31.9557416,17.1880812 L31.9561221,17.1827434 L31.9688252,16.9962238 L31.9692057,16.9908859 L31.9694998,16.9855481 L31.9799404,16.7986569 L31.9802171,16.793319 L31.9804593,16.7879812 L31.9886011,16.6007859 L31.9888433,16.5954481 L31.9890163,16.5900765 L31.9948264,16.4025772 L31.9949994,16.3972393 L31.9951723,16.3918677 L31.9986508,16.2040981 L31.9988238,16.1987265 L31.9988238,16.1933549 L32,16.0053488 L31.9995676,16.0005177 L32,15.9946056 L31.9988238,15.8065657 L31.9988238,15.8011941 L31.9986508,15.7958225 L31.9951723,15.6080529 L31.9949994,15.6027151 L31.9948264,15.5973435 L31.9890163,15.4098441 L31.9888433,15.4045063 L31.9886011,15.3991685 L31.982317,15.2542028 L31.9603236,15.0944736 L31.9091082,14.9416363 L31.8303919,14.8009611 L31.7269458,14.6773129 L31.6023521,14.5750159 L31.4609333,14.4976175 L31.3076227,14.4478204 L31.1477253,14.4273475 L30.9868178,14.4368745 Z M0.776787799,15.0003185 L0.618680325,15.0317711 L0.469153836,15.0920074 L0.333410998,15.1789665 L0.216147836,15.2895742 L0.121486109,15.4200468 L0.0526349747,15.5658233 L0.0120607756,15.7218363 L0.000878371015,15.8552142 L-3.19332164e-17,15.9946056 L-3.19332164e-17,15.9999772 L-3.19332164e-17,16.0053488 L0.00118243915,16.1933549 L0.00121703363,16.1987265 L0.00131908733,16.2040981 L0.00479880718,16.3918677 L0.00490086088,16.3972393 L0.00507037381,16.4025772 L0.0108811559,16.5900765 L0.0110506688,16.5954481 L0.011287122,16.6007859 L0.019428949,16.7879812 L0.0196659212,16.793319 L0.0199357581,16.7986569 L0.0303749868,16.9855481 L0.0306794182,16.9908859 L0.0310513088,16.9962238 L0.043754054,17.1827434 L0.0441259446,17.1880812 L0.0445652945,17.193419 L0.0595652858,17.3796008 L0.0600046357,17.3849049 L0.0605114447,17.3902089 L0.0777747796,17.5760191 L0.0782815886,17.5813231 L0.0788558569,17.5866272 L0.0984166109,17.7720657 L0.0989562847,17.7773359 L0.0995980122,17.78264 L0.121422283,17.9676393 L0.122031145,17.9729096 L0.122740332,17.9782136 L0.146794389,18.1627738 L0.147503576,18.168044 L0.148247357,18.1733143 L0.174598661,18.3574014 L0.175342442,18.3626717 L0.176153682,18.3679083 L0.204734773,18.5515561 L0.205546013,18.5567927 L0.206424713,18.5620291 L0.237235417,18.7451704 L0.238114117,18.7504069 L0.239060276,18.7556433 L0.272067037,18.9382779 L0.273013196,18.9434806 L0.274026814,18.9486832 L0.30926319,19.1307771 L0.310276808,19.1359798 L0.311357885,19.1411825 L0.348790145,19.322736 L0.349871222,19.3279049 L0.350986894,19.3330737 L0.390648767,19.5140528 L0.391764439,19.5192217 L0.392980435,19.5243907 L0.434804636,19.7047955 L0.436020632,19.7099305 L0.437271222,19.7150657 L0.481291308,19.8948624 L0.482541898,19.8999974 L0.483859948,19.9050989 L0.530075918,20.0842536 L0.531393967,20.0893887 L0.532779476,20.0944901 L0.581123871,20.2729691 L0.582509379,20.2780706 L0.583962347,20.2831719 L0.634468897,20.4609754 L0.635921865,20.4660767 L0.637442292,20.4711442 L0.690110996,20.6482719 L0.691596829,20.6533395 L0.693184715,20.6583733 L0.747981845,20.8348254 L0.749569731,20.8398591 L0.751190482,20.8448929 L0.808149766,21.0206017 L0.809770518,21.0256016 L0.811460458,21.0306018 L0.870514264,21.205601 L0.872204204,21.2105672 L0.873960912,21.2155673 L0.935176873,21.3897559 L0.936899678,21.3947558 L0.938724017,21.3996883 L1.00203467,21.5731336 L1.00382511,21.5780661 L1.00571708,21.5829984 L1.07112226,21.7556329 L1.07298033,21.7605654 L1.07490603,21.765464 L1.14240573,21.9372539 L1.14436517,21.9421525 L1.1463246,21.9470513 L1.21591899,22.1179966 L1.21791233,22.1228951 L1.21997312,22.12776 L1.29162831,22.2978269 L1.2936891,22.302692 L1.29578363,22.3075229 L1.36953334,22.4767454 L1.37162803,22.4815764 L1.37382392,22.4863738 L1.44960069,22.6546838 L1.45179658,22.659515 L1.45399246,22.6642784 L1.53186393,22.8316766 L1.53409355,22.8364738 L1.53635706,22.8412036 L1.61628933,23.0076895 L1.61855284,23.0124191 L1.62091755,23.0171488 L1.70284297,23.182655 L1.70520785,23.1873848 L1.70760646,23.1920806 L1.72807947,23.2321819 L1.81443039,23.3683301 L1.92453146,23.4860662 L2.05459856,23.5813024 L2.20007109,23.6507615 L2.35588132,23.6920452 L2.51669149,23.7036668 L2.6768262,23.6852546 L2.83077836,23.637417 L2.97317648,23.5618767 L3.09908826,23.4612014 L3.20412159,23.3389044 L3.28462812,23.1992429 L3.33783736,23.0470474 L3.36185752,22.887656 L3.35591159,22.7265755 L3.32013468,22.5693801 L3.26868214,22.4457995 L3.25141881,22.4119482 L3.17331088,22.254246 L3.09875045,22.0990101 L3.02459529,21.9395512 L2.95385218,21.7825248 L2.88358215,21.6212753 L2.81628518,21.4616138 L2.7494272,21.2973912 L2.68736679,21.1394188 L2.62503602,20.97496 L2.56628613,20.8140485 L2.50797558,20.6481029 L2.45172566,20.4815833 L2.39858405,20.3176312 L2.34665861,20.1504358 L2.29676005,19.9827 L2.24871957,19.8135451 L2.2037874,19.6475997 L2.16064567,19.4804043 L2.11831466,19.3076009 L2.07915942,19.1387164 L2.04172716,18.9679062 L2.00628806,18.795981 L1.97334894,18.6257452 L1.94216669,18.4532795 L1.91290997,18.2794287 L1.88635611,18.1087199 L1.8614237,17.9344976 L1.83868735,17.7603089 L1.81801179,17.5850055 L1.79953211,17.4099724 L1.78345104,17.2371689 L1.76922804,17.0609195 L1.7572011,16.8848728 L1.74733631,16.7083193 L1.73966741,16.5316308 L1.73416049,16.3546381 L1.7308498,16.177409 L1.72976872,15.9999434 L1.73057996,15.8659574 L1.71655968,15.7053498 L1.67297877,15.5501477 L1.60132358,15.4057563 L1.50412799,15.2771419 L1.38477047,15.1687977 L1.24737212,15.0844736 L1.09669692,15.0271427 L0.938015177,14.9987644 L0.776787799,15.0003185 Z M6.17038402,26.8415276 L6.01808738,26.8943653 L5.87822295,26.9745675 L5.7557234,27.0793308 L5.65474403,27.205006 L5.57886589,27.3472353 L5.53072405,27.5010861 L5.51194046,27.6612206 L5.52319041,27.822031 L5.56413608,27.9779426 L5.63325757,28.1235839 L5.72822338,28.2538537 L5.82430418,28.3470291 L5.85572305,28.3730763 L5.85981073,28.3764884 L5.86396622,28.379833 L6.00889804,28.4970961 L6.01305353,28.5004745 L6.01724275,28.5037516 L6.1634921,28.6191228 L6.16764759,28.6224335 L6.17187054,28.6256767 L6.31940387,28.7391561 L6.32362682,28.7423993 L6.32788349,28.7455749 L6.47666672,28.8571625 L6.48092357,28.8603381 L6.48521398,28.86348 L6.63528118,28.973108 L6.63957158,28.9762499 L6.64389589,28.9793243 L6.79517926,29.0870603 L6.79950357,29.0901347 L6.80386161,29.0931752 L6.95636115,29.1989518 L6.96068545,29.2019586 L6.96511113,29.2049314 L7.11879293,29.3087825 L7.12318487,29.3117555 L7.12761054,29.3146608 L7.28244106,29.4165524 L7.28686673,29.4194578 L7.29132613,29.4223293 L7.44733908,29.5222615 L7.45179848,29.5250993 L7.45629178,29.5279034 L7.61341954,29.625876 L7.61791285,29.62868 L7.62243988,29.6314165 L7.78068262,29.7274298 L7.78520948,29.7301662 L7.78977041,29.7328352 L7.94909406,29.826855 L7.95365499,29.8295577 L7.95824948,29.8321929 L8.11865438,29.9241859 L8.12324887,29.9268209 L8.12784354,29.9293885 L8.28932951,30.019422 L8.29395773,30.0219895 L8.29858612,30.0245233 L8.46108554,30.1125298 L8.46574766,30.1150297 L8.47040996,30.117496 L8.63392282,30.2035091 L8.63861885,30.2059416 L8.6433147,30.2083402 L8.80784118,30.2923264 L8.81253704,30.294725 L8.81726679,30.2970562 L8.98273926,30.3790153 L8.98746884,30.3813463 L8.99223233,30.3836437 L9.15868451,30.4635421 L9.163448,30.4658393 L9.16821148,30.4680691 L9.33560965,30.5459067 L9.34040687,30.5481363 L9.34520408,30.5502985 L9.51351433,30.626109 L9.51834545,30.6282711 L9.52317657,30.6303995 L9.69236517,30.7041155 L9.69723002,30.706244 L9.70206097,30.7082708 L9.87216183,30.7799598 L9.87702667,30.7819868 L9.88189152,30.7839802 L10.0528706,30.8535744 L10.0577354,30.8555677 L10.0626679,30.8574934 L10.2344578,30.9249931 L10.2393564,30.9269526 L10.2442889,30.9288106 L10.4169234,30.9942158 L10.421822,30.996074 L10.4267882,30.9978982 L10.6001998,31.0612089 L10.605166,31.0629995 L10.6101322,31.0647562 L10.7843546,31.1259721 L10.7893209,31.127695 L10.7943208,31.1293849 L10.9692863,31.1884724 L10.9742863,31.1901624 L10.9793201,31.1917831 L11.1550289,31.2487424 L11.1600628,31.2503632 L11.1650966,31.2519164 L11.3415148,31.3067473 L11.3465823,31.3083023 L11.3516162,31.3098228 L11.5287778,31.3624915 L11.5338452,31.3640119 L11.5389127,31.3654303 L11.71675,31.4159707 L11.7218514,31.4174237 L11.7269527,31.4188092 L11.9054319,31.4671536 L11.9105332,31.4685391 L11.9156682,31.4698571 L12.0947892,31.5160733 L12.0999244,31.5173913 L12.1050594,31.5186419 L12.2848561,31.562662 L12.2899913,31.5639126 L12.2951263,31.5651286 L12.4755312,31.6069528 L12.4806664,31.6081359 L12.4858351,31.6092845 L12.6446521,31.6440817 L12.8046855,31.6637438 L12.9655295,31.6533722 L13.1217113,31.6133384 L13.2677244,31.5450278 L13.398501,31.4507715 L13.5095479,31.3339138 L13.5969462,31.1984751 L13.657723,31.0491511 L13.6897161,30.891145 L13.6918108,30.7299631 L13.6640067,30.5711799 L13.6071827,30.4203021 L13.5233316,30.2825998 L13.4154265,30.1628704 L13.2871501,30.0652357 L13.1429613,29.9931076 L13.0148199,29.9544252 L12.861138,29.920743 L12.6928953,29.8817566 L12.5219838,29.8398987 L12.352964,29.7963178 L12.1838767,29.7505071 L12.017222,29.7031761 L11.8494523,29.6532777 L11.6840137,29.6018589 L11.5182709,29.5481766 L11.351785,29.4919606 L11.1891842,29.4348325 L11.0239821,29.3744949 L10.8628678,29.3134477 L10.6992197,29.2491574 L10.5383082,29.183651 L10.3786466,29.1163538 L10.217397,29.0460838 L10.0603706,28.9753409 L9.90310762,28.9021992 L9.74560814,28.8265914 L9.590102,28.7495984 L9.43658902,28.6712541 L9.28081252,28.5893624 L9.12817789,28.5066939 L8.97436082,28.4209847 L8.82371953,28.3345659 L8.67189562,28.2449718 L8.52446383,28.1555464 L8.37686287,28.0634859 L8.2283161,27.9683511 L8.08287746,27.8726757 L7.93855364,27.7751423 L7.79352028,27.6745008 L7.65139251,27.5733187 L7.51044701,27.4703122 L7.37078531,27.3656167 L7.2306507,27.2578468 L7.09203635,27.1484553 L6.95602316,27.0384218 L6.9288274,27.0158543 L6.7956859,26.9249424 L6.64801748,26.8602805 L6.49092345,26.8241658 L6.32984292,26.8178483 L6.17038402,26.8415276 Z M25.3843377,26.9146016 L25.2279534,26.9537569 L25.0815686,27.0212566 L24.9712987,27.0971347 L24.9078524,27.1484522 L24.7692393,27.2578437 L24.629104,27.3656136 L24.4894426,27.4703091 L24.3484961,27.5733156 L24.2063682,27.6744976 L24.061336,27.7751392 L23.9170113,27.8726726 L23.7715727,27.968348 L23.6230257,28.0634828 L23.4754249,28.1555433 L23.3279937,28.2449687 L23.1761706,28.3345628 L23.025529,28.4209815 L22.8717116,28.5066907 L22.7190773,28.5893593 L22.5633001,28.671251 L22.4097871,28.7495953 L22.2542815,28.8265883 L22.0967815,28.9021961 L21.9395185,28.9753378 L21.7824924,29.0460807 L21.6212424,29.1163507 L21.461582,29.1836479 L21.3006692,29.2491543 L21.1370218,29.3134446 L20.9759067,29.3744918 L20.8107042,29.4348294 L20.648105,29.4919575 L20.4816191,29.5481735 L20.3158752,29.6018558 L20.1504375,29.6532746 L19.9826682,29.703173 L19.8160127,29.750504 L19.6469253,29.7963147 L19.4779054,29.8398956 L19.3069948,29.8817535 L19.1387169,29.9207736 L18.9699011,29.9577667 L18.8589895,29.9806383 L18.7048348,30.0277666 L18.5620979,30.1026987 L18.4357468,30.2028335 L18.3301731,30.3246574 L18.2490249,30.4639474 L18.1951734,30.6159064 L18.1704435,30.7751963 L18.1756811,30.9363107 L18.2107478,31.0936749 L18.2744293,31.2417825 L18.3644632,31.3754983 L18.4777393,31.4901601 L18.6103417,31.581849 L18.7576709,31.6472879 L18.9145638,31.6842811 L19.0756097,31.6915107 L19.2084127,31.6746865 L19.3227042,31.6511393 L19.3279055,31.6500582 L19.3330756,31.6489097 L19.5140549,31.6092815 L19.5192233,31.608133 L19.5243588,31.6069499 L19.7047621,31.5651257 L19.7098977,31.5639097 L19.7150332,31.5626591 L19.8948293,31.518639 L19.8999649,31.5173884 L19.9051004,31.5160703 L20.0842202,31.4698542 L20.0893558,31.4685362 L20.0944568,31.4671506 L20.2729366,31.4188062 L20.2780375,31.4174207 L20.2831385,31.4159678 L20.4609766,31.3654273 L20.4660447,31.3640089 L20.471111,31.3624885 L20.6482728,31.3098198 L20.6533063,31.3082994 L20.6583744,31.3067444 L20.8347924,31.2519135 L20.8398259,31.2503602 L20.8448611,31.2487395 L21.0205699,31.1917802 L21.0256034,31.1901594 L21.0306023,31.1884695 L21.205569,31.129382 L21.2105679,31.127692 L21.215534,31.1259692 L21.3897569,31.0647532 L21.394723,31.0629965 L21.399689,31.0612059 L21.5731007,30.9978953 L21.5780668,30.9960711 L21.5829653,30.9942129 L21.7556004,30.9288077 L21.7605336,30.9269496 L21.7654322,30.9249902 L21.9372214,30.8574905 L21.9421546,30.8555648 L21.9470186,30.8535714 L22.1179983,30.7839772 L22.1228623,30.7819839 L22.127728,30.7799568 L22.297829,30.7082679 L22.3026601,30.706241 L22.3075241,30.7041126 L22.4767136,30.6303966 L22.4815447,30.6282682 L22.4863741,30.626106 L22.6546849,30.5502955 L22.6594831,30.5481334 L22.6642796,30.5459038 L22.8316771,30.4680662 L22.8364408,30.4658364 L22.8412044,30.4635392 L23.0076575,30.3836408 L23.0124211,30.3813434 L23.0171502,30.3790124 L23.1826225,30.2970532 L23.1873516,30.2947221 L23.1920478,30.2923235 L23.3565739,30.2083373 L23.3612701,30.2059387 L23.3659663,30.2035062 L23.5294788,30.117493 L23.5341422,30.1150268 L23.5388038,30.1125268 L23.7013027,30.0245204 L23.7059314,30.0219865 L23.7105601,30.0194191 L23.8720454,29.9293856 L23.8766396,29.926818 L23.8812354,29.9241829 L24.0416396,29.83219 L24.0462338,29.8295548 L24.0507951,29.8268521 L24.2101182,29.7328322 L24.2146795,29.7301633 L24.2192062,29.7274268 L24.3774499,29.6314135 L24.3819766,29.6286771 L24.3864704,29.625873 L24.5435968,29.5279004 L24.5480906,29.5250964 L24.5525499,29.5222586 L24.708564,29.4223264 L24.7130233,29.4194549 L24.7174479,29.4165495 L24.8722789,29.3146579 L24.8767053,29.3117526 L24.8810971,29.3087796 L25.0347778,29.2049285 L25.0392042,29.2019556 L25.0435285,29.1989488 L25.1960279,29.0931723 L25.200385,29.0901318 L25.2047093,29.0870573 L25.3559927,28.9793213 L25.360317,28.9762469 L25.3646085,28.973105 L25.5146758,28.8634771 L25.5189656,28.8603352 L25.5232224,28.8571596 L25.6720063,28.745572 L25.6762632,28.7423964 L25.6804854,28.7391532 L25.8280188,28.6256738 L25.832241,28.6224305 L25.8363975,28.6191198 L25.9826474,28.5037487 L25.9868351,28.5004715 L25.9909916,28.4970932 L26.0593018,28.4418232 L26.1746052,28.3291884 L26.2670382,28.197128 L26.3333212,28.0501691 L26.3712264,27.8934803 L26.3793682,27.7324674 L26.3574768,27.5727721 L26.3063272,27.419901 L26.2277129,27.2791582 L26.124336,27.1554425 L25.999808,27.053078 L25.8584238,26.9756119 L25.7051478,26.9257136 L25.5452487,26.9051392 L25.3843377,26.9146016 Z"/>
</svg>
