<svg xmlns="http://www.w3.org/2000/svg" width="32" height="32" viewBox="0 0 32 32">
  <path d="M16,-1.96647503e-15 C7.17369652,-1.96647503e-15 0,7.17354627 0,15.9998978 C0,24.826252 7.17368493,31.999967 16,31.999967 C24.8263126,31.999967 32,24.826252 32,15.9998978 C32,7.17354645 24.8263023,-1.96647503e-15 16,-1.96647503e-15 Z M16,1.7297298 C23.8915044,1.7297298 30.2702703,8.10835674 30.2702703,15.9998978 C30.2702703,23.8914421 23.8914941,30.2702373 16,30.2702373 C8.10850387,30.2702373 1.72972973,23.8914421 1.72972973,15.9998978 C1.72972973,8.10835674 8.10849228,1.7297298 16,1.7297298 Z M10.6377365,9.25337832 L10.6377365,9.68800682 L10.6377365,22.7464872 L12.4289527,22.7464872 L19.5677699,22.7464872 L21.3622642,22.7464872 L21.3622642,9.25337832 L10.6377365,9.25337832 Z M11.5006419,10.1194595 L20.4960467,10.1194595 L20.4960467,21.8802369 L19.5677699,21.8802369 L12.4289527,21.8802369 L11.5006419,21.8802369 L11.5006419,10.1194595 Z M12.4289527,11.4434121 L12.4289527,12.3062838 L19.5677699,12.3062838 L19.5677699,11.4434121 L12.4289527,11.4434121 Z M12.4289527,14.0484797 L12.4289527,14.914696 L19.5677699,14.914696 L19.5677699,14.0484797 L12.4289527,14.0484797 Z M12.4289527,17.0588851 L12.4289527,17.9219251 L19.5677699,17.9219251 L19.5677699,17.0588851 L12.4289527,17.0588851 Z M12.4289527,19.7784129 L12.4289527,20.6414857 L19.5677699,20.6414857 L19.5677699,19.7784129 L12.4289527,19.7784129 Z"/>
</svg>
